<?xml version="1.0" encoding="utf-8"?>
<!-- Generator: Adobe Illustrator 22.0.1, SVG Export Plug-In . SVG Version: 6.00 Build 0)  -->
<svg version="1.1" id="Слой_1" xmlns="http://www.w3.org/2000/svg" xmlns:xlink="http://www.w3.org/1999/xlink" x="0px" y="0px"
	 viewBox="0 0 586 885" style="enable-background:new 0 0 586 885;" xml:space="preserve">
<style type="text/css">
	.st0{opacity:0.4;}
	.st1{fill:none;stroke:#222121;stroke-width:40;stroke-miterlimit:10;}
</style>
<g class="st0">
	<path class="st1" d="M435.7,377.3l84.9-98l-12.1-124.7L382.5,50.1L435.7,377.3z"/>
	<path class="st1" d="M263.5,414.7l161.3-3.7l84.6-97.3L497,189.8L295.4,383.9L263.5,414.7z"/>
	<path class="st1" d="M267.9,215.8L294,380.5L408.8,263L385.5,94L267.9,215.8z"/>
	<path class="st1" d="M159.7,336.8l128.4,41.9l-17.6-164.6L159.7,336.8z"/>
	<path class="st1" d="M151.4,175.2l30.3,134.6l90.1-95.2l-19.3-126L151.4,175.2z"/>
	<path class="st1" d="M258.1,52.5L382,93L271.8,214.6L258.1,52.5z"/>
	<path class="st1" d="M106,106l-73.9,28.2l44.3,62.4l54-25.6L106,106z"/>
	<path class="st1" d="M129.2,74.2L149,174.4l97.6-86.5L129.2,74.2z"/>
	<path class="st1" d="M76.7,234.9l95.4,63.3l-25.9-124.7L76.7,234.9z"/>
	<path class="st1" d="M543.8,643L527,501.8l-113.1-77.2l-183.1,34.3L543.8,643z"/>
	<path class="st1" d="M443.3,816.3l120.2-140.4l-16.3-140.5l-112.6-76.4l7.5,308.4L443.3,816.3z"/>
	<path class="st1" d="M281.1,673.1l157.2,93.2l-10.2-180.4l-158.4-98.7L281.1,673.1z"/>
	<path class="st1" d="M299.2,850.4l133-80.2L281.8,669.7L299.2,850.4z"/>
	<path class="st1" d="M158.3,744l135.2,68.6l-10.5-143.7L163.5,597L158.3,744z"/>
	<path class="st1" d="M137.7,566.9l128.5-77.4l16.8,179.4L137.7,566.9z"/>
	<path class="st1" d="M66.1,734.3l-33,82.8l85.8,6l20-64.1L66.1,734.3z"/>
	<path class="st1" d="M57.4,692.3l98.5,53.3l2.5-144.1L57.4,692.3z"/>
	<path class="st1" d="M151,849.7l125.6-37L153,747.3L151,849.7z"/>
</g>
</svg>
