<svg xmlns="http://www.w3.org/2000/svg" viewBox="0 0 187.58 51.21"><defs><style>.cls-1{fill:none;}.cls-2{fill:#121312;fill-rule:evenodd;}</style></defs><title>Ресурс 5</title><g id="Слой_2" data-name="Слой 2"><g id="Слой_1-2" data-name="Слой 1"><path class="cls-1" d="M0,40.87c7.55,1,15.44,2.05,23.7,2.72s16.17,1,24.27,1.08c4,0,8.09,0,12.1-.08,3.48-.09,7-.09,10.61,0,7.18.11,14.56.45,22.13.82l11.52.53,11.44.46c7.56.31,15,.64,22.48,1.06q5.56.32,11.08.7l11.14.88c7.49.62,14.73,1.27,21.7,2.2l5.41-40.88c-8.12-1.07-16-1.78-23.71-2.41l-5.73-.47L152.26,7q-5.87-.42-11.7-.74c-7.76-.43-15.47-.77-23.11-1.08l-11.38-.46L94.79,4.19c-7.62-.36-15.44-.73-23.48-.86-4-.06-8.09-.06-12.21,0-3.6.08-7.15.11-10.73.07-7.11-.06-14.31-.38-21.32-.94S12.94,1,5.41,0Z"/><path class="cls-2" d="M182.49,28c-.11-.33-.28-.37-.48-.19C182.18,27.84,182.29,28.25,182.49,28Z"/><path class="cls-2" d="M181.93,28.75c-.18.06-.27-.43-.48-.18C181.6,28.7,181.7,29.13,181.93,28.75Z"/><path class="cls-2" d="M180.85,27c-.15-.23-.19.05-.46.09.06.23.15.2.23.3C180.75,27.25,180.71,27.1,180.85,27Z"/><path class="cls-2" d="M176.79,18.82l-.17-.37c-.16.29-.24.06-.38.27C176.38,19.08,176.56,19.11,176.79,18.82Z"/><path class="cls-2" d="M181,28.48c.12-.23-.21-.57-.35-.32s.12.12.21.47C180.92,28.51,181,28.38,181,28.48Z"/><path class="cls-2" d="M176,18.52c-.22,0-.19-.32-.27-.57a1.07,1.07,0,0,0,0,.86Z"/><path class="cls-2" d="M178.05,25.68c.11-.29-.26-.47-.43-.08C177.71,26,178,25.35,178.05,25.68Z"/><path class="cls-2" d="M174,17.48c-.08-.05-.26.06-.16-.12-.08-.21-.25.23-.37.28a1,1,0,0,0-.43-.67c-.08.68-.45.56-.77.73.16.05.34,0,.46.33.06-.46.13-.25.4-.44a.65.65,0,0,0,.07.35c.17-.18.32-.15.44.08A1.12,1.12,0,0,0,174,17.48Z"/><path class="cls-2" d="M177.38,25.3l-.18-.38c0,.13-.11.35-.2.22C176.89,25.37,177.23,25.64,177.38,25.3Z"/><path class="cls-2" d="M176.4,27.53c-.16-.13-.33-.07-.53.17C176,27.79,176.33,28,176.4,27.53Z"/><path class="cls-2" d="M169.57,14.84c-.13-.28-.42-.25-.47.1C169.26,14.94,169.4,15,169.57,14.84Z"/><path class="cls-2" d="M174.78,27.07c-.18-.07-.3-.53-.55-.09C174.4,27.12,174.57,27.26,174.78,27.07Z"/><path class="cls-2" d="M169.71,20.62c-.22-.19-.23.2-.55.34a.34.34,0,0,1,.2.21C169.51,20.62,169.74,21.12,169.71,20.62Z"/><path class="cls-2" d="M172.77,27.92c-.1.27.29.34.35.75C173.33,28.32,172.91,28.11,172.77,27.92Z"/><path class="cls-2" d="M170.94,27c-.19,0-.35-.18-.57.08.2.16.42.19.61.44C171.19,27.4,170.73,27.15,170.94,27Z"/><path class="cls-2" d="M165.82,16.56c.12-.51-.32-.14-.43-.24C165.28,16.73,165.71,16.47,165.82,16.56Z"/><path class="cls-2" d="M165.22,18.26c.09.35.28-.14.36.32a.85.85,0,0,0,.08-.68C165.46,18.3,165.27,17.84,165.22,18.26Z"/><path class="cls-2" d="M162.6,12.87c-.18-.23-.36-.42-.59-.18C162.2,12.78,162.39,13,162.6,12.87Z"/><path class="cls-2" d="M171.69,32c-.07-.33-.2-.14-.28-.4-.22.2-.12.44,0,.7Z"/><path class="cls-2" d="M170.49,29.68c-.1-.38-.26-.31-.39-.4C170,29.52,170.33,30.06,170.49,29.68Z"/><path class="cls-2" d="M170.59,31.59c0-.09-.07-.06-.11,0-.38-.5-.87-.15-1.26-.55-.27.24-.15.54-.32.8.21.29.23-.25.41-.19.18.26,0,.43.22.47.06-.46.36-.28.56-.51.09.34.22.27.32.49C170.68,32,170.32,31.72,170.59,31.59Z"/><path class="cls-2" d="M162.67,17.17c.1.12-.25.28-.31.21-.16.42.22,0,.25.3.24-.17.13-.38.23-.57a1.52,1.52,0,0,0-.4-.4C162.26,17,162.52,17.16,162.67,17.17Z"/><path class="cls-2" d="M173.37,39.81c-.15-.22-.28-.64-.51-.26C173,39.67,173.17,40,173.37,39.81Z"/><path class="cls-2" d="M173.34,40.41c.12-.28-.23-.35-.36-.15C173.05,40.74,173.24,40.26,173.34,40.41Z"/><path class="cls-2" d="M172.69,39.61c-.17.17-.13.37-.24.56.08.09.18,0,.26.13A.92.92,0,0,0,172.69,39.61Z"/><path class="cls-2" d="M162,17.24c.08-.52-.42-.23-.55-.52C161.23,17.26,161.79,17.26,162,17.24Z"/><path class="cls-2" d="M173.92,45.42c-.15-.13-.42.07-.76.46C173.41,45.75,173.63,45.84,173.92,45.42Z"/><path class="cls-2" d="M160,16.4c0,.28.21.68.4.41C160.4,16.55,160.18,16,160,16.4Z"/><path class="cls-2" d="M169.74,36.6c-.13-.35-.78-.18-.53.34C169.42,36.51,169.56,36.76,169.74,36.6Z"/><path class="cls-2" d="M166.61,30.59c0-.46-.48-.54-.76-.13.1.13,0,.24,0,.34C166,31.24,166.39,30.29,166.61,30.59Z"/><path class="cls-2" d="M171.43,42.22c-.16-.44-.37-.46-.61-.28C171,41.89,171.18,42.5,171.43,42.22Z"/><path class="cls-2" d="M159,16c-.08,0-.16-.08-.09-.19-.39.33-.67-.26-1.08.09C158.33,15.92,158.47,16.93,159,16Z"/><path class="cls-2" d="M167.42,35.87c-.08-.39-.27.09-.41.19a.31.31,0,0,1,.19.2A.77.77,0,0,1,167.42,35.87Z"/><path class="cls-2" d="M157.69,15.87c.17-.28-.16-.12-.18-.37.05.54-.2,0-.44.36.08.47.3-.31.38.15C157.54,15.89,157.63,15.78,157.69,15.87Z"/><path class="cls-2" d="M157,15.6c-.34-.19-.35-.86-.67-.53.31.34-.16.55.13.88C156.57,15.36,156.84,15.89,157,15.6Z"/><path class="cls-2" d="M166.82,39.46c-.24-.13-.62.07-.44.53C166.61,39.76,166.68,39.84,166.82,39.46Z"/><path class="cls-2" d="M155.15,15.31c-.18-.41-.44-.12-.65-.27s.07-.39.23-.56c-.36-.28-.43.56-.94.37.07.38.1.22.28.56.28-.28-.08-.12-.12-.45C154.36,15,154.71,15.58,155.15,15.31Z"/><path class="cls-2" d="M159.45,27.81c-.21-.28-.52.05-.65.33C159,28.22,159.31,28.26,159.45,27.81Z"/><path class="cls-2" d="M162.3,34.35c-.19-.05-.05-.12-.17-.37-.12.19-.08.39-.13.58S162.2,34.45,162.3,34.35Z"/><path class="cls-2" d="M157.42,32.55a.51.51,0,0,0-.74.14C156.92,32.57,157.31,33,157.42,32.55Z"/><path class="cls-2" d="M159.72,43c-.1-.24-.24-.17-.35-.31-.2.14.26.38,0,.52C159.5,43.26,159.62,43.05,159.72,43Z"/><path class="cls-2" d="M162,48c-.19-.25-.42-.09-.68.23C161.54,48.13,161.92,48.3,162,48Z"/><path class="cls-2" d="M152.05,29.16l-.18-.37c0,.12-.06.24-.13.15C151.62,29.18,151.94,29.45,152.05,29.16Z"/><path class="cls-2" d="M158.21,44.6c-.2-.31-.48,0-.66-.53-.12.18,0,.39,0,.59-.17.14-.37-.2-.41.2.11.14.28-.22.37.14C157.66,44.42,157.92,45,158.21,44.6Z"/><path class="cls-2" d="M150.81,30.94c-.09,0-.16-.21-.26-.12s-.06.6.1.61S150.55,31.07,150.81,30.94Z"/><path class="cls-2" d="M155,44.44c0-.42-.66-.65-.75-.12C154.55,44.3,154.82,44.09,155,44.44Z"/><path class="cls-2" d="M155.18,47.47c-.14-.29-.33-.24-.54.08C154.82,47.5,155,47.68,155.18,47.47Z"/><path class="cls-2" d="M152.53,42.68c-.17-.09-.32-.35-.53-.08C152.16,42.73,152.33,42.87,152.53,42.68Z"/><path class="cls-2" d="M150.68,41.71c-.11-.16-.25,0-.36-.14-.07.13.06.3.12.45Z"/><path class="cls-2" d="M149.86,41.85c-.11-.33-.29,0-.41-.24C149.36,41.79,149.7,42.24,149.86,41.85Z"/><path class="cls-2" d="M143.11,29.08c-.06.05,0,.11,0,.17s-.13-.1-.2-.2c-.14.08-.12.59-.31.39-.21.28.29.14.08.35C142.83,29.77,143.37,29.51,143.11,29.08Z"/><path class="cls-2" d="M142.46,29.59c-.06-.19-.14-.11-.22,0-.07-.12-.14-.25-.08-.35s-.19.11-.29.21l.23.46C142.24,29.59,142.33,29.81,142.46,29.59Z"/><path class="cls-2" d="M141.35,27.81c-.14-.12-.29,0-.45.12C141,28.25,141.18,28.05,141.35,27.81Z"/><path class="cls-2" d="M147,40.32c-.23-.14-.26.47-.18.66C147.12,41,147,40.56,147,40.32Z"/><path class="cls-2" d="M147.35,41.39c-.26-.18-.64-.48-.82.14C146.81,41.39,147,42,147.35,41.39Z"/><path class="cls-2" d="M146.64,40.35c-.18,0-.35-.12-.55.09.17.12.36.05.52.25C146.67,40.58,146.56,40.45,146.64,40.35Z"/><path class="cls-2" d="M145.87,38.79c-.49.1-.57-.2-.34.72C145.78,39.29,145.77,39,145.87,38.79Z"/><path class="cls-2" d="M139.69,27.77c-.15-.28-.34-.3-.54-.08C139.33,27.78,139.49,28,139.69,27.77Z"/><path class="cls-2" d="M137.08,26.66c-.55.41-1,0-1.32.6a2.25,2.25,0,0,0,1.23-.19c0,.12-.07.22-.14.33C137.2,27.74,137.27,27.07,137.08,26.66Z"/><path class="cls-2" d="M142.56,39.18c-.26-.27-.15.64-.3.39C142.19,40.11,142.64,39.38,142.56,39.18Z"/><path class="cls-2" d="M142.27,39.4c-.15-.14-.31-.14-.51.18C141.92,39.7,142.09,39.63,142.27,39.4Z"/><path class="cls-2" d="M134.51,27l-.19-.36c-.12.12-.07.27-.2.4C134.25,27,134.36,27.22,134.51,27Z"/><path class="cls-2" d="M138.85,36.8c-.1.18,0,.4-.22.57C138.88,37.5,139.24,36.9,138.85,36.8Z"/><path class="cls-2" d="M130.76,43.44c-.23-.53-.48,0-.52.37C130.4,43.82,130.58,43.61,130.76,43.44Z"/><path class="cls-2" d="M125.31,42.52c-.21-.35-.23.41-.49,0-.09-.33.23-.19.3-.39-.2-.22-.4,0-.52.37.14,0,.19.14.19.36-.26.4-.45-.27-.72.17.13,0,.26-.06.36.3.34-.39.61-.18.76.09C125.22,43.13,125,42.79,125.31,42.52Z"/><path class="cls-2" d="M123.24,42.44l-.19-.36c-.23.28-.23.12-.37.46.18.32.54-.38.32.21C123.13,43,123.22,42.51,123.24,42.44Z"/><path class="cls-2" d="M122.46,41.92c0,.23-.22.43-.38.64l.15.27c.06-.11.11-.12.16-.06,0-.32,0-.23.2-.41C122.5,42.21,122.56,42.07,122.46,41.92Z"/><path class="cls-2" d="M121.61,41.48c-.2.3-.36,0-.57.27.22.23.49-.14.69.34C121.86,41.73,121.66,41.86,121.61,41.48Z"/><path class="cls-2" d="M120.68,42.22a.43.43,0,0,0,.1-.58.29.29,0,0,0-.23.14A.77.77,0,0,0,120.68,42.22Z"/><path class="cls-2" d="M120.54,42c-.1-.15,0-.29-.14-.44-.11.11-.07.35-.18.23-.07.13.07.29.13.44Z"/><path class="cls-2" d="M120.16,42.59c0-.18-.34-.75-.52-.41C119.81,42.36,120,42.66,120.16,42.59Z"/><path class="cls-2" d="M117.06,41.37c-.15.3-.27.19-.41.38.1.34.26,0,.36.3C117.14,41.83,117.27,41.62,117.06,41.37Z"/><path class="cls-2" d="M115.35,41.43c-.13-.22-.27-.24-.43,0l.19.36Z"/><path class="cls-2" d="M114.32,41.22a5.55,5.55,0,0,0-.64-.24c-.19.18.31.43.12.61.13.1.12-.13.18-.24S114.19,41.57,114.32,41.22Z"/><path class="cls-2" d="M113.55,42.07c-.12-.16-.28.21-.39,0,0,.32.15.38.35.47C113.62,42.42,113.39,42.22,113.55,42.07Z"/><path class="cls-2" d="M112.38,40.66c-.36.44-.66-.07-1-.12-.26.5.36.63.47,1.08.08-.47,0-.52.38-.64.21.39.16.65.45.65C112.77,41.16,112.65,41.05,112.38,40.66Z"/><path class="cls-2" d="M112.25,41.75c-.23-.14-.48,0-.71-.17C111.54,41.82,112,42.22,112.25,41.75Z"/><path class="cls-2" d="M111.07,42c-.08-.17-.18-.1-.26-.29-.17.24.1.53-.11.76.11.07.22,0,.34-.13C110.83,42.08,110.82,42.28,111.07,42Z"/><path class="cls-2" d="M109.47,41.94c-.07-.22-.17-.19-.25-.28,0,.2-.12.38,0,.6C109.27,42,109.31,42.16,109.47,41.94Z"/><path class="cls-2" d="M90.54,38c-.25-.31-.53-.12-.83.15.22.16.44.44.67.51A4,4,0,0,0,90.54,38Z"/><path class="cls-2" d="M85.17,38.93c-.1-.36-.26,0-.37-.13C84.7,39,85,39.28,85.17,38.93Z"/><path class="cls-2" d="M79.71,38c0-.33-.44-.38-.64-.07C79.27,38,79.5,37.93,79.71,38Z"/><path class="cls-2" d="M77.1,37.58c-.27.21-.74.18-.84.51A.71.71,0,0,0,77.1,37.58Z"/><path class="cls-2" d="M71.84,37.9c-.18-.22-.39,0-.57-.14A.3.3,0,0,0,71.84,37.9Z"/><path class="cls-2" d="M66.39,36.4c0,.19-.15.38-.17.58s.21,0,.32-.15C66.44,36.68,66.5,36.55,66.39,36.4Z"/><path class="cls-2" d="M48.11,7.3c-.41-.26-.86.48-1.27.22C47,8.18,47.71,7.55,48.11,7.3Z"/><path class="cls-2" d="M46.78,7.77c-.17-.27-.34-.21-.53.12A.47.47,0,0,0,46.78,7.77Z"/><path class="cls-2" d="M56.26,37.71a.45.45,0,0,0,.05.43,1.59,1.59,0,0,0-.92.11,1.09,1.09,0,0,0,1.14.07C56.32,38.11,56.39,37.92,56.26,37.71Z"/><path class="cls-2" d="M54.45,36.41c0,.26-.26.49-.07.76C54.61,37.18,54.63,36.69,54.45,36.41Z"/><path class="cls-2" d="M54.93,38.06c.06-.14-.09-.29-.16-.44a.81.81,0,0,0-.24.5C54.66,38.27,54.8,37.78,54.93,38.06Z"/><path class="cls-2" d="M41.18,39.15c-.2-.18-.32.2-.43.38.12.07.24,0,.36-.14C41.06,39.31,41.15,39.23,41.18,39.15Z"/><path class="cls-2" d="M40.25,40.16c-.14-.17-.37.34-.38.47C40.12,40.67,40.24,40.47,40.25,40.16Z"/><path class="cls-2" d="M39.25,39.54c-.48-.26-1,0-1.5,0,.08.41-.23.3-.45.54C38,40.12,38.48,39.66,39.25,39.54Z"/><path class="cls-2" d="M37.5,39.69c-.19-.25-.43.11-.65.19C37.05,40.06,37.27,40.06,37.5,39.69Z"/><path class="cls-2" d="M36.62,39.85c-.23,0-.44-.24-.69-.08C36,40.06,36.37,40.26,36.62,39.85Z"/><path class="cls-2" d="M36,39.18c-.29,0-.39-.23-.55-.4-.18.34-.3.35-.18.83C35.4,39,35.79,39.46,36,39.18Z"/><path class="cls-2" d="M35.32,43.88c.1-.38-.33-.23-.47-.06.08.23.19.19.28.29C35.25,44,35.2,43.75,35.32,43.88Z"/><path class="cls-2" d="M32.86,40.42c.07-.05,0-.11,0-.17l-.1-.18c-.19.38-.76,0-1.15.45a.24.24,0,0,1,0,.26c.29-.19.55-.12.85-.4.25.45-.16.29-.18.66s.32-.49.43-.2C32.87,40.75,32.56,40.21,32.86,40.42Z"/><path class="cls-2" d="M34.26,43.92a1.25,1.25,0,0,0-1.14.29A2.06,2.06,0,0,0,34.26,43.92Z"/><path class="cls-2" d="M31.34,40.57c-.19,0-.14-.57-.41-.57.07.35,0,.55-.3.65C30.85,40.87,31.1,40.69,31.34,40.57Z"/><path class="cls-2" d="M30.88,41.11c-.25-.23-.55,0-.84.23C30.43,41.52,30.52,41.25,30.88,41.11Z"/><path class="cls-2" d="M28.28,40.84c-.08.14.13.31,0,.43.38.08.85-.72,1.18-.18C29.56,40.16,28.63,41.2,28.28,40.84Z"/><path class="cls-2" d="M29.57,41.45c-.38-.31-.84.18-1.27.42C28.67,42.21,29.14,41.64,29.57,41.45Z"/><path class="cls-2" d="M28.51,42.67c.08-.45-.42,0-.59.09C28.09,43,28.33,42.48,28.51,42.67Z"/><path class="cls-2" d="M28.33,42.13c-.32-.15-.61-.46-1,.12C27.69,41.9,28,42.5,28.33,42.13Z"/><path class="cls-2" d="M26.72,41.31c.3.44-.14.76-.35.55s.18-.42.35-.55c-.11-.43-.32.14-.44-.24a3.77,3.77,0,0,1-1.44,1.77c-.05.6.85-.37.92-.73,0,.51.43.16.22.63.49-.47.92-1.07,1.6-1.82C27.34,40.63,27,40.92,26.72,41.31Z"/><path class="cls-2" d="M25.05,42c.08-.13-.07-.3-.13-.45-.17,0-.36.35-.51.27,0,.14,0,.29-.11.41.11.1.23.12.34.22C24.82,42.26,24.75,41.72,25.05,42Z"/><path class="cls-2" d="M24.42,41.23c-.19,0-.62.18-.37.55C24.3,41.61,24.25,41.41,24.42,41.23Z"/><path class="cls-2" d="M24,42.19c.15-.39-.27-.07-.32-.39-.09.31,0,.34-.29.47C23.5,42.56,23.75,42.14,24,42.19Z"/><path class="cls-2" d="M184.7,29.65c.05.22-.23.36,0,.6.11-.14.19,0,.31-.19-.43-.14.42-1.47-.2-.48-.46-.16-1-.11-1.36-.62-.27.32-.32.18-.37-.16-.06.1,0,.23,0,.33s0-.33-.21-.47c-.11.39-.21.32-.59.92.18.19.44-.15.66-.3.09.5.31.22.48.18.24.83.84.51,1,.89.29-.31-.18-.68-.29-.66C184.3,29.34,184.41,30,184.7,29.65Z"/><path class="cls-2" d="M180.43,25.61a.84.84,0,0,0-.88-.17c.18.21,0,.35.15.55C179.9,25.3,180.14,25.83,180.43,25.61Z"/><path class="cls-2" d="M179.07,25.27c-.16,0-.24.16-.11.41-.09.07-.14-.11-.2-.21-.24.15-.2.36-.36.53-.32-.07-.63-.28-1,0-.28-.92-.79-.25-1.16-.55.12-.67.65-.14.78-.73-.65.16-.94-.5-1.7.05-.11-.4-.18-.74-.52-.27-.1-.39,0-.8.28-.89-.06-.25-.19,0-.26-.14.07.3-.32.52-.11.84-.33-.5-.8.06-1.17-.11.55-.27.92-.58,1-.6-.09-.64-.84.12-1.21.22,0-.44-.37-.38-.57-.35s0,.23,0,.33-.11,0-.17.06c0-.14.1-.27,0-.43-.45-.09-.95.18-1.42.19,0-.09,0-.17,0-.26.52-.1.71-.37,1.19-.49-.34-.45-.77-.18-1.12-.45-.17.29.15.13.17.37s-.2.14-.3.21c-.23-.29,0-.69-.25-.73-.12.13-.08.27-.22.4,0,.08.12,0,.18-.06.1.22,0,.88.18.37.27.51-.14.65-.35.55.31-.22-.28-.36,0-.69-.13-.18-.34.39-.48.26-.12-.35.3-.51.46-.53.16-.2-.08-.47.08-.67-.17-.25-.42.11-.59-.19.05-.37.25-.22.41-.61-.14-.52-.42.1-.57-.36-.14.29.23.19.26.56-.16,0-.33,0-.48-.16.2.38,0,.55-.06.93-.06,0-.11,0-.17.06-.23-.21.17-.32,0-.53-.31.52-1.55-.1-1.37-.74-.18.29-.35.1-.39.46-.26-.3,0-.52-.19-.8.27.13.58-.17.84,0-.12-.39-.76-.54-1.13-.44-.08-.18.12-.32,0-.52-.26.22-.53.48-.83-.05-.08.43-.31.34-.21.83-.12-.39-.39.12-.64-.28.09.64-.48.19-.52.61-.37-.32.29-.47,0-.77-.21.32-.37.31-.52.17a3,3,0,0,1,.12-.58c.59-.13,1.1.28,1.57-.09-.09-.34-.27.15-.35-.31-.83.85-1.37-.76-2.17-.09-.6-1-2-.25-2.2-1.21a4.37,4.37,0,0,1-.64-.27c-.19.63-.51.11-.8.22,0-.15.1-.27,0-.43-.07.44-.46.39-.39,0-.66.42-1.17-.41-1.81-.2.15.27-.18.37-.28.48-.08-.22.27-.36.23-.57-.47-.49-1,0-1.57-.07.08-.63-.54-.76-.7-.36-.07-.33-.21-.14-.29-.39-.38.89-1.38-.59-2.1.12-.4-1-1.45.4-1.74-.6.15.12.33,0,.5,0-.08-.49-.7.09-1.11-.17-.17-.1-.75-.7-.82-.2-.13.18-.2-.29-.3-.38-.42.28-.78-.08-1.21.25a5.21,5.21,0,0,0-2.14-.55,164.51,164.51,0,0,0-27.95-4c-4.63-.31-9.36-.48-13.89-.61s-9.22-.24-13.91-.33c-.15-.22,0-.4.1-.59,1.36.69,2.84-.26,4.2.35.12-.34.19-.29.41-.38,0,.17-.09.06-.18.24.2.22.47-.39.66.08.18-.21,0-.46.16-.67.54.87,1.49.68,2.29.29.61.18,1.21.48,1.87.06a.25.25,0,0,1,0,.26c1-.42,2.31.3,3-.32.13.24,0,.31.19.36.06-.11,0-.23-.08-.35,1.19.65,2.23-.36,3.44.41.15-.55.73,0,1,0,.5,0,.9-.51,1.1,0a.87.87,0,0,1,1.32.15c.25-.14-.11-.36.14-.5.07-.19.33.3.2.37.32-.42.59,0,.9-.24.1.13,0,.23,0,.34.41-.42.77-.08,1.18-.29,0,.64,0,.07.3.37,0-.22.17-.4.31-.39a.77.77,0,0,0,.13.44c.3-.62.78.3,1.35-.35a.44.44,0,0,1,0,.43c.66-.15,2.16.15,2.34-.24.34-.07.63.52,1-.06.28.43.81.71,1,.29,2,.46,4,.15,6.12.63.11-.1.06-.22.14-.33.15.27.22.18.46.49,1.19-.45,2.74.68,4.13,0,.1.15,0,.28.14.44a3,3,0,0,1,1.56,0c0-.24-.08-1,.43-1.14.12.35,0,.54.27.71.07.28-.33.57-.4.21-.24.39.33.63.32.21.65.71,1.42-.14,2.07.6.2-.57.66-.33.94.2.12-.1.08-.22,0-.34.6.35,1.25.2,1.86.58.06-.13,0-.28.09-.42.88.39,2.17-.08,2.79.79.06-.08,0-.17,0-.26,1,.27,2,.1,3,.73.74-.29,1.89.21,2.78.38.23-.17,0-.4.22-.57s.16-.06.22,0c-.3.9.65.52.94.81.14-.44-.24-.11-.3-.38s.27-.23.36-.29c.28,1.14,1.09.56,1.59,1.07.23-.16,0-.4.23-.56.08-.06.13.13.22,0,0,.15-.12.27-.21.4.14.24.31.26.51,0,0-.16-.15-.36.05-.5-.09-.19-.24.09-.32-.22.22-.32.36.18.59-.26.14.52.35.31.53.42,0,.43-.36-.14-.53.18.31.61-.17.2-.32.38.48.68.49,0,1,.48.11-.15-.12-.35-.06-.52s.11.06.16.11c.1-.21.06-.31-.08-.35.33-.44.59-.22.91-.64.16.19.25.22.17.53.24,0,.56-.63.77-.31s-.21.31-.27.47c.16.26.35-.15.32-.38.19-.23.3.39.49.16.05.18-.16.32.06.52.32-.61,1.19-.64,1.13,0,.25,0,.46.32.75-.15.24.72.77,0,.84.64.4-1,1,.69,1.53,0,.44.29.94.1,1.37.47.12.26-.29,0,0,.33.82-.68,1.42.53,2.2.18-.07-.18-.18-.11-.25-.3s.1-.21,0-.34c.32.13.6.59.93.67.08-.21-.07-.18-.14-.28-.06-.32.24.1.37-.29,0,.23,0,.32.18.37.39-.91.83.47,1.35-.13a.46.46,0,0,1-.07.68c.11.33.29,0,.42.23.07-.13-.06-.29-.12-.44.19-.34.32-.22.48-.27a.45.45,0,0,1-.17.49c.42-.26.77.09,1.16.1.05.18-.16.32.05.52.32-.84,1.43-.06,1.85-.39.07.43.53.39.14.71.22.13.27-.1.32-.38.24,0,.2.85.56.52-.08-.31-.22,0-.31-.22a.23.23,0,0,0,.08-.25c.55.12,1.05.69,1.68.11-.07.46,0,.41.12.87.2-.22,0-.51-.07-.78.38-.64.54.5.9,0,.31.37-.21.6,0,.94.24-.28.16-.6.28-.9s.18.36.31.23c0,.15-.13.26-.22.39.18.15.51-.05.44-.36.32.63.37.12.58.79.41-.28.42-.14.78.12.07-.21-.1-.47.19-.65l-.22-.47c-.2,0-.15.43-.33-.05-.13.09-.09.21-.05.33-.34-.08-1.43-.06-1.13-.87-.09-.22-.26.22-.38.28a.53.53,0,0,1,.26-.73c-.1-.12-.67-.17-.48.26-.26.1-.45-.32-.76.14-.07-.22.28-.36.24-.56-.15-.37-.8.19-.56-.53-.12-.22-.22.23-.15.32a.67.67,0,0,1-.58-.35c-.07.13,0,.29-.1.41s-.25-.1-.4,0a1.24,1.24,0,0,1,.11-.42,1.54,1.54,0,0,1-1.46-.06c-.1-.26.17,0,.26-.3-.14-.27-.35.08-.47-.33.24-.16.47-.14.64.27.25-.68.75.24,1.15-.16-.71-.33-1.38-.24-2-.48-.16.28.16.12.18.37-.41.41-.28-.79-.69-.37.1.1.21.12.32.22-.2.42-.29-.15-.49.27-.12-.17,0-.29.11-.41-.09-.05-.2.07-.27-.13-.15.56-1.06.08-1.49-.15-.06-.42.22.22.35-.12a4.5,4.5,0,0,1-2.24-.44c0-.15.12-.27.21-.39-.19-.46-.43.1-.43.36-.34.05.05-.5-.25-.73-.33.15.17.43,0,.6-.45-.1-1,.35-1.35-.3-.23.57-.4.26-.71.4-.18-.2,0-.34-.16-.54-.39.31-.73.16-1.08.09-.05-.33.32-.17.42-.19-.2-.38-.65-.2-1,.11-.19-.23.09-.39-.1-.62.18-.25.4,0,.44-.36a2.45,2.45,0,0,0-1.87.4c-.29-.3.25-.48,0-.77a2.27,2.27,0,0,1-1.76-.6c-.35.51-.51,0-.67-.1-.13.15,0,.35-.17.49-.37-.62-1.48.15-1.46-.64-.71,0-1.64-.65-2.2-.23-.3-.53-.71-.06-1-.74-.29.45-.49,0-.79.49-.18-.2,0-.35-.17-.54a10.22,10.22,0,0,1-3.88-.87c-.06.22-.21.4,0,.43a5.46,5.46,0,0,0-3.22-.6c-.28.18-.48-.47-.75-.44-.06.11.05.24,0,.34A1,1,0,0,0,138.52,8l-.29-.55a5.8,5.8,0,0,1-3.39-.51c0,.08,0,.17-.08.25-1.93-.61-3.93-.45-5.87-.89-.34.5-1.65-.14-2.51-.22-.46,0-.84.25-1.15-.22l-.25.31c-.18-.64-.73.16-1.08-.47-1,.51-2.26-.35-3.4,0l-.2-.36c-1.46.45-2.82-.41-4.28.1-.59-.59-1.27.19-1.86-.39-.4.46-.72-.17-1.12.22A5.31,5.31,0,0,0,110,5.07c-2.29-.37-4.49.09-6.73-.28L103,5.1c-.1.08-.08-.15,0-.26-1.2.19-2.07.06-3.3.28l-.19-.37c-.23,0-.13.62-.46.29,0-.17.1-.06.19-.23a.25.25,0,0,0-.41.2c-8.88-.61-17.85.46-27.21.79L71.4,6c-1.27-.28-2.57.53-3.84,0-.22.1-.43.66-.47.13a.75.75,0,0,1-1,.09l-.24.33a1.71,1.71,0,0,0-1.35.16,10.15,10.15,0,0,0-3.25.1,6,6,0,0,1-3.14-.21L57.85,7a.61.61,0,0,0-1.05.11c-.1-.15,0-.29-.15-.44-.14.64-.32.24-.47.06-.5.53-1.11.39-1.79.39a.47.47,0,0,1,0-.43c-.16-.08-.18.6-.48.22,0,.08,0,.17.05.26-.16.15-.31-.17-.48.22-.1-.12,0-.23,0-.34a1.13,1.13,0,0,1-.85.45c-.14-.44.18-.23.33-.49A16.24,16.24,0,0,1,51,7.89l-.25-.45c.06-.38-.15.2.1.35-.3.42-.57.31-1,.6-.06-.37-.44-.24-.19-.53-.18-.13-.19.5-.52,0-.25.34.12.27.19.36-.38.43-.73,0-1.12.49,0-.12.06-.22.12-.33-.1-.1-.22.18-.31-.19.09.47-.19.18-.39.56-.89-.68-2,1.06-2.74.08-.19.76-.75.6-1.09.74,0-.54.46-.13.66-.45-.08-.17-.17-.09-.25-.28.31-.21.63-.69.93-.84,0,.88.79,0,1-.08A1.69,1.69,0,0,0,44,8.43c-.05-.14.1-.27.18-.4-.33.09-1,.07-1,.82-.21.16-.12-.33-.24-.45-.62.52-1,.5-1.7,1.1a2.9,2.9,0,0,0-2.48.74,1.63,1.63,0,0,0-1.59.74c-1-.41-2.91,1.63-4.18.31.26,1.1-.83.55-.83,1.52-.27-.11-.65.86-.88.21A2.46,2.46,0,0,1,27.83,13a1.21,1.21,0,0,0-.29.81c-.19.08-.35-.07-.49-.42-.2.37-.34.17-.5.18-.11.46-.25.38-.4.79.08.24.22-.11.31,0a2,2,0,0,1-2.66-.52c-.17.61-.49.71-.82.54a5.36,5.36,0,0,1-2.66,2.12l-.25-.57c0,.56-.52.36-.79.63a.53.53,0,0,1,0-.33,3.7,3.7,0,0,0-2.26.87,3.9,3.9,0,0,0-2.75,1.1c-.54-.16-1.71.7-2.21,1A9.69,9.69,0,0,0,9.82,21c.21,0,.17.33.24.57-.18.24-.3,0-.48.25.24.2.4-.1.51.28.35-.55.7.34.88-.26.15-.15.2.37.31.5a3.53,3.53,0,0,1,1.07-.05,8.8,8.8,0,0,0-1,1,9.68,9.68,0,0,0,4.77-.88c.16-.08.29.06.41.25a1.19,1.19,0,0,0,0-.42,1.13,1.13,0,0,0,.53-.17c.14.8.93-.36,1.29-.87.12.31-.15.54-.34.8.17-.09.37.18.32.49-.31.33-.32,0-.57.49.1.28.34-.5.4,0,.22-.13.11-.33.28-.47s.16-.05.22,0c0,.29-.3.52-.33.8-.06.05-.11,0-.18.06.19-.5-.32-.16-.54-.1-.09-.16,0-.29-.11-.45-.51.19-.71,1.05-1.17,1.16,0-.32.45-.55.63-.83-.2,0-.64.08-.58.49-.49-.36-1.12.29-1.71.62.29.32.71-.3,1.08-.48-.31.78-1,.94-1.3.44-.49.39-1,.72-1.34.34-1.47.95-2.72.43-4.17,1.16.23.45.57.2.77.84.34-.12.64,0,.89.44.12-.09.07-.21.16-.31.15.6.47.1.67.39s-.08.39-.26.55c.24.39.6,0,.88.18s-.17.37,0,.59c.4.32.72-.28,1.24-.35.08.48-.54.75-.77,1,.09,0,.17.13.24.3.07-.07,0-.17,0-.26.25-.18.33.2.49-.25.09.16,0,.29.11.45a1.2,1.2,0,0,1,1.12.05.61.61,0,0,0,.1-.67c.15-.21.27-.27.38-.28a5.4,5.4,0,0,1,.07,1.05,2.06,2.06,0,0,0-1.44,1.28,3.09,3.09,0,0,1-2.08-.15c.08.7-.4.4-.67.3,0-.37.29.07.43-.18-.24-.41-.65.27-1,.33-.18-.26.19-.39-.1-.45-.15.56-.91.46-1.28.26-.41.48-.76.18-1.25.35-.12.57.38.19.52.28-.43.28-1.45.77-2,.1-.56.63-2-.31-2.38,1.15-.37-.26-.63.46-.92.16,0-.3.24-.17.26-.56A3.53,3.53,0,0,0,.82,34.65c.17.29.5.61.34,1,.41.46,1.17.46,1.15,1.54.29-.43.66-.18.79-.7-.06-.1-.16.05-.25.12-.06-.34.06-.21.23-.38.1.34.23.45.38.42a.42.42,0,0,1-.14.57c.13.09.27,0,.31-.19.25.66,1.11.24,1.69,0,.51.86,1.31-.13,2-.63l.08.19c-.39.86-1,.81-1.41,1.36.07.26.21.07.27.4C7.39,37.59,7.93,38,9,37.53c0,.09,0,.17,0,.26a1.91,1.91,0,0,0-1.16.81c.11.28.3,0,.41.25,0-.36.15-.42.32-.19A1.4,1.4,0,0,1,8.65,38a.68.68,0,0,0,1-.66c.17-.25,0,.53.24.31,0,.17-.25.13-.19.48.22.09.51-.53.46-.78.17-.09.06.47.19.65.33-.2.18-.49.4-.7s.15.29.06.35c.21.2.23-.34.3-.46a.84.84,0,0,1,.25.57c-.18.29-.29.17-.45.35.29.35.52-.24.55-.59a1.08,1.08,0,0,0,1.13-.64c.26.28-.09.44,0,.69-.24.1-.48.13-.72.21a.84.84,0,0,1-.15,1c.12.2.28,0,.32-.19,0,.41.26.07.26.56.37-.4.66-.34,1.09-.31.05.26-.37.39-.41,0-.07,0,0,.11,0,.17l-.13.15c.18.34.45.07.7,0,.06.35-.11.67,0,1,.17-.33.15-.17.42-.43.18.23.09.42.19.64.17-.12.15-.26.23-.39.14.2,0,.34.16.55a1.79,1.79,0,0,1,1.05,0c.1.39-.16.19-.37.53.14.25.38-.23.5.18,0-.14.16-.26.12-.41.8.44,1.76-.24,2.57.11.08-.1,0-.23-.07-.35.17-.2.33-.37.46-.36.07,1.37,1.18-.2,1.64.11-.28,1.18-.87.77-1.4,1.23.22.3.59-.26.61.36l.41-.45c.13.16.08.3.12.45-.15,0-.36.32-.49.09,0,.39-.17.19-.25.56.19.7.66-.77.84,0,.32-.44.65-.87.94-1.31.21.26.06.47-.08.67.14.46.37.17.56.27a.72.72,0,0,1,.32-.64c-.11-.11-.26.16-.33-.22a.35.35,0,0,1,.58.09l.62-.68c0,.51-.15.39.24.47.26.27-.18.43,0,.69.17-.81.47-.51.91-1.14a5,5,0,0,1,1,.49c.35-.77.72-.88,1.15-1.29.24.27-.23.43-.18.66.53,0,1.16-1.1,1.45-1.68-.52-.25-.78.86-1.15,1a.44.44,0,0,1,0-.43c-.13-.17-.41.33-.28.47-.42-.72-1.58,1.2-2.16.2a1.6,1.6,0,0,1,2-.74c.48-1.13,1.28-.95,2-1A4.25,4.25,0,0,0,27.39,40c.19-.34.32-.16.51-.44.43,1,.75-.43,1.17.41a3.82,3.82,0,0,1,.92-.47c-.14-.16.05-.28,0-.43.17-.11.31,0,.49-.27a.28.28,0,0,1-.27.47c0,.39.72,0,.73-.42.23.06.49-.26.67.26.32.08.72-.76,1-.46.17.5-.21.94-.42,1.4.42,0,.65-.71,1.21-.54.18.35.06.42.31.39.22-.3-.34-.15-.13-.45-.17,0-.34-.12-.52,0-.06-.44,0-.39-.32-.38,0-.12.08-.22.14-.32s.27.48.43.39c0-.14.15-.26.1-.41.2-.12.38.07.57.07.07.23,0,.31-.14.32s0-.15-.15-.27a1,1,0,0,0,0,.76c.88-1.27,1.64-1.17,2.45-1.75.08.12.16.25.09.35a1.64,1.64,0,0,1,1.09-.73c0,.44-.61.62-.58.88-.14-.39-.3-.2-.07.07a3.4,3.4,0,0,1,1.77-.48c.16.59-.62.33-.64.95.22,0,.28.18.41-.21.74.5,2.16-.73,2.94-.88.16.24-.47.41-.15.67a.93.93,0,0,1,.67-.7c-.16-.1-.33-.25-.51-.14,0-.09,0-.17,0-.26.37-.28.67.36,1.05-.23.1.15,0,.28.15.44.29-.38.54-.09.82-.26a.44.44,0,0,1,0,.43c.13.14.28-.24.4.12.12-.1.07-.22,0-.34a8.7,8.7,0,0,0,2.83-.17.44.44,0,0,1-.14.5c.17,0,.35-.14.52,0,.28-.21-.11-.47.14-.67.25.36.53.23.81-.1.15.18,0,.34.21.52.1-.19,0-.4.08-.58.3.49.26,0,.69-.12.15.18,0,.34.21.53a.47.47,0,0,0,0-.43c.36-.23,1.13.36,1.11.94.55-.3-.42-.53-.08-1,.2,0,.13.24.39.45.27-.31.58,0,.7-.62.26,0,.54,0,.62.47l.3-.41c-.2-.46-.08.36-.28-.1.16-.63,1-.15,1.5-.58-.09.34,0,.63-.31.75.39.48.47-.64.88-.71.25.55.53.08.8-.12.31.49.64.27,1,.15.08.37-.3.12-.41.4.11.26-.16.5-.08.76.32-.5.77-.58,1.06-1.13.09.16.23,0,.45.2.12.5-.68.08-.24.66-.18.34-.34-.11-.52.23.17.4.65-.28.62.29.19-.3.4-.17.7-.47,0,.69.33,0,.62.46.35-.5.69-.34,1-.63,0-.34-.28-.61-.45-.36,0-.59.53-.24.74-.22a.65.65,0,0,1-.18.59c0,.27.21.29.23.69,0-.76.33-.2.63-.73-.13-.45-.27,0-.39-.28.18,0,.38-.34.56,0,.05.17-.09.07-.17.25.09.16.24.09.17.26.19.26.06-.55.26-.07a1.14,1.14,0,0,1,0-.85c.26,0,0,.29.21.52a.72.72,0,0,0,.06-.59c.09,0,.17.12.26-.07.28.39-.16.73,0,1.11a1.55,1.55,0,0,0,.11-.67c.18-.37.35.39.53-.14.19.21.13.4.25.61.24-.34.46-.11.68,0,.13-.59.52-.41.8-.37s-.28.31,0,.5c.23-.51.5-.24.84-.27.22-.19-.09-.41.07-.6.31-.07,0,.51.3.71.14,0,.2-.11.22-.33.5,1,1.06-.45,1.58.12.19-.56.3-.46.66-.8.09,0,.15.34.36.29,0,.43-.32.21-.44.47.32.29.57-.05.8-.36.26.17.14.36.3.71.21-.11.33.14.43-.31l.2.36c-.08-.47.49-.62.69,0,.18-.6.32-.33.59-.2.23-.29,0-.1-.09-.34.13-.22.25,0,.37-.06.2.42,0,.41,0,.68.23,0,.46.13.66.66,0,.1-.11.12-.16.07,0,.32.52.19.73.23-.54-.28-.43-.83-1-1,.52-.69.56.54.94.43,0-.37-.39-.78-.32-1.14.13.33.5.3.6.74.16-.35.18-.72.32-1.08-.08.6.19.59.39.89s-.25.43,0,.68a1,1,0,0,0,.14-.67c.14,0,.33.32.22-.15.16,0,.31.27.46.47,0,.27-.49,0-.4.56.29-.28,1.6-.93,1.33,0,.15.05.34-.34.48,0,.26-.79.8-.11,1.23-.89.07.57.41.23.28.71.17.14.16-.43.41-.56.4.08.8.35,1.24-.12,0,.48.38.37.43.05.13.46.31.18.45.47,0-.28-.11-.29-.17-.7.21,0,.43.33.5.57.28.11.18-.49.54.06,0-.14,0-.29.08-.42-.24.09-.46-.06-.68-.33a7.75,7.75,0,0,0,1.18.13c0,.09,0,.17,0,.26-.19.14-.51-.24-.56.28.27.29.55-.37.9.19.08-.12.16-.24.23-.15a.47.47,0,0,0,0-.43c.26-.27.47.07.72-.17.18.19,0,.34.18.53.22-.19-.09-.43.19-.4.19.24-.15.4.13.44.16-.12,0-.29.09-.42.77,1.09,1.84.17,2.5.72.08.18-.18.32-.15.5.29.19.66-.55.91.19a.5.5,0,0,0,0-.43c.13-.3.22-.08.35-.3.13.16,0,.29-.09.42.15.24.33,0,.48.14.06-.11,0-.23-.08-.35.13-.28.21,0,.34-.13,0,.14-.09.27,0,.43l.24-.32c.14.19,0,.34.18.54A5,5,0,0,1,88,38.24L87.8,38c.15,0,.32-.34.45-.12s0,.29-.09.42c.31.24.91-.15,1.07-.3.06.37.18.46.42.23-.26-.36,0-.34.15-.5-.51.12-.69-.39-1.25-.23-.06.15,0,.07.1.18-.14.36-.2-.24-.34.13a2.32,2.32,0,0,0-.38-.73c.61.42,1.52-.21,1.94.41,0-.08,0-.17.08-.25s-.07.32.13.44c.38-.66.67-.2,1,0,.12-.45.35-.4.57-.27-.1.33-.32.65-.19,1-.17.09-.44-.07-.46.29.21,0,.21,0,.3.38.11-.38.25-.28.32-.56.19-.11.35.23.56-.1.17.64.68.35,1.09.13,0,.52.17.49.48.15a.45.45,0,0,1-.09.41c.35.28.76-.25,1.11,0,.11-.16-.11-.36,0-.51s.19.46.33,0a.44.44,0,0,1,0,.43c.17.1,0-.47.3-.22a.49.49,0,0,1,.07.52c.29-.22.76.29.9-.23.14.19,0,.34.18.54,0-.53.29,0,.28,0,.39,0,.56-.7,1-.14.1-.49.55-.21.8-.25,0,.15-.1.27,0,.43.21-.53.44,0,.76-.5.11-.35-.25-.48-.37-.3-.09-.09.29-.36.36-.3.13-.39-.24-.13-.32-.21s.12-.27.2-.4.28.56.55.06c.13.22.25.43.12.62.18.32.42-.11.59.32.07-.22,0-.51.26-.48a2.44,2.44,0,0,1-1,1.33,3.69,3.69,0,0,1,.53.4c.09-.16.13-.5.29-.22.07-.13,0-.28.09-.42.26-.2.13.22.35.47,0-.71,1-.71,1.07,0,0-.42.23,0,.42-.37-.17-.32-.38.09-.55-.24,0-.31.48,0,.67.08a.85.85,0,0,1,.26-.48c.15-.18.11.28,0,.34.19.15.24-.42.1-.58-.13.1-.25-.13-.4.2,0-.17,0-.34-.07-.52.27-.22.49.33.77.09,0,.34-.45.91-.08,1,0-.47.1-.23.31-.39,0,.5-.2.2.19.53,0-.32.07-.43.32-.56,0,.66.43-.18.64.42-.68,0-1.24.5-2,0,.24.61-.53.21-.46.89.08.17.18.1.26.28.14-.54.58-.09.65.25-.13-.5.29-.41.13-.92.14,0,.31-.22.44,0s-.44-.08-.09.42c-.14.36-.2-.24-.34.13.09.15,0,.29.13.44.36-.53.43-.08.49.31,0-.71.73-.17,1.09-.3.13-.3,0-.22-.14-.44.41-.53,1,.06,1.22-.46.21.23-.06.4,0,.6-.3,0-.61.08-.89-.1a.77.77,0,0,0-.05.68c.08-.17.15-.08.22,0a.5.5,0,0,0,0-.34c.28.55,1.16.12,1.37-.35-.18.84.38.45.48,1.08.1-.14.19-.14.28-.06.13-.44-.24-.11-.3-.37s.25-.56.57-1c.22.49-.27.46-.28.82.25.35.22,0,.51-.2a1.52,1.52,0,0,1,0-.6c.13-.11.23.29.39,0-.22-.37-.5.32-.7-.34-.3.33-.59.6-.86.5-.09-.22.26-.11.34-.13.12-.29-.27-.34-.22,0,0-1.67,1.58-.11,2.47-.57-.07-.13-.15-.25-.08-.35-.11-.27-.28.23-.38-.13s.44-.51.56-.11c-.09-.41.41-.9.58-.44.06.1-.35.33-.45.12,0,.5-.15.48-.23.91.23.22.15.33.4.56-.4.14-.61-.22-1.13.38.21.42,0,.4.28.71,0-.28-.18-.59.17-.83.37,0,.72.24,1.1.12a.47.47,0,0,1-.08-.52,1.06,1.06,0,0,0-.48-.14c0-.24.24-.36.36-.47.11.13,0,.24,0,.34.3.26.11-.48.46-.29,0,.26-.14.5-.11.76.43-.6,1.13.11,1.58-.5.07.2-.08.39.12.61.22-.18.4.07.64-.36a.88.88,0,0,1-.19-.53c.27-.17.52,0,.79-.25.11.35-.24,1-.47.46.11.27-.11.5,0,.77.26-.58.5-.31,1-.66-.1-.36-.26.14-.37-.13s.32,0,.52-.36c.09.15,0,.29.13.44.18-.9.64.1,1-.31.12.64-.45.4-.5.79,0,.09.12,0,.17-.07.23.2-.16.33.08.53.21-.24.48.07.41-.38.21-.36.35.21.54.06,0,.23-.09.54-.24.31,0,.59.74-.4.74.43l.37-.47c-.13-.16-.09-.29-.14-.44.23-.18.21.14.3.38.38-.64.67,0,1.24.4.35-.45,1,.32,1.54,0,0-.4-.23-.12-.36-.29.1-.44.64-.28.89-.24.07.43-.34,0-.3.39a1,1,0,0,1,.29.55c.14-.16.41-.65.62-.95.25-.1.16.46.33.63s.58-.39.49.15c.45-.42.86-.25,1.27-.11.23.29-.24.48,0,.77.33-.22,0-.52.22-.74s.24.46.39.73c.15-.16.28.1.43,0a.77.77,0,0,0,.17.7c0-.13.09-.36.18-.23.14-.23-.17,0-.19-.37.17-.28.29,0,.43,0,.13-.21-.18-.33-.25-.28a3,3,0,0,1,.1-.59c.21,0,.19.32.34-.13.21.41-.08.3-.1.59.21.25.21-.18.3-.39.27-.11.5.13.76.09,0,.26-.19.49-.22.74.23.16.41.85.72.6.18.54.21.82.69.94-.13-.19-.31-.23-.28-.55.18-.22.33-.08.49,0,.12-.16,0-.35.15-.5-.21,0-.58-.49-.65-.08a.67.67,0,0,1,.1-.58c.19,0,.09.49.38,0,.23.2-.16.32.07.52,0-.52.29-.46.51-.2.16-.3,0-.4-.19-.36.1-.15.19,0,.29-.22,0,.2.35.44.23.62.09.06.49-.41.37.13.16.18.33-.71.58-.44,0,.15-.12.28-.2.41.27.08.73.61.87.11.08-.07.45.13.19.36.48,0,1.13-.48,1.37-1.45.13,0,.25.09.38,0,.2.31-.23.54,0,.86-.28.3-.26.08-.43,0a.62.62,0,0,0-.17.83c.05-.08,0-.17,0-.26.18-.14.36-.33.49,0s-.16,0-.24.31c.12.37.31-.2.42.23.16-.81.71-.16,1.06.3.2-.28.39-.84,0-.93.05.44-.16.27-.34.13s.1-.15.17-.07c-.06-.39-.64-.18-.9-.37.91-.48,2.21.13,3.28-.09,0,.12-.07.21-.14.32.14.14.27.23.45-.11,0,.55.21.1.4.39s-.39.35-.1.58c.23-.52.32-.19.7,0,.2-.41.42-.66.66-.08.21-.37.37-.07.58-.44.48,1.24,1.57.49,2.5,1.19,0-.38.28-.66.34-.13.24-.17.19-.37.22-.57.07,0,.15,0,.21,0,0,.25,0,.51-.23.74.28.37.14-.69.44-.11.14-.59.21-.37.52-.36.09.22-.05.4-.21.57.55-.39,1.3.11,1.76-.87.27-.15.24.13.41.23.13.28-.18.49,0,.77a.67.67,0,0,0,.17-.66c.26.12.21-.16.46-.28.12.47-.27,1-.52,1,.1.15,0,.26,0,.17.33.53.79,1.13,1.44.29.17.25-.29.42-.07.67.23-.45.71.17,1.07.16.11-.13.07-.28.2-.4,0,.14-.1.27,0,.43.2,0,.07-.11.25-.31,0,.12-.1.21,0,.34.2.38.46.11.46-.28,0,.12.1.15.15.11,0,.12-.07.22-.14.32.5.09,1.21.82,1.6.23.43.53.37-.1.62.27.33-.63.49-.5.89-.81-.1-.25-.24-.17-.35-.31.19-.28.3.19.49,0,0,.12-.08.22-.14.33.33.08.63.48,1,.57,0,.12-.08.22-.14.32.15.06.3.21.48,0,.27-.9,1.2.54,1.78,0a15.36,15.36,0,0,1-1.81-.7c.23-.19.42,0,.63.09.13-.38-.26-.13-.34-.3l.37-.46c.09.15,0,.29.11.44.47-.15.53-.94,1-.53,0,.31-.39.31-.54.52s.11.42,0,.6c.12-.11.49-1.11.88-.64A.45.45,0,0,1,153,46c.18.34.48-.66.79-.39s-.2.43,0,.69c.06,0,0-.1,0-.16,0-.23.29,0,.27-.48.08.09.43.26.39-.19.12.09.27-.1.36.14s-.42.56-.36.89a3,3,0,0,0,.52-.35c.13.19,0,.34.15.54a2.73,2.73,0,0,1,1,.15c.09.22-.22.07-.32.38.39.32.61-.83,1-.11.11-.06.27-.5.36-.28.16-.22-.16-.06-.18-.37l.19-.23c.29.37.66.09.94.49,0,.43-.48.42-.6,0-.17.18-.33.31-.48.27.18,0,.54.69.87.14.19.29-.11.49.08.78.27-.57.91-.42,1.42-.38.09.33-.18.08-.25.31.23,0,.09.3.26.55.32-.2.58.07.9-.2.34.59.41,0,1-.51-.24,0-.5.17-.71,0-.12.09-.09.21,0,.33a.3.3,0,0,1-.43-.06c-.11-.17.19-.2.23-.14,0-.28-.49-1.13-.8-.64a.78.78,0,0,0-1.11-.43c-.1-.27,0-.46-.26-.13a1.5,1.5,0,0,0-1.64-.69c0-.58-.58-.22-.36-.74-.1.16-.28.11-.52.18.08.17.18.1.25.29a3.4,3.4,0,0,0-.34.12.47.47,0,0,1,.09-.41c-.11-.3-.27-.12-.38-.41-.11.1-.07.22-.14.32-.1-.26-.2-.49-.36-.14-.08-.14-.14-.39-.24-.29-.13-.2.31-.3.06-.51-.28.62-1.17.19-1.32-.29-.17-.23-.09.25-.25.3s-.1,0-.17.06c-.18-.23,0-.4-.2-.63-.4.48-1-.08-1.53-.32-.16.3-.27.19-.42.37.23.41.24-.28.49,0-.16.25-.11.18,0,.6-.4.5-.67.16-.73-.28.18-.29.25.43.43.07-.24,0-.3-.55-.08-.79-.34,0-.65-.34-1-.4.14-.45.07-.27-.17-.54.19-.09.36.07.5.42.11-.16-.1-.36,0-.51-.2.09-.37-.19-.57-.17-.16.2,0,.46.14.7-.31.08-.59-.22-.93.12-.06.22,0,.46-.07.68-.33.08,0-.44-.21-.63,0-.17.1-.06.19-.23-.26-.62-1-.35-1.31-1.05-.48.48-.87.06-1.29,0-.11-.46.32-.34.4-.8-.3-.38-.46.51-.46-.32a1.27,1.27,0,0,0-.08.84,1.14,1.14,0,0,1-1.12-.24c-.17.63-.52.34-.78.23,0-.12.07-.22.14-.32s.17.16.24.29a.25.25,0,0,0,.08-.25l.12-.15c-.17-.24-.42.23-.56-.34.15-.21.25,0,.38,0,.11-.44-.29-.26-.4-.4.42-.66-.4-.19-.65-.52,0,.27-.12.75-.34.73.18-.42-.1-.45-.08-.95-.06.1-.12.11-.17.06.06.48-.3.37-.4.8-.14-.09-.55-.63-.9-.21-.18-.26,0-.46.06-.68-.29-.25-.57-.32-.71-.61l-.25.31.19.37c.24-.45.39.13.58.16-.28.33-.48-.23-.77.07.1-1-.55-.52-.94-1.07.15.14.34-.09.48.15,0-.42-.4-.32-.57-.33a4.91,4.91,0,0,1-.17.66c-.3.09-.11-.46-.21-.63-.09.17-.16.08-.22,0,0,.53-.31.5-.54-.07.12.58-.1.18-.38.64-.27-.51.42-.36.07-.85-.14.61-.33.42-.5.79-.24-.43.34-.36.27-.65-.26,0-.32,0-.52.36-.22-.39.19-.18.15-.49-.42-.66-.63,0-1.11.19-.11-.21,0-.4-.22-.62-.27.36-.47,0-.72.16-.06-.24.07-.45.05-.68s.15,0,.23-.14c.17.2,0,.34,0,.51.33,0,.46-.33.83-.15-.22-.17-.43-.49-.68-.34-.16-.26.3,0,.14-.33.24.2.5.15.74.27.06-.11-.05-.23,0-.34s0,.33.24.46c.1-.14.19-.13.27,0,.11-1.05.51.31.85-.32.18.25-.09.51.17.54.19-.32,0-.68.2-1-.12-.27-.29,0-.42-.23-.06.11,0,.24.08.36-.21.27-.37,0-.54-.08,0-.31.18-.12.26-.47.22,0,.42.13.66-.09.18.25-.09.51.17.54.45-1.19,1.56-.15,2.26-.13,0,.23-.25.42-.17.66A6.55,6.55,0,0,0,139,36.4c-.12.29.22.33.33,0,.14.31.37.26.11.61A2.18,2.18,0,0,1,140,37c0,.23-.19.43.05.69.21-.47.26-.3.51-.19s-.08.39.11.61a1,1,0,0,0,1.12-.36c0,.14.09.3,0,.43s0-.43-.22,0c.3.37.65.12.94.47L143,38a2,2,0,0,0,.26.72c.27-.54-.09-.57-.14-.87.22-.28.34.63.58.16.23.38-.27.65,0,1,.06-.08,0-.17,0-.26.44-.24.82.09,1.23.26.25-.34-.07-.75-.26-.72.21-.13.48-.91.64-.51s-.23.07-.2.4.24-.18.31.21c.15-.31,0-.44.33-.55a.39.39,0,0,1-.05.51c.26.38.32-.64.57-.26.06.26-.34.46-.13.75.22-.17.18-.38.33-.55s.15-.06.21,0c0,.27-.31.23-.28.64.28,0,.19.26.43.66.47.38,1,0,1.41,0-.37.57.82.47,1.17.78-.07.44-.49-.14-.74.32.4.47.86-.35,1.12.24.06-.1,0-.23-.08-.35.19-.38.29,0,.47-.27.31.89.92.18,1.1.85.53-.32.77.19,1.23-.33-.19-.06-.05-.12-.18-.37.65-.46.72.51.68,1.22.17-.32.1-.67.22-1,.22.14.45.12.66.36.06.24-.3.16-.41.37,0-.21.77.43.93.32.12.09.07.55,0,.33,0,.41.21,0,.32.05s0-.23-.07-.35c.44,0,1,1.15,1.65.77l.22.47c.13-.15.21.15.35-.12.37,1,.94.15,1.32,1.07.54-.37,1,0,1.41.65-.32.22-.36.4-.61.59.54.06,1.15-.44,1.36.13.06-.72.48-1,.43-1.82.26.13.5.4.76.55.05-.76-1-.43-.84-1.34.13-.18.19.3.29.39.1-.52.44,0,.7-.4a1,1,0,0,0,.12.88c0-.41.2-.48.46-.7.13.35.4.82.46.33.17.26,0,.53.26.56.08.33,0,.21-.21.39.23.11.45.23.71,0,.15.31-.26.53-.1.84.11-.11.26-.78.43-.36.05-.19.21-.36,0-.6.33-.14.27-.07.45-.52.14-.28.16.49.3.22s-.1-.36-.16-.54c.15,0,.27.21.43.07.08.24-.27.41-.08.67.11-.35.4-.1.26.13.39-.61.91-.21,1.3.47,0-.19.19-.37.23-.56-.2-.21-.1-.21-.26-.56-.15.12-.05.28,0,.43-.46.05-.85-.52-1.27-.81.41-.24.71.5,1.11.27a2,2,0,0,1-.53-.52c.23-.16.39.32.68-.23.08.24-.14.43,0,.69.11-.14.19,0,.3-.21.12.17,0,.29-.1.42.08.18.23-.09.3.22.11-.48.42-.13.5-.6.26.32-.07.55.12.87.24-.22.7.17.7.46.36-.25.3.28.63.11.09.33-.17.07-.25.3.26.41.6.09.87.41a1.68,1.68,0,0,0,.25-.73c.17.11.52,0,.59-.42.22.21-.17.32,0,.53s.35-.16.47.16c.23-.18.12-.4.32-.37.13.31-.32.52-.32.8-.16.23-.18-.59-.36-.14,0,.4.42.42.67.2.17.2,0,.35.15.54.3-.25.88-.49.92-.09.08.1.12-.13.09-.25.2,0,.4-.1.54.36.17-.3.26-.06.42-.36-.26.24-.38-.66-.67-.2-.1-.45.14-.58-.2-.9.37-.52.38.11.46.17.26-.38-.17-.34-.12-.71-.14.25-.25.23-.32-.06-.18.3-.27.06-.32.38.15.22.33,0,.21.46-.14.13-.2-.39-.35-.15-.06-.34.19-.41-.09-.61,0,.59-.23-.06-.42-.08,0-.1.1-.59.21-.39-.14,0-.42-.63-.69-.47-.11-.75-.5-.33-.57-1-.3.11-.3.47-.6.41,0-.15.13-.26.21-.39-.16-.57-.43-.29-.64-.54-.1.21-.06.31.07.36-.2.39-.38-.07-.42.35,0-.08,0-.54-.18-.37-.07-.34,0-.22.21-.39-.24-.35-.58,0-.79-.65-.2.87-.34-.48-.68.23.12-.52-.2-.25-.19-.64.2,0,.41-.1.55.35.26-.67.7,0,1,.43a1.06,1.06,0,0,1,.36-.71c-.61.71-1.4-1.45-2.08,0-.32-.14-.68-.07-1-.42-.11.21-.07.31.06.35l-.38.46c-.11,0-.21-.06-.3-.22.19-.25.32.07.53-.35-.13-.25-.3-.24-.43-.5l-.26.31a.41.41,0,0,1-.25-.13c-.09-.22.06-.39.23-.57-.39-.21-.31.79-.71.4a.49.49,0,0,0,0,.44c-.13.12-.24.19-.35.11.3-.7-.51-1-.76-1.41.34-.16,1.07.48,1.11-.16.33,0,.62.38,1,.32.09-.47-.37-.2-.5-.42.28-.19.26,0,.49-.44.05.76.31.14.33.92.31-.27.22-.6.17-.92.22-.12.17.41.26.56.15-.18.26-.07.43-.36.17.2,0,.34.15.54.29-.38.14,0,.37.15.28-.22.5,0,.79-.22.19.23-.08.39,0,.6-.28.1-.71-.38-.75.31.14.07.32-.22.47-.27a.8.8,0,0,0,.07.36c.28-.34.33-.36.49,0,.34-.26,0-.62.38-.88.06,0,.11,0,.17-.06.17.26,0,.46-.08.68.09.43.28.08.39.41.12-.1.08-.22,0-.34.34-.15.56.69,1,0,.54.38,1,.09,1.42.76.24-.4.37-.05.56-.08.11-.4.05-.5.25-.73a2.29,2.29,0,0,1-.33-.75c-.17.4-.06.3-.3.64-.25.07-.44-.26-.73.13-.1-.33.31-.57.39-.88-.11-.24-.54,0-.43-.5-.34-.19-.77.36-1-.35.25-.23.44,0,.68-.23-.13-.1-.28,0-.38-.41-.1.35-.15.34-.22,0-.48.53-.78-.45-1.22-.3-.19-.2.07-.33.17-.48-.11-.33-.29,0-.41-.25a2.28,2.28,0,0,0,.26,1,1.23,1.23,0,0,1-.1.42c-.13,0-.25-.1-.37-.15s.17-.32,0-.52c-.16.11-.14.26-.22.39s-.13-.13-.21,0c-.09-.38.14-.17.17-.48.19-.2.29.35.49,0a44.82,44.82,0,0,1-4.9-1.74c-.19.67-.69.23-.74-.29-.16.34,0,.74-.18,1.08-.33.13-.23-.55-.57-.35,0-.12.08-.21.15-.32-.26-.14-.58.21-.83,0,.43-.86-.59-.61-1-1.35-.24.13,0,.34.05.52-.43-.1-.23-.17-.61-.44-.08.13.11.3,0,.43s-.21-.06-.3-.22a.87.87,0,0,1-.28.47c-.27.23-.12-.47-.43-.07a.45.45,0,0,1,.16-.49c-.62-.35-.49-.59-1.33-.46a.5.5,0,0,1,.1-.42c-.56.42-1-.14-1.56.1a.57.57,0,0,1,0-.34c-.19,0-.42.2-.66.5a.31.31,0,0,1,.06-.5c-.67.1-1.22-.94-2-.14-.18-.22.09-.38-.09-.61.12-.15.2.15.34-.12-.52.06-1.21.47-1.81,0-.12.36.39.33,0,.69-.25-.39-.45-.71-.7-.62-.22.52.22.08.35.31-.24.35-.41.1-.62.17a3.44,3.44,0,0,1,.19-.83c-.56,0-1,.61-1.61.19,0-.12.09-.22,0-.34s-.17-.1-.24-.29c-.23.29-.13.32-.38.46a.92.92,0,0,0-.17-.54c-.28.14-.55,0-.82,0-.1-.24.2-.28.24-.14-.16-.55-.68,0-.88.47-.26-.26,0-.45.18-.66-.38-.05-.83.6-1.18.26-.12-.14.21-.48.23-.14a.57.57,0,0,0-.49-.58c.08,0,.33-.07.14-.32.12-.08.2.22.34-.12-.15-.34-.36-.05-.53-.25,0,.24-.13.64-.31.39-.07.15.08.08.14.27a1.27,1.27,0,0,0-.72.59c-.24-.27.16-.44,0-.69-.19.25-.47.21-.5.61-.45-.17-1-.47-1.29-.35,0,.2,0,.4-.22.57-.13-.51.2-.72-.25-.89.18-.32.3-.06.45-.11,0-.44-.51,0-.7-.18,0,.14.05.29-.09.42-.16-.21-.29-.1-.39-.57-.22.17-.1.38-.33.55s-.25-.79-.59-.16c-.13-.19,0-.34-.17-.54.15-.21.27-.1.39,0-.74-.95-2.11-.31-3.08-.67a1.23,1.23,0,0,1,.27-.65c-.19-.13-.41.12-.59-.16a.67.67,0,0,0-.1.58c-.49,0-1.31-1-1.89.1-.13-.4.21-.27.21-.57a2,2,0,0,1-.7-.17c-.06.13,0,.28-.09.41-.37.12-.9-.93-1.14-.23-.11-.21,0-.4-.22-.62-.18.08-.37.46-.5,0-.32.85-.92-.32-1.4.25.05-.17-.18-.37-.07-.52-.29.15-.59.43-.82-.19a.52.52,0,0,1-.35.3.74.74,0,0,0-.08-.35c-.07.26-.37.22-.22,0-.19.22-.47.13-.77-.09.05.37-.1.38-.3.38s.07-.21.13-.32c-.26-.16-.55,0-.81-.19.24-.38.28.12.41-.37-.15-.1-.31-.26-.48-.15-.05-.14.11-.27.2-.4.2,0,.35.61.59.16-.25.08-.09-.59-.35-.47,0-.39.17-.4.37-.47.08.21-.07.39-.1.59.19.25.3-.17.42-.38.18,0,.37-.1.53.24-.4-.13-.34.5-.64.35-.12.29.34.19,0,.5-.23.25.09-.52-.14-.27s-.05.2.07.52c-.08,0-.15.06-.22,0,.21.34,1-.06,1.36.26-.08-.5.22-.08.26-.48a1,1,0,0,0-.79.24c0-1.14.82-.68,1.13-1,.37.47-.05.85.17,1.3.06-.55.35.2.57-.27a.44.44,0,0,1-.44-.65c.26.59.31-.26.7.17.2.29-.1.5.1.78l.31-.38c-.07-.13-.14-.25-.08-.36.55-.35,1-.13,1.57-.31-.13-.42-.32-.14-.47-.32.33-.24.9-.4,1,.3-.14-.08-.29,0-.46.28s.25.14.13.44c.35,0,.69-.68.87.12.16-.33.27-.11.39,0,0-.14.14-.27.09-.42.38.34,1.12-.17,1.29.51a6.36,6.36,0,0,0,.73-.16,1.27,1.27,0,0,1-.09.42c.19.2.17-.31.31-.39.19.31,0,.57-.08.84.24.18.57,0,.62.6.1-.33-.08-.7.19-1-.32-.3-.19.72-.57.26a.54.54,0,0,1,.28-.64c.43-.11.78.77,1.21.58.12.49-.2.26-.37.47.16.26.37,0,.56-.1a.66.66,0,0,0-.08-.35c.16-.08.19.22.24-.14.28.38.67-.46.9.38.07-.38.54-.38.55.07.24-.71.76-.6,1.08-.28.11-.1.06-.22.14-.32.26.32.6.11.54.67l.44-.54c.35.33-.16.55,0,.86.27-.32.5-.21.72,0,.06-.27.31-.52.4-.8.12.36-.32.64-.09,1,.08-.83.77-.68,1.08-.28.29-.13.3-.64.59-.43,0,.3-.28.62.06.52a1,1,0,0,1-.35.72c0,.1.07.06.11,0l.09.18c.2-.2.09-.44.29-.64s.2.46.48.75c.23-.3.38.2.6,0-.17-.51-.4-.42-.63-.26a1.12,1.12,0,0,0-.22-.63c.23.12.24-.27.49.15.26-.13-.11-.35.15-.49.2.45.72.42,1.11.59.09-.21-.3-.32-.42-.23,0-.67.52-.51.75-.32.12.43-.39,0-.25.31s.24-.27.5,0c-.4.77.84,0,1.13.85.16-.33.58-.47.91-.81-.11.75.84.22,1,0,.07.13.14.25.07.36.12-.25.31.08.58-.26.11.64.38.06.78,0,.06.2-.1.38.1.61.73-.34,1.05.11,1.78-.07.06.24-.1.41.12.45.08-.68.4-.22.52.25-.06-.53.34-.84.62-.59,0,.44-.34-.05-.32.38.07.18.17.11.24.3.11-.21,0-.43.21-.4,0,.15-.17.26-.1.42.32.27.46,0,.48-.27.28-.11-.06.53.22.46,0-.42.26-.52.51-.6,0,.51.17,0,.34.48,0-.37.31-.29.45-.1s-.12.08-.1.41c.14-.52.93.2.9-.63.18.27.46-.45.63-.16s-.21.23-.4.62c.18.17.4,0,.59.18.2-1.05.89-.43,1.12-.59-.06.32-.34.4-.45.53-.1-.13,0-.24,0-.34-.22-.23-.2.22-.48.27.35.16.45.06.69.79.24-.16,0-.39.12-.58.26.67,1.6.21,2,.5.07,0,.48-.26.34-.54.32-.33.49.44.58-.25.14.25-.07.44-.08.67-.1.07-.16-.17-.24-.3-.21.31.07.56-.3.64.28.06.35-.18.71-.4a1,1,0,0,0,.07.36c.22-.26-.09-.23,0-.6.18-.14.31.2.52-.18a6.69,6.69,0,0,0-2.45-.9c-.22-.21.18-.32-.05-.53-.2,0-.16.18-.32.38-.18-.37.21-.65.45-1,.46.1.89.94,1.55.51.16,0,.28.38.46.33-.11-.4-.08-.34.23-.13.21-.14,0-.34.17-.49.34.71.49.23.85.31.14.19,0,.34.16.54,0-.37.22-.59.43-.36s-.32.29-.06.51c.1-.17.16-.07.22,0a.75.75,0,0,1,.21-.39,2.55,2.55,0,0,1,1,.85c.18-.7.34.23.63-.15.07.33-.22.06-.33.37.21,0,.42,0,.59.18.12-.05.29-.49.37-.28,0-.45,0-.39.36-.71-.42,0-.53-.54-.91-.24-.16-.41.17-.28,0-.6a.75.75,0,0,0-.26.73c-.14.11-.26,0-.41.19,0-.55-.33-.33-.52-.25-.1-.39.27-.28.36-.72-.2-.1-.23,0-.37.29-.05-.15-.17-.51-.48-.6,0,.23-.24.42-.41.62,0-.29.08-.56-.12-.88-.17.23-.28-.07-.43-.07.08-.18,0-.4,0-.59a3.18,3.18,0,0,1-1.72-.46c-.39.49-.63-.31-1,0-.48-1-1.46.29-1.73-.88-.15.29-.24.07-.37.29-.11-.35-.25-.39-.38-.58.25-.17.39.2.54-.34-.14.44.11.23.29.39.17-.34,0-.28-.18-.37.3-.37.53-.1.78-.05.08.18-.28.23-.34.11,0,.46.65.08.91.24-.09-.35-.26,0-.35-.32.49.19.73-.2,1.2-.24.13.23-.41.34-.13.58l.26-.3a1.1,1.1,0,0,0,1.4,0c-.37.42.16.36.44.5,0-.21.21-.39,0-.43.45-.58.4.41.79,0a1.1,1.1,0,0,1,0,.76c.14.15.44-.37.46-.53.25-.17.59.66.71,0,.1,0,.44.31.34.48a.89.89,0,0,1,1.33.05c-.31.14-.27.07-.56.51.15.22.32.37.48.59.17-.07-.1-.62.11-.41.15-.42-.25,0-.33-.05,0-.56.7-.83.91-.19.36.09.87-.95,1.16-.33l.26-.29c.16.19,0,.33-.06.5.2.18.5-.45.68-.06s-.24.19-.33.38c.64-.12,1.26-.37,1.57.35.19,0,.36.11.59-.24a.31.31,0,0,1,0-.43c.17.45.83,0,1.16.55-.16.2-.31.38-.42.19.08.3.66.41.94.51.31-.38-.19,0-.21-.47.22-.25.36.05.59-.24a.42.42,0,0,1,.11-.41c-.11-.26-.2-.07-.17-.38a.34.34,0,0,0,.24-.12c.19.68.29.53.61.88-.24.38-.33-.31-.57.07.08.34.24.15.32.49-.07-.36.47-.54.68-.48,0,.12-.08.22-.15.32.09.43.28.08.39.41.11-.15-.11-.36,0-.52.42-.23.75.27,1.16.13.06-.45-.29,0-.41-.25,0-.09,0-.17,0-.27.25.22.37-.09.7-.21,0-.48-.23-.37-.39,0-.23-.27.31-.47,0-.53C178.89,25.74,179.29,25.73,179.07,25.27Zm-20.4-7.62c-.24.32-.4-.07-.59-.17C158.31,17.24,158.49,17.42,158.67,17.65ZM142,12.17c.2-.36.56,0,.33-.55.34-.19.64,0,.94.21-.19.33-.2.1-.4.63-.08-.12-.15-.37-.25-.29s0,.23,0,.34C142.38,12.33,142.13,12.75,142,12.17ZM15.36,28.42c-.23.23-.22.58-.42.18C15,28.35,15.25,28.13,15.36,28.42Zm-.89,9.15c-.37.14-.43.22-.8.71-.07-.39-.24-.21-.4,0a2.64,2.64,0,0,1-.22-.9c-.34.28-.18.65-.15,1-.43-.26-.28-1.06,0-1.46.3.69.87-.38,1.22,0,.15.39-.25.15-.19.48C14.19,37.22,14.52,37.24,14.47,37.57Zm35.79-.68c.22-.29.42.1.64,0C50.67,37.16,50.47,37.11,50.26,36.89ZM67.57,36c.09.3.44.25.35.63C67.79,36.21,67.4,36.5,67.57,36Zm12.69,1.1c-.14-.09-.31.2-.42-.22C80,36.61,80.34,36.74,80.26,37.08Zm75.65,9.21a.75.75,0,0,1,.68.37C156.39,46.6,155.89,46.71,155.91,46.29ZM152,40.11c.06-.37,1-.14.78.38C152.54,40,152.21,40.61,152,40.11Zm18.74,4.23c-.07.13-.06.27-.21.39-.07-.19-.17-.12-.23-.3C170.46,44.2,170.63,44,170.73,44.34ZM147,27.48a3.08,3.08,0,0,1,1.14.24A.9.9,0,0,1,147,27.48ZM157.49,29c.16.08.62,0,.57.35C157.89,29.29,157.43,29.38,157.49,29Zm5.32,1.44c0-.12.27-.69.37-.28C163.25,30.36,162.87,30.62,162.81,30.4ZM177,26.27c.1.13.07-.12.2-.22.09.56.36-.23.45.34C177.43,26.81,177,26.56,177,26.27Zm-7.47-3.44c.15,0,.33-.26.44.07C169.7,23.3,169.58,22.87,169.55,22.83Zm-7.25-3.92c0-.32.4-.27.55.09C162.63,19.31,162.47,19.09,162.3,18.91Zm-1.58-.33c.21-.18.66,0,.62.44C161.15,18.76,160.89,19.07,160.72,18.58Zm9.2,19.26c-.35-.12-.74.08-1.07-.19A.66.66,0,0,1,169.92,37.84ZM156.53,12.1c.07-.38.45-.31.62,0C156.9,12.52,156.71,12.36,156.53,12.1Zm6.12,12.53c.18.05.39-.21.54.09C163,24.94,162.57,25.05,162.65,24.63Zm7.08,14.72c.05.27.43-.05.28.39C169.87,39.63,169.51,39.82,169.73,39.35Zm-.41.19c0-.5-.15-.13-.34-.32.11-.12-.08-.3,0-.43.26.09.15.39.43.08l.13.28C169.46,39.28,169.48,39.42,169.32,39.54Zm-.88-1.27c.19,0,.4-.29.54.09C168.75,38.75,168.58,38.61,168.44,38.27Zm-5.93-9.54c-.13.12-.24.19-.35.11.28-.23.21-1.07.54-.77C162.75,28.48,162.34,28.42,162.51,28.73Zm4.24,9.52L167,38l.13.28C167,38.55,166.87,38.32,166.75,38.25Zm2.63,5.68c0,.6.22,0,.4.24C169.75,44.72,169,44.35,169.38,43.93ZM161.29,28.7c-.31-.41-.83.33-.94-.49-.09.51-.46.43-.63.16.54,0,.51-.64,1.05-.95.14.72.21-.05.27.56.29-.09.89-.37.94.06,0-.06-.35,0-.24.13.19-.07.37,0,.53.26-.18.28-.3,0-.42-.24C161.65,28.42,161.35,28.25,161.29,28.7Zm-4.87-11c.05-.42.36-.26.53-.17A.29.29,0,0,1,156.42,17.65Zm5.93,12.42-.17-.37c.13-.2.25-.26.34-.11C162.26,29.71,162.62,29.94,162.35,30.07Zm5.26,12.79c.21-.36.27.44.49,0,.14.27-.09.6.2.64C167.86,44,167.92,43,167.61,42.86ZM165,37.54c.19-.24.39-.55.52-.18C165.37,37.37,165.15,37.88,165,37.54Zm1.77,3.55c.13.51-.47,1-.68.66a.62.62,0,0,1,.34-.55C166.41,41.64,166.64,41.4,166.79,41.09Zm-8.72-14.27c0,.44.2.2.34-.11.14.05.19.14.18.37.43-.35.74.31,1.18-.08.15.24-.1.75.24.3.16.28.09,1-.19.66.08-.1.14-.21,0-.34-.14.95-.75.56-1.14.76l-.22-.46c-.22,0-.5.47-.68.06a.62.62,0,0,1,.93-.36c0-.13.05-.14.13-.15-.18-.06-.32-.44-.5-.43-.33.44-.65.77-.87.3C158,27.41,157.87,27,158.07,26.82Zm6.54,10.91c-.11.15.1.36-.06.5-.06-.39-.24.18-.3-.22.2-.25.18-.54.42-.79l.14.28ZM150.94,10.67c-.06-.27.35-.56.42-.2C151.21,10.58,151,11.06,150.94,10.67Zm2.1,6c.19-.56.7.28.49.16S153.17,17,153,16.63Zm11.8,24.31.25-.3c0,.12.14.25.07.35C165.07,40.86,165,41.38,164.84,40.94ZM163,38.76c.12-.13.1-.27,0-.43l.32-.38c.16.09.29.34.44.5C163.52,38.46,163.26,38.68,163,38.76Zm1.7,2.33a1.78,1.78,0,0,0-.14.75c-.09-.18-.23.09-.3-.22.5-.53-.36-.35-.18-.8.19.28.75-.19.71.46Zm-2.54-3.67c0,.62.36.09.57.35C162.51,38.51,162,38.05,162.17,37.42Zm-.41-.24c-.19-.1,0-.54-.18-.37s0,.4-.12.58l-.18-.37c.1-.13.23-.25.1-.41.15-.2.3-.38.41-.19-.07.1-.14.2,0,.33.22-.13.11-.32.28-.47C162.24,36.63,161.85,36.88,161.76,37.18Zm-1.27-2.43c.27-.31.51-.25.7.2C160.92,35.17,160.7,35,160.49,34.75Zm3.41,6.3c-.3.16-.5-.42-.8-.22.26-.33.41-.22.73-.14C163.76,40.8,163.83,40.92,163.9,41.05Zm-7.3-13.51.26-.31c.1.38.25.4.43.07l.14.28C157.12,27.84,156.87,27.62,156.6,27.54Zm6.19,12.64c.14.21.32,0,.46.33C163.08,40.79,162.7,40.55,162.79,40.18ZM150.31,15.72c.32-.19.58.23.89.12C151,16.38,150.57,16,150.31,15.72Zm13.39,27a1.24,1.24,0,0,1-.23.56.45.45,0,0,1-.43-.07,2.17,2.17,0,0,1,.14-.75c-.32.57-.55.34-.81.39-.16-.63-.38-.57-.72-.89.21-.41.75,0,1.08.17a.47.47,0,0,1,0-.43c.33,0,.4.21.22.47.26-.06,1.06-.24,1.19.62C163.89,42.52,163.93,42.85,163.7,42.73Zm-2.4-4.42c.13-.41.25-.63.53-.34C161.47,37.9,161.65,38.44,161.3,38.31Zm1.77,3.29c-.12-.15-.25-.07-.35-.32C162.9,41,163.27,41.25,163.07,41.6Zm-7.23-14.18c-.09-.09-.18-.09-.29,0l-.22-.46c-.41.35-.47,0-.91.2.12-.15,0-.35.16-.49.18.36.42.21.66.1a.82.82,0,0,1,.2-.82,1.36,1.36,0,0,1,.45.49c-.2.26-.34,0-.54.35C155.4,27.18,155.84,27.06,155.84,27.42Zm-.12-.45c.21-.23.38-.12.53.26C156,27.4,155.89,27.09,155.72,27Zm6,13.73c-.22-.21.17-.32-.05-.52.17-.19.31-.16.43.06S161.88,40.73,161.74,40.7ZM148.15,13.1c.17-.19.34-.38.46-.11C148.43,13.28,148.29,13.19,148.15,13.1ZM162,41.42c-.1-.15,0-.28-.12-.44.16-.23.27-.12.37.14Zm-4.11-7.08a.87.87,0,0,1-.12-.45c.25,0,.51-.23.7.2C158.24,34.45,158.11,34,157.88,34.34Zm3.28,6.18c-.26-.37-.6,0-.85-.31.28.12.64-.45.88,0C161.11,40.28,161.21,40.41,161.16,40.52Zm-1.09-2.06-.26.3c0-.21-.15-.42-.09-.61C159.81,38.49,160,38.12,160.07,38.46Zm1.25,3c-.1.21.3.51,0,.69-.27,0,0-.36-.2-.63l.32-.38c0,.21.37.16.22.46C161.55,41.7,161.45,41.48,161.32,41.49Zm-7.46-14.8c.22.22.25-.32.5,0C154.19,27,153.76,27.14,153.86,26.69ZM158.63,38c.2,0,.42-.14.61,0C159,38.36,158.82,38.09,158.63,38ZM145.8,12.34c.14-.1.29-.29.39,0S145.91,12.74,145.8,12.34ZM157.19,36c.19.15.4,0,.57.35C157.55,36.68,157.14,36.31,157.19,36Zm-4.53-9.52a1.63,1.63,0,0,1-.75-.29C152.18,25.9,152.84,25.89,152.66,26.51ZM159,43.26c.25-.27,0-.1-.07-.35.16-.33.23.2.39,0-.13-.49-.33-.33-.49-.59s-.17-.76.12-.58c-.14.3.2.14.23.46.27-.47.42.15.67-.06.11.43.21.55.48.59.1-.13-.09-.3,0-.43.43.54.12.85-.17,1.52-.11-.16,0-.29,0-.43-.1.12-.15-.22-.26-.13a.77.77,0,0,1,.12.45c-.23.23-.34-.08-.32.37-.13,0-.26.05-.35-.31.09-.17.23-.05.19-.22A1.11,1.11,0,0,1,159,43.26Zm-1.31-3.12c0,.31-.2.18-.36.28,0-.51-.39-.21-.62-.44.31-.46-.23,0-.27-.55.26-.15.45.26.7.19.48-.42.47-1.41.9-1.06C157.66,38.82,157.18,39.77,157.66,40.14Zm-13.8-27.55c0-.2.32-.35.11-.58-.33.22-.2.49-.35.72-.08-.19-.18-.11-.26-.29.23-.61.46-.73.68-1.27a1.8,1.8,0,0,0,.82,1C144.59,12.4,144.24,12.72,143.86,12.59Zm7.49,13.72c.12-.33.32-.4.52-.18A1.12,1.12,0,0,1,151.35,26.31Zm8.76,18.07c.11-.15-.1-.36.06-.5S160.35,44.56,160.11,44.38Zm-3.36-5.5.52-.61c.06.12.14,0,.2.21C157.48,38.86,157,39.15,156.75,38.88Zm-5.82-12.8c-.12-.22-.27-.15-.12-.45.09.18.23-.09.31.22Zm3,7.39c-.25-.44.28-.62.42-.36C154.22,33.41,154.12,33.17,154,33.47Zm4.65,9.05a.44.44,0,0,1-.09-.62C158.64,42.12,158.74,42.34,158.61,42.52Zm-8.06-16c0-.06.07-.11,0-.17-.11.13-.2.12-.29,0,.21-.24.41-.29.57-.09C150.75,26.42,150.63,26.64,150.55,26.54Zm0,1.62c.15.32.39-.25.54.08C150.92,28.51,150.47,28.59,150.55,28.16Zm9.26,19.78c.14-.35-.2-.2-.17.06a.74.74,0,0,1,0-.6c.24.13.21-.12.54.09C160.09,47.74,160,47.93,159.81,47.94ZM140.12,11.59c.18-.29.3,0,.45.05C140.39,11.93,140.24,11.91,140.12,11.59Zm10.5,21.21c.16-.23.27-.12.37.14C150.84,33.17,150.72,33.06,150.62,32.8Zm-4.11-8c-.23-.29.12-.72.25-.31C146.58,24.65,146.71,24.76,146.51,24.76Zm3.24,7.48c-.28.32-.78.12-.79-.37.19.51.48,0,.71,0C149.56,32.11,149.82,31.94,149.75,32.24ZM137.32,10.8c.25-.08.51-.17.72.18C137.79,11.17,137.34,11.27,137.32,10.8Zm17.84,35c.1.15.47.24.37.57C155.4,46.44,155.06,46,155.16,45.75Zm-3.95-5.41c-.14-.45-.34-.29-.49-.59.23-.28.38.23.64-.33.08.25.21.06.28.38A1.58,1.58,0,0,0,151.21,40.34Zm-6.68-12.86c-.19-.28-.25-.55,0-.77.16.09.18.54.45.49C144.82,27.59,144.7,27.19,144.53,27.48Zm6.89,17c.23-.26.45-.48.63-.33C151.82,44.41,151.58,44.83,151.42,44.48ZM147.61,36c.15-.23.27-.12.37.14C147.83,36.41,147.71,36.3,147.61,36Zm1.29,3.44c.23-.23.44-.36.6,0C149.28,39.7,149.1,39.54,148.9,39.48Zm-1.24-1.72c-.25-.38-.59.05-.86-.13.24-.58.55-.29,1-.28.06-.12.05-.31.16-.07A.82.82,0,0,1,147.66,37.76ZM143.59,31a.66.66,0,0,1,.84-.15A.64.64,0,0,1,143.59,31Zm6.53,14c.16-.19.3-.1.44-.11-.13.27,0,.57-.19.83C150.17,45.52,150.29,45.31,150.12,45.06Zm.89-.21c0,.43.19.26.37.57-.38,0-.75.91-.89.2C150.81,45.54,150.82,45.18,151,44.85Zm-.86-.56c.07.36.5,0,.39.4-.2,0-.41.07-.56-.34.12-.13.1-.27,0-.43.2-.19.38-.22.55-.09C150.42,44,150.08,44,150.15,44.29Zm-3.25-5.44c.12.19.3-.1.41.23C147.17,39.33,146.81,39.09,146.9,38.85Zm.64.09c-.17.17.13.42-.11.58C147.21,39.34,147.35,38.78,147.54,38.94Zm-1.08-1.78c-.17.29-.3.17-.46.28-.11-.38-.26-.31-.4-.4.25-.14.15-.17.37-.46.07.33.13.48.37.13A.8.8,0,0,1,146.46,37.16Zm-7.57-13.51c.19-.36.41-.17.44-.55l.1.19s.08-.08.11,0C139.41,23.69,139.11,23.9,138.89,23.65Zm-6.16-12.91c-.13-.15-.28,0-.26-.29C132.65,10.11,132.9,10.49,132.73,10.74Zm16.9,33.9c.16,0,.31.09.45.32C149.9,45.39,149.56,44.77,149.63,44.64Zm-9.78-18a.43.43,0,0,1,.65.08A.43.43,0,0,1,139.85,26.68Zm7.76,17.06c.1.13.07-.12.18-.23.22.11.19.61.52.25.05-.29-.3-.25-.1-.61.21,0,.32.19.38.57C148.25,44.15,147.67,44.28,147.61,43.74Zm-6.4-13.81c-.22-.15-.5.32-.7-.18.23-.3.42-.14.64-.34A.46.46,0,0,1,141.21,29.93ZM144.8,38a.58.58,0,0,1-.29-.39C144.69,37.28,145,37.8,144.8,38Zm2,5.5a.7.7,0,0,0,.14-.32c.1,0,.2.15.29.38C147.08,43.79,146.94,43.77,146.82,43.54Zm-3.08-5.82c.16,0,.37-.53.5-.19C144.06,37.77,143.89,37.84,143.74,37.72Zm-1.44-1.65c.25-.39.28.11.42-.37a.75.75,0,0,1,.12.44C142.63,36.44,142.45,36.41,142.3,36.07Zm1.18.33c-.19-.39-.47.27-.64-.26C143.07,35.68,143.51,36,143.48,36.4Zm2.69,6c.18-.42.29,0,.41.23C146.41,42.92,146.31,42.51,146.17,42.42ZM143,37.27c.18-.32.3-.06.45-.1C143.42,37.56,143.14,37.6,143,37.27Zm-.71.59c.31-.32.44-.33.51-.78.2,0,.11.3.17.53-.17.29-.31.17-.46.28.06.1.21.07.14.28-.35.14-.47-.2-.67-.52.07-.13.06-.28.2-.4C142.39,37.48,142.24,37.65,142.3,37.86Zm-.72-1a1,1,0,0,1,1.09,0C142.55,37.59,141.92,37.14,141.58,36.82Zm4.5,8.24c.28-.11.52.13.79.2C146.58,45.4,146.31,45.46,146.08,45.06Zm-1.36-2.76c0-.22.1-.64.3-.38C145,42,144.84,42.5,144.72,42.3Zm.19,2c-.28-.24.25-.37.11-.59s-.32.31-.43-.06c.32-.35.59-.14.87,0C145.35,44,145.08,43.76,144.91,44.3Zm-3.67-8.55c-.4.47-.71-.35-.53-.84C140.85,35.27,140.8,35.43,141.24,35.75Zm-.16,1.09.31-.39c.05.13.15.25.08.36C141.37,36.54,141.17,37.32,141.08,36.84Zm1.79,4.35c-.14-.22,0-.4.11-.59.06.12.14,0,.2.2Zm.73,2.06a1,1,0,0,1,.14-.91C144,42.67,143.8,43.24,143.6,43.25Zm-2.33-5.44c-.19.37-.42-.14-.4-.4C141.17,37.05,141.06,37.52,141.27,37.81Zm1.41,5.41c-.08-.17-.16-.27-.24-.29.27-.17.3.18.52-.36,0,.54.25.13.44.49C143.14,43.34,142.94,42.9,142.68,43.22Zm-1.42-1.06c.28.63,1-.06,1.08.58C142,42.66,141.13,43.07,141.26,42.16Zm.32.05c.12-.16-.05-.35.15-.49.08.1.18.06.25.29C141.73,42.1,141.8,42.4,141.58,42.21Zm-1.9,0c-.1-.34-.26,0-.36-.31.16-.15.32-.24.45-.11C139.69,41.93,139.74,42.07,139.68,42.21ZM135.3,36c.19,0,.78-.33.58.33C135.74,35.94,135.26,36.35,135.3,36Zm-4.84-9.48c-.23-.26.11-.75.26-.48C130.55,26.17,130.68,26.36,130.46,26.51Zm5,9.93c.15-.24.25,0,.37.13-.16.13-.19.7-.32.56C135.55,36.91,135.43,36.66,135.43,36.44Zm-.23.74c-.25-.28,0-.85.21-.57C135.39,36.8,135.44,37,135.2,37.18Zm1.88,4.25c-.12-.5-.34.11-.46-.31a.92.92,0,0,1,.83-.15Zm-1.93-3.58.24-.31.14.28C135.38,38.15,135.27,37.92,135.15,37.85ZM134.31,36c-.31.39-.22-.31-.51-.41C134,35.51,134.32,35.71,134.31,36Zm-.67-.52-.19-.36c.14-.29.54-.35.44.05C133.76,35,133.67,35.45,133.64,35.52Zm-4.94-9.06c.13,0,.24.18.36.3a3.78,3.78,0,0,1-2.28-.45c.26-.59.41.35.67-.09-.13-.22-.27-.13-.14-.44.25,0,.12.37.34.64.27-.4.46.28.73-.17-.14-.09-.29,0-.41-.39.13-.23.22,0,.36-.3.18.15-.1.66.18.53s-.14-.41.1-.58.21,0,.31.21S128.65,26.2,128.7,26.46Zm5.51,10.76c-.21-.5-.5-.14-.73-.43.17-.33,0-.64.34-.73.24.26,0,.46.05.69.17-.08.32,0,.51-.19C134.55,36.81,134.4,37,134.21,37.22Zm1.65,3.8c.2-.25.41-.59.57-.27C136.24,40.86,136,41.31,135.86,41Zm-3.49-7.36.24-.31.14.27C132.61,33.85,132.47,33.92,132.37,33.66Zm-1.8,1.82c-.09.06-.18,0-.26-.12.42-.39.55.7.75.87l.31-.39a1,1,0,0,0,1.23.41,1.43,1.43,0,0,1,.39-.81c0,.66.22-.2.42.23a4,4,0,0,0-.92,1.16c-.29-.79-1,0-1.42,0,.06-.16.37-.29.26-.48-.22.22-.41.1-.63.35.06.1.21.07.14.28-.18-.31-.71.18-.69-.34.25.26.71-.34.51-.8-.08.61-.77.19-.77-.09C130.09,35.78,130.66,36.1,130.57,35.48Zm-.28.82a.48.48,0,0,1-.42.38c.12-.26-.24-.1-.29-.38C129.83,36,130.06,36.21,130.29,36.3Zm5.59,4.55a.94.94,0,0,1-.81-.19C135.34,40.52,135.83,40.36,135.88,40.85Zm-2-3.24c.1.11.23-.17.31.21C134.1,38.25,133.79,37.82,133.91,37.61Zm-1-.38c.15-.22.57-.3.48.14C133.23,37.21,133.05,37.38,132.9,37.23Zm1.68,3.45c0-.25.31-.41.45-.11C134.86,40.86,134.72,40.77,134.58,40.68ZM126.19,26c.07-.37.34,0,.32-.55C126.77,25.7,126.34,26.26,126.19,26Zm-.61,0c0-.38.3-.23.49-.63l.15.28C126,25.9,125.77,26.28,125.58,26Zm5.86,11c.14-.05.57-.31.48.15C131.77,37,131.59,37.22,131.44,37Zm.82,2.76c.15-.23.28-.31.39,0C132.5,39.9,132.37,40,132.26,39.71Zm-3-4c-.14,0-.29,0-.43,0,.19-.28.22-.6.47-.46C129.22,35.4,129.45,35.6,129.29,35.75Zm-1.08-.9c-.08-.17-.16-.27-.25-.29l.12-.15c0-.06-.05-.12,0-.17.27.42.1-.36.26-.48.12.14.26-.06.36.29C128.43,34.31,128.41,34.59,128.21,34.85Zm.53,1.6c-.06-.15-.2-.31-.13-.44.24.18.53-.28.75.26C129.06,36.5,128.93,36.11,128.74,36.45ZM114.25,9.23c-.18-.25,0-.45.16-.66a.33.33,0,0,0,.2.19C114.6,9,114.39,9.26,114.25,9.23ZM123.1,26c-.2.15-.37.05-.53-.24.19-.29.24-.93.53-.53C122.92,25.51,122.78,25.78,123.1,26ZM127,34.44c.2,0,.23.32.17.54.42-.36,1.07-.1,1.22.57a.94.94,0,0,0-1.32,0,.93.93,0,0,0,0-.69c0,.36-.07.39-.31.39s0-.28,0-.43c-.15.45-.13.13-.34.13.13.37-.21.41-.34.13,0-.29.25-.18.43-.55C126.79,34.68,126.8,34.94,127,34.44Zm3.55,7.78c-.26-.39-.53.4-.69.43-.2-.47.13-.37.28-.82.08.35.22,0,.34-.13A.47.47,0,0,1,130.53,42.22ZM127,36a3.67,3.67,0,0,0-.69-.34.61.61,0,0,1,.51-.2C126.68,35.56,127.23,35.55,127,36Zm1.72,4.65c0-.23.28-.63.41-.38C129,40.33,128.8,40.82,128.69,40.63Zm.19,1.73c.15-.31.26-.07.41-.38-.12-.22-.26-.14-.13-.44.16.13.62,0,.56.5C129.48,42.25,129.2,42.68,128.88,42.36ZM125.73,35c-.07-.41-.49.18-.37-.3C125.52,34.6,125.93,34.48,125.73,35Zm.9,3.27c.22-.1.44,0,.66-.09C127.26,38.38,126.61,38.66,126.63,38.24Zm1.76,3.37a.7.7,0,0,0,.14-.32c.11.18.53.14.45.48C128.8,41.5,128.56,42,128.39,41.61Zm-5-6.74a3.26,3.26,0,0,1,1.34-.18c-.07-.21-.19-.42,0-.6,0,.72.22.2.5.57-.22.31-.38.29-.34.9C124.62,34.58,123.92,35.29,123.42,34.87Zm-12.74-26c.17.15.39-.34.54.06C111.06,9.09,110.62,9.31,110.68,8.91Zm8.53,16.67c-.1-.28-.2-.29-.33,0-.18-.54.43-1.09.72-.77A.87.87,0,0,0,119.21,25.58Zm8.11,15.73c.34-.16.65.1,1,.12l-.19.23C127.86,41.41,127.58,41.57,127.32,41.31ZM122.71,32c.21.05.73,0,.73.43C123.24,32.16,122.7,32.57,122.71,32Zm.41,1.75c-.26-.4-.57-.11-.84-.44a.68.68,0,0,1,1,.21C123.22,33.37,123.14,33.6,123.12,33.72Zm3.76,7.71c.09-.13-.1-.3,0-.43.13.19.3-.1.42.22C127.13,41.43,127,41.62,126.88,41.43Zm-1-.38c.21-.32.39-.26.56-.1C126.23,41,126,41.27,125.86,41.05ZM123,34.82c-.34.35-.37-.07-.57-.5a.8.8,0,0,0,.2-.4l.09.18A.52.52,0,0,0,123,34.82Zm3.33,7.48c-.29-.14-.6.2-.86-.28.29,0,.24-.61.49-.62.28.21-.07.78.16.7s0-.4.21-.57A1.13,1.13,0,0,1,126.32,42.3ZM125.11,41a.8.8,0,0,1,.25-.48c.12.42.29.06.41.39l-.12.15C125.51,40.67,125.37,41.07,125.11,41Zm-4-6.53c.25,0,1-.68.87.1C121.75,34.13,121.41,34.86,121.15,34.43Zm-1.54-1.55c.16-.15.31-.24.45-.12C120,33,119.75,33.18,119.61,32.88Zm-.12.93c.32.22,1.19-.33,1.11.55C120.29,33.89,119.61,34.33,119.49,33.81Zm-1.76-2.34c.17-.29.31-.21.45-.12A.24.24,0,0,1,117.73,31.47Zm.29,1.31c-.26-.75-.61-.2-.9-.53.22-.5.8,0,1.15,0C118.11,32.45,118.23,32.64,118,32.78Zm-.14.33c-.29-.5-.39.6-.73.17.32-.26.17-.19.32-.56C117.63,32.71,118.08,32.65,117.88,33.11ZM116,32.72c.19-.32.35-.32.51-.19C116.52,32.84,116.18,33.17,116,32.72Zm3.19,6.77c.22-.43.38-.15.56-.1C119.6,39.46,119.4,39.71,119.23,39.49Zm.09.35c.13-.24.51-.12.42.22C119.61,39.84,119.43,40.3,119.32,39.84Zm-.75-1c.1-.16-.13-.36-.07-.52s.28-.31.38,0C118.7,38.39,118.85,39,118.57,38.82Zm-.08,1.78a1.32,1.32,0,0,0,.22-.74c-.14.15-.25-.06-.36-.3.29-.2.6-.68.85-.33C118.76,39.59,119,41.05,118.49,40.6Zm-4.37-9.55c.12-.36.48-.19.37.13C114.37,31,114.22,31.41,114.12,31.05Zm3.65,8.19c.14-.24.28-.31.39-.05C118,39.42,117.88,39.5,117.77,39.24ZM114.64,33c-.26,0-.75.12-.8-.35-.22.26-.56-.25-.63.35l-.2-.36c.17-.31.28-.07.3-.39.3.25.47.27.58-.28.22.2,0,.35.07.52l.3-.39C114.5,32.61,114.21,32.83,114.64,33Zm-1.93-.74c-.27-.54.42-.83.58-.44-.08.13,0,.28-.09.41C112.84,32.24,113,31.58,112.71,32.25Zm-.65.52c-.25-.34,0-.62.23-.91.08.14.2-.12.27.12C112.32,32.52,112.24,32.17,112.06,32.77Zm-1.23-2.1c.18-.14.36-.32.5,0C111.14,30.92,111,30.91,110.83,30.67ZM96.57,8.75c-.15.15-.57.28-.49-.15.13.23.35-.07.36-.29A.85.85,0,0,1,96.57,8.75Zm11.21,22.93c-.29-.53.6-1.07.52-.36C108.08,31.07,108.07,31.65,107.78,31.68ZM95.68,8.81c-.31.13-.91.37-1-.29.37.3.2-.41.38-.64a1.85,1.85,0,0,1,.09,1C95.38,8.44,95.71,8.33,95.68,8.81ZM94,8.68c.14.1.31-.13.44.06C94.41,9.27,93.74,9.08,94,8.68Zm13.48,29.87c.2-.18.38-.16.55.07C107.79,39,107.62,38.76,107.45,38.55Zm-1,.4c-.2.64-.27,0-.45-.05.11.46-.18.74-.3,1-.24-.4.39-.7.14-1.1-.07.14,0,.28-.2.41s-.41-.34-.3-.55c.3.32,1.58-1.11,1.23.14.22,0,.75-.29.75.26A.48.48,0,0,1,106.43,39Zm-.4.8a.88.88,0,0,1,.85-.15C106.59,39.81,106.29,40.07,106,39.75ZM90.23,9.59c-.22-.24-.81.45-.82-.18C89.67,9.49,90.2,8.94,90.23,9.59ZM105,40c-.06-.15-.2-.31-.13-.45.25.3.38.22.52-.19C105.53,39.84,105.22,39.84,105,40Zm-1-1.06c-.1-.34-.27.16-.37-.3C103.81,38.46,104.2,38.6,104,38.92Zm.31,1.92a.45.45,0,0,1-.07-.52c.06.09.13.27.21.19s.12-.15.17-.06ZM87.45,9.43c.07-.13,0-.28.2-.4.1.35.25.16.37.3C87.81,9.56,87.61,9.73,87.45,9.43ZM102,38.86c0-.17-.23-.22-.25-.29-.08.13,0,.28-.09.42-.3,0-.36-.44-.11-.78.29.11.59,0,.87.27C102.19,38.64,102.1,38.87,102,38.86ZM86.5,8.64l.2.36C86.5,9.37,86.22,8.86,86.5,8.64Zm14.09,29.71c-.18.12-.35.16-.49-.15.19-.27.35-.18.5,0A.13.13,0,0,0,100.59,38.35ZM84,9.7c-.12-.14-.26-.06-.38-.29.09-.1,0-.61.2-.41-.13.21,0,.43.15.28a.88.88,0,0,1,0-.51c.1.18.23-.1.32.2C84,9.2,84.24,9.48,84,9.7ZM98.87,39c-.23-.2-.78.07-.81-.35.16.14.34,0,.5,0-.07-.19-.17-.11-.25-.29.16-.13.41-.21.43-.54A5.6,5.6,0,0,1,98.87,39Zm-16-29.41c.09-.19,0-.39.21-.58C83.15,9.26,83.08,9.86,82.83,9.58ZM97.74,38.43a1.27,1.27,0,0,1-.07-1.12.33.33,0,0,0,.2.19C97.73,37.8,98.05,38.15,97.74,38.43ZM82.35,9.1c.15-.23.29-.31.4,0C82.6,9.29,82.47,9.36,82.35,9.1ZM97,38.59c.3-.06.6-.16.88.11-.32,0-.4.2-.63.18a.23.23,0,0,0,0-.26C97.15,38.7,97.07,38.78,97,38.59Zm-.41-.39c.07-.13,0-.29,0-.43.34-.32.64-.21.94,0-.2.21-.08.45-.28.65C97,38.28,96.8,38.4,96.6,38.2ZM80.91,9.53c.22-.23.39-.46.33-.73.16.24.34,0,.5.14-.35.52.14.35,0,.68C81.46,9.27,81.16,9.71,80.91,9.53ZM96.14,39.08c-.1-.15,0-.29-.13-.44-.06.08,0,.17-.08.25-.22-.23-.07-.41.11-.59.06.1.12.27.2.2s.05-.22.14-.33l.14.28C96.2,38.78,96.26,38.68,96.14,39.08Zm-.67-1.28c-.2.19-.37-.06-.55-.06C95.13,37.34,95.49,37.3,95.47,37.8Zm-1.26.53c-.17.05-.35.23-.5,0,.18-.39.3-.06.45-.12,0-.09-.09-.18,0-.26A.79.79,0,0,1,94.21,38.33ZM93,37.58c.17.21.37-.09.53.24C93.36,38,92.93,38,93,37.58Zm.12-.15c-.05,0-.11,0-.17.06a.45.45,0,0,1-.07-.52c.08.11.18,0,.27.12C93.07,37.2,93.17,37.32,93.12,37.43Zm-1.25-.24a.54.54,0,0,1,.89-.06C92.44,37.47,92.18,37.06,91.87,37.19Zm-.24.91c.16-.58.49-.46.75-.33C92.11,38.11,91.85,38.36,91.63,38.1Zm-1.27-1.27c0-.14,0-.28-.13-.44.26-.29.51-.42.71,0A.6.6,0,0,0,90.36,36.83Zm-3.3.88c.14-.22-.17-.05-.19-.36s.46.06.36.3C87.12,37.49,87.15,37.83,87.06,37.71ZM65,36.63c-.13-.14-.28-.05-.41-.37a.84.84,0,0,1,.65-.46l.15.26C65.1,36.23,65.14,36.16,65,36.63Zm-1.72-.55c.22.43.54-.27.46.46C63.63,36.33,63.23,36.53,63.29,36.08ZM42.6,10.16c.52-.55-.51-.21.06-1,.16.38.1.41.34.46C43,9.84,42.83,10.44,42.6,10.16Zm.58-1c.07.1.13.27.2.2s0-.79.25-.66c0,.2-.11.39,0,.6-.28.05-.29.77-.57.79A1.05,1.05,0,0,1,43.18,9.2ZM58,36.62c-.17.23-.34.1-.51.06,0-.3.24-.2.4-.58C58.08,36.28,57.88,36.44,58,36.62ZM41.81,10.17c-.14-.3,0-.57-.06-.86.13.19.3-.32.42,0C42,9.77,42,9.71,41.81,10.17Zm15,26.13c.27.18.21-.39.46-.15C57.31,36.35,56.72,36.86,56.8,36.3ZM41.65,10.06c-.11.19-.22.18-.31,0,.07-.2.13-.35.23-.32C41.51,9.82,41.58,9.94,41.65,10.06ZM40,37.57c.19.29.44-.23.63,0C40.39,38,39.92,38,40,37.57Zm-.93.07c.29.06.59-.12.86.18C39.58,38.13,39.29,38.12,39,37.64ZM38.6,38l.26-.31L39,38C38.85,38.31,38.73,38.09,38.6,38ZM21.78,22.53c-.14-.31,0-.57.22-.83s.66-.09,1.1-.41c0,.12.14.25.07.36A4.07,4.07,0,0,1,21.78,22.53Zm-1.47-.18a.73.73,0,0,1,0-.52c.37,0,.77-.26,1.12-.14C21,22,20.68,22.08,20.31,22.35Zm7.74,16.24c.07-.33.53-.63.73-.42C28.51,38.59,28.29,38.52,28.05,38.59ZM18.56,22.9c.53-.37,1-.47,1.27-1.15l.17.38C19.66,22.26,19.14,23.32,18.56,22.9ZM23.7,40.69c-.12.14-.22.22-.32.21-.26-.44.28-.76-.1-1.21.23,0,.49-.41.65,0C23.55,39.63,23.38,40.19,23.7,40.69ZM14.58,22c-.13-.25.08-.44.1-.67.1.15.26,0,.34.33C14.86,21.8,14.75,21.68,14.58,22Zm1.23,7.23c-.14-.13-.33.45-.43.61-.21-.21,0-.35,0-.53-.07,0-.12,0-.16-.11.29,0,.52.07.48-.52C15.8,28.67,15.86,29,15.81,29.2ZM17,37.59c.1.27.3-.21.39.16C17.2,38.1,16.84,37.9,17,37.59Zm-1.59-.28c.32-.22.64-.42.89-.1C16,37.19,15.62,37.64,15.38,37.31Zm-1.1-.38c.17-.14.35-.29.45.08C14.55,37.19,14.4,37.16,14.28,36.93Zm-.14,1.7c-.11-.3-.16-.31-.22-.05-.22-.32.33-.58.39-.27A.77.77,0,0,0,14.14,38.63ZM4.68,33.72a.48.48,0,0,1,.52-.41C5.16,33.54,4.8,34,4.68,33.72Z"/><path class="cls-2" d="M134.66,43c.08-.15-.13-.1,0-.26-.66.74-1.2,0-1.83.36a2.12,2.12,0,0,0,1.5.36c.06-.1,0-.23-.08-.35C134.36,43.1,134.52,42.91,134.66,43Z"/><path class="cls-2" d="M174.52,17.91c-.16-.25-.39.11-.58.07C174.12,18.05,174.29,18.23,174.52,17.91Z"/><path class="cls-2" d="M164.33,18.29c.15-.12.14-.26.21-.39s-.2.11-.3.2a.8.8,0,0,0-.08-.35C164,18.05,164.2,18.1,164.33,18.29Z"/><path class="cls-2" d="M171.08,32c.24-.07-.33-.12-.26-.56a1.67,1.67,0,0,0-.12.58C170.9,32.34,170.88,31.72,171.08,32Z"/><path class="cls-2" d="M168.12,26.37a.38.38,0,0,0,.06-.51c0,.23-.17.29-.31.21C167.73,26.28,168.07,26.23,168.12,26.37Z"/><path class="cls-2" d="M168.53,28.5c0,.14-.11.27,0,.43a.87.87,0,0,0,.28-.47c-.09-.17-.24.18-.33-.05C168.42,28.51,168.49,28.54,168.53,28.5Z"/><path class="cls-2" d="M162,15.35c-.15-.42-.16.19-.25.3s0-.26-.18-.37c-.35.45-.63.29-.9,0-.07.16-.09.33-.16.49a.9.9,0,0,1,1.15.09C161.81,15.53,162,15.64,162,15.35Z"/><path class="cls-2" d="M168.83,30.61c-.68,0-1.1-.19-1.8.22.06.17.22.11.13.28.22.19.16-.11.41-.19-.09.42.81.21.55.52C168.22,31.78,168.67,31,168.83,30.61Z"/><path class="cls-2" d="M159.41,12.11c-.14-.35-.77-.4-1.15-.26C158.66,11.91,159,12,159.41,12.11Z"/><path class="cls-2" d="M174.23,45.91c0-.31.19-.12.38-.45-.32-.23-.34.07-.51.17S174.18,45.72,174.23,45.91Z"/><path class="cls-2" d="M167.41,30.37c-.21.07-.38-.18-.62.16C166.94,31,167.21,30.43,167.41,30.37Z"/><path class="cls-2" d="M159.61,16.69c.16-.12,0-.29.1-.41-.11-.17-.26,0-.39,0C159.19,16.54,159.58,16.22,159.61,16.69Z"/><path class="cls-2" d="M169.37,40.49c-.06.08,0,.17,0,.26s-.21,0-.36.29c.2.15.39.35.66-.06C169.51,40.75,169.41,41,169.37,40.49Z"/><path class="cls-2" d="M163.93,34.61c-.3.19-.22-.22-.52-.25a5,5,0,0,1-.3.64C163.38,34.81,163.83,34.92,163.93,34.61Z"/><path class="cls-2" d="M153.49,14.47c.07.32-.31.1-.28.47s.29-.22.38.14c0-.36.31-.48.11-1-.16.15-.32.23-.46.1C153.1,14.38,153.44,14.33,153.49,14.47Z"/><path class="cls-2" d="M152.52,14c-.23-.31-.55.29-.76-.28-.21.29.13.24,0,.43C152,14.07,152.26,14.15,152.52,14Z"/><path class="cls-2" d="M151.31,14.23c.09.16,0,.29.12.45a.76.76,0,0,1,.94.22c0-.71-.58-.23-.76-.88-.23.41-.38.1-.53-.25-.35.09-.36.29-.68.5.11.1.22.12.32.22.17-.12,0-.28.1-.41s.11,0,.17-.06c0,.17-.16.32.06.52C151.2,14.53,151.27,14.45,151.31,14.23Z"/><path class="cls-2" d="M163,48.79c.07-.1,0-.13,0-.09-.07-.12-.13-.25-.07-.35s-.19.11-.29.21C162.72,48.71,162.86,48.7,163,48.79Z"/><path class="cls-2" d="M158,45.69c.11-.21-.64-.76-1-.33.07.09.45-.16.31.22C157.57,45.82,157.86,45.21,158,45.69Z"/><path class="cls-2" d="M155.41,44c-.2-.19-.24-.83-.6-.44,0,.67.58.19.44.92C155.5,44.34,155.15,44.12,155.41,44Z"/><path class="cls-2" d="M146.13,29.84c.15-.33-.2-.16-.25-.29-.12.11-.08.35-.19.23-.06,0,0,.11,0,.17l.09.18c-.05-.13.32-.59.19-.23C146.05,30,146,29.69,146.13,29.84Z"/><path class="cls-2" d="M149.49,42.31c0-.32-.44-.29-.61-.44a1.37,1.37,0,0,0-.43-1.09,8.36,8.36,0,0,0,.12,1.48c.12-.85.33.17.68.18C149.29,42.23,149.36,42.16,149.49,42.31Z"/><path class="cls-2" d="M147.88,40.44c0-.35-.58-.27-.82-.46-.19.29.36.2.16.54C147.33,40.42,147.66,40.15,147.88,40.44Z"/><path class="cls-2" d="M148.28,41.87c.24-.18,0-.3-.09-.18a.47.47,0,0,1,0-.43c-.08-.09-.18,0-.26-.13.09.16.11.73-.18.23-.07.14.06.3.12.45Q148.1,41.54,148.28,41.87Z"/><path class="cls-2" d="M145.6,41.06c.08.09.18,0,.26.12.22-.17,0-.4.21-.57C145.9,40.62,145.87,40.83,145.6,41.06Z"/><path class="cls-2" d="M142.89,44.44c.05-.31.08-.09.25-.31-.19-.22.15-.38-.11-.61l-.18.23c.08.24.15.49-.14.32C142.56,44.29,142.87,44.13,142.89,44.44Z"/><path class="cls-2" d="M139.45,38c.13.12.05-.22,0-.09a.64.64,0,0,1,.15-.49c-.17-.13-.45.44-.28.64C139.35,38,139.4,37.93,139.45,38Z"/><path class="cls-2" d="M134,26.7c-.07-.1-.09,0-.06.07-.19.26-.3-.47-.5,0,.15.44.35.15.53.23C134.07,26.93,134,26.8,134,26.7Z"/><path class="cls-2" d="M137.11,44.26c.18.37.4.39.63.25-.21-.5-.47-.39-.69-.77-.17.58-.51.21-.8.41C136.31,44.12,137,44.73,137.11,44.26Z"/><path class="cls-2" d="M136.46,43.57c-.28-.1-.6.29-.86-.11-.13.95-.83-.32-1.26.1,0,.14.09.29,0,.43.24-.05.51-.45.69.17.37-.28.69,0,1,.05.07-.13-.07-.29-.13-.44C136.13,43.63,136.27,44,136.46,43.57Z"/><path class="cls-2" d="M136.89,45.6c0-.91-1.24-1-1.52-.63C135.86,45.09,136.62,44.79,136.89,45.6Z"/><path class="cls-2" d="M132.93,44.15a1.79,1.79,0,0,0-.63-.26C132.28,44.24,132.74,44.21,132.93,44.15Z"/><path class="cls-2" d="M130.05,43.44a2.23,2.23,0,0,0-1.66-.46c.19.5.46,0,.51.57.08-.6.43.15.67-.25.19.25-.2.58.11.61C129.62,43.45,129.78,43.37,130.05,43.44Z"/><path class="cls-2" d="M130.09,44.3c0-.46-.46-.13-.63-.25-.14.3.19.13.23.46C129.91,44.17,129.86,44.08,130.09,44.3Z"/><path class="cls-2" d="M128.29,43a1.54,1.54,0,0,0-1.12-.4C127.27,43.64,127.92,43.1,128.29,43Z"/><path class="cls-2" d="M122.48,41.58c-.15-.09-.32,0-.6,0l.14.28C122.2,41.48,122.31,41.87,122.48,41.58Z"/><path class="cls-2" d="M119.29,42.48l.36-.47c-.27-.16-.31.53-.61.19C118.91,42.41,119.23,42.35,119.29,42.48Z"/><path class="cls-2" d="M116.15,41.77c0-.8-.35.39-.57-.49a.65.65,0,0,1-.13.33C115.66,42,115.92,41.69,116.15,41.77Z"/><path class="cls-2" d="M110.94,41.43c.14.12,0-.22,0-.09-.09-.21.06-.39.09-.59-.18,0-.39.32-.54-.06-.28.81-.54.24-.85.33s.11.35-.15.49c.33-.19.61.2,1-.15.09.16,0,.29.13.45A.39.39,0,0,1,110.94,41.43Z"/><path class="cls-2" d="M102,40.13c-.27-.41-.63.4-.89-.1-.06.13.08.29.14.44C101.49,40,101.68,40.62,102,40.13Z"/><path class="cls-2" d="M96.12,40c0-.32-.67-.43-.71-.17C95.65,39.93,95.9,39.77,96.12,40Z"/><path class="cls-2" d="M90.79,37.65a4.07,4.07,0,0,0-.16.67c.13.12.29,0,.45-.12-.09-.3-.22,0-.33,0S91.11,38,90.79,37.65Z"/><path class="cls-2" d="M70,37.81c.05-.45-.38-.15-.51-.39-.06.06,0,.11,0,.17l.1.18C69.72,37.53,69.85,37.82,70,37.81Z"/><path class="cls-2" d="M51.42,6.81c-.29-.08-.59,0-.88-.15-.14.49-.52.22-.79.19,0,.08,0,.17-.07.25s0,.11,0,.17C50.27,7,50.83,7.17,51.42,6.81Z"/><path class="cls-2" d="M37.34,40.36c-.32.19,0,.45-.28.65,0,.05.11,0,.16.1l.13-.16C37.06,40.72,37.63,40.59,37.34,40.36Z"/><path class="cls-2" d="M34.79,39.63c-.29-.52,0,.66-.33.39-.12.29.24.34.35,0C34.69,39.91,34.66,39.76,34.79,39.63Z"/></g></g></svg>