<?xml version="1.0" encoding="utf-8"?>
<!-- Generator: Adobe Illustrator 22.0.1, SVG Export Plug-In . SVG Version: 6.00 Build 0)  -->
<svg version="1.1" id="Слой_1" xmlns="http://www.w3.org/2000/svg" xmlns:xlink="http://www.w3.org/1999/xlink" x="0px" y="0px"
	 viewBox="0 0 400 300" style="enable-background:new 0 0 400 300;" xml:space="preserve">
<style type="text/css">
	.st0{fill:none;stroke:#FFFFFF;stroke-width:3;stroke-miterlimit:10;}
	.st1{fill:none;stroke:#FFFFFF;stroke-width:2;stroke-miterlimit:10;}
	.st2{fill:#FFFFFF;stroke:#FFFFFF;stroke-miterlimit:10;}
	.st3{fill:none;stroke:#FFFFFF;stroke-miterlimit:10;}
	.st4{fill:#FFFFFF;stroke:#FFFFFF;stroke-width:2;stroke-miterlimit:10;}
</style>
<g>
	<path class="st0" d="M252.7,61.8c-2.9-9.5-5.7-18.9-8.6-28.4l-62.4,18.3l-30.7,9c8.9,30.2,17.7,60.5,26.6,90.7"/>
	<path class="st0" d="M252.1,60.8"/>
	<path class="st0" d="M278,149.1"/>
	<path class="st0" d="M207.2,173.4c23.9-7,47.8-14,71.7-21c-0.2-0.7-0.4-1.5-0.6-2.2"/>
	<path class="st0" d="M207.2,173.4"/>
	<path class="st0" d="M184.5,175.1"/>
	<path class="st0" d="M253.2,63.2c4.7-1.6,9.8-2.5,15.1-2.5c25.4,0,46,20.6,46,46s-20.6,46-46,46s-46-20.6-46-46
		C222.3,86.5,235.3,69.5,253.2,63.2"/>
	<circle class="st0" cx="268.3" cy="106.5" r="35"/>
	<path class="st0" d="M291.2,66.2c0.6-1.1,2.7-4.6,5.8-4.8c0.7,0,1.9,0,7.4,4.8c5.5,4.8,5.8,6.1,5.9,6.8c0.2,2.8-2.3,5.1-3.5,6"/>
	<path class="st1" d="M302.6,62.9c1.6-2.5,4.8-2.8,6.4-1.5c1.7,1.4,1.9,4.7-0.4,6.7"/>
	<polygon class="st2" points="289.3,80.8 285.8,87.7 292.4,83.6 	"/>
	<polygon class="st2" points="248.3,133 251.7,126.1 245.3,130.3 	"/>
	<polygon class="st2" points="242.1,86.2 249.2,89.5 245.2,82.8 	"/>
	<polygon class="st2" points="294.6,126.9 286.9,123.3 291.2,130.6 	"/>
	<path class="st3" d="M256.6,118.3"/>
	<polygon class="st1" points="269.2,85.5 263.3,106.9 269.2,128.4 274.9,109.1 275.6,106.7 	"/>
	<polygon class="st4" points="269.2,85.8 263.6,106.4 275,106.4 	"/>
	<path class="st1" d="M178.3,151.7c-4.4-1.5-9-2.4-13.6-2.6c-9.7-0.4-19.3,1.9-27.9,6.5c-19.1,10-33.8,30.7-35.1,56.2
		c0.2,11.3,0.9,22.8,2,34.7c0.1,1.1,0.2,2.2,0.3,3.3c10.6-20.7,19.3-36.7,25.3-47.7c6-10.8,11.4-20.5,13-23.3
		c4.1-7.2,7.7-13.5,10.7-18.7"/>
	<path class="st1" d="M181.8,219.7c0.4-0.3,0.8-0.6,1.3-0.9c12-8.7,24.1-16.8,36.3-24.3c-2-6-6.6-17.3-17.3-27.8
		c-8.9-8.6-18.1-12.8-23.7-14.9"/>
	<path class="st1" d="M125,211.4c11.1,5.4,22.3,10.9,33.6,16.3c2.4,1.1,4.7,2.3,7.1,3.4c2.5-1.8,5-3.6,7.5-5.4"/>
	<path class="st1" d="M165,230.8c2.2-12.3,3.8-27.1,3.7-44c-0.1-14-1.4-26.5-3.2-37.3"/>
	<path class="st1" d="M181.3,218.4"/>
	<polyline class="st1" points="137.4,155.2 152.3,160.4 168,166.1 	"/>
	<path class="st1" d="M152,162.8c0.6,5.7,2,13.1,5,21.3c3.3,9,7.5,16,11,21c3.2,3.7,6,6.5,8,8.3c3.1,2.9,4.7,4.1,6.7,6.7
		c2.4,3.2,3.7,6.2,4.3,8.3c-2.4,3.9-4.9,7.8-7.3,11.7c-2.6-4.5-5.4-10.3-7.7-17.3c-1.9-6-3-11.4-3.7-16"/>
	<path class="st1" d="M127.3,205.5l32.5,16.6c1.1-3.5,2.2-8,2.6-13.5c0.4-5,0.1-9.4-0.3-12.8"/>
	<path class="st1" d="M186,244.4c0,2.9,0,5.8,0,8.7"/>
	<path class="st1" d="M100.7,263.1c0-2.9,0-5.8,0-8.7"/>
	<path class="st1" d="M80.3,206.8c0,2.9,0,5.8,0,8.7"/>
	<path class="st1" d="M152,162.8"/>
	<line class="st3" x1="189" y1="156.8" x2="234.3" y2="207.4"/>
	<line class="st3" x1="187" y1="228.4" x2="195" y2="236.4"/>
	<line class="st3" x1="179.7" y1="240.1" x2="186" y2="248.8"/>
	<line class="st3" x1="104" y1="249.8" x2="101" y2="260.1"/>
	<line class="st3" x1="122" y1="165.4" x2="80.3" y2="211.8"/>
	<path class="st1" d="M195,240.8c0-2.9,0-5.8,0-8.7"/>
	<path class="st1" d="M234.7,211.1c0-2.9,0-5.8,0-8.7"/>
	<path class="st3" d="M169.7,118.8c1.2-3.2,3.1-8,5.7-13.7c6.2-13.5,9.5-16.9,11.3-23c1.9-6.4,2.3-16.1-5-30.3"/>
	<path class="st3" d="M199.7,47.1c-1.6,8.4-1.5,15.1-1,19.7c0.4,4.3,1,5.2,1,9c0,3.3,0,10.5-4,17.3c-2.9,4.9-4.6,4.2-7.7,9.7
		c-2.6,4.6-3.6,9-4,11.3c-1.4,8.4,1.4,10.4-1,15.3c-2.1,4.3-4.8,4.2-6.3,8.3c-1.5,4-0.4,8,0.7,10.7"/>
	<path class="st3" d="M204.7,112.4c-0.9,3.8-1.8,7.6-2.7,11.3c0,2.9,0.3,11.3,6.3,18.7c2.7,3.3,5.8,5.4,8,6.7c1.6,1.6,3.6,3.4,6,5
		c7.7,5.1,15.7,5.9,20,6c-1.2-3.2-3.3-7.7-6.7-12.7c-4.2-6.1-5.5-5.6-10.3-11.7c-7.5-9.6-7.3-14.7-14.7-20
		C208.3,114,206.1,113,204.7,112.4z"/>
	<path class="st3" d="M207,100.1c-1.2,0.9-2.5,2-3.7,3.3c-5.3,5.9-6.4,12.8-6.7,16.3c-1,2.6-1.9,6.1-2,10.3
		c-0.3,10.2,4.6,17.8,6.7,20.7c9.3,4.9,18.7,9.8,28,14.7l22.3-6.3l-1-7.7l-17.3-10L219,118.8l-4.9-9.6c0.3-3.4-1-6.6-3.5-8.1
		C209.3,100.3,207.9,100.1,207,100.1z"/>
	<path class="st3" d="M214.3,89.1c1.1,2,2.3,4.8,3,8.3c1.4,7-0.3,12.8-1.3,15.7c1-2.2,3.5-8.1,2-15.3
		C217.2,93.8,215.6,90.9,214.3,89.1z"/>
	<path class="st3" d="M206.3,81.1c0.8,0,2.8,0,4.7,1.3c3.3,2.3,3.3,6.3,3.3,6.7c0.3-2.8-0.8-5.5-3-7C209.2,80.7,206.9,81,206.3,81.1
		z"/>
	<path class="st3" d="M198.5,99.5c5.4-12.1,8.1-18.1,8.1-18.1c0,0-6.5,14.3-19.3,42.9c-0.7,4.1-1.3,10.7,0.7,18.4
		c1.1,4.1,2.6,7.5,4.1,10.1c2,2,4.1,4,6.1,6c3.7,1.2,7.5,2.5,11.2,3.7c2.9,2.1,5.9,4.2,8.8,6.4"/>
	<path class="st3" d="M231.7,45.4c-0.9,0.2-3.9,1.1-6,4c-1.5,2-1.9,4-2,5c0.4,0.5,2,2.7,5,3.3c3.5,0.8,6.2-1,6.7-1.3
		c0.3-0.5,0.7-1,1-1.7c1.2-2.5,1.2-4.9,1-6.3C235.4,47.4,233.6,46.4,231.7,45.4z"/>
	<path class="st3" d="M222,44.1c-0.7,0-4.7,0.1-7.7,3.3c-3.5,3.7-2.8,8.4-2.7,9c2.6,2.3,5.6,4.7,9,7c2.4,1.7,4.8,3.1,7,4.3
		c1.6,0.3,4,0.6,7,0c3.7-0.7,6.3-2.3,7.7-3.3c1.8-3,3.6-6,5.3-9c-2.1-4.3-4.2-8.7-6.3-13c-2.2-0.7-4.4-1.3-6.7-2L222,44.1z"/>
	<path class="st3" d="M225.7,44.8c-2.8,2.8-5.6,5.6-8.3,8.3c0.1,0.6,0.5,3.7,3.3,6c2.8,2.3,6,2.1,6.7,2c1.7,0.9,3.3,1.8,5,2.7
		c2.4-1.1,4.9-2.2,7.3-3.3l2.3-6l-0.7-7.7l-5.7-3.7C232.3,43.6,229,44.2,225.7,44.8z"/>
	<path class="st3" d="M177,54.8c1.7,4.9,3.3,9.8,5,14.7c0.4,3.8,0.6,11.5-3.3,19.7c-1.7,3.6-3.8,6.3-5.7,8.3c-2,5-4,10-6,15"/>
	<path class="st3" d="M171.3,55.8c1.2,2.1,2.9,5.5,3.7,10c0.8,4.3,0.4,8,0,10.3c-0.1,2.4-0.4,5.8-1.7,9.7c-1.6,4.8-4,8.2-5.7,10.3
		c-0.8,3-1.6,6-2.3,9"/>
	<path class="st3" d="M167.7,56.8c1.1,2.1,2.4,5,3.3,8.7c0.9,3.8,1.1,7.2,1,9.7c-1.2,4.6-2.4,9.1-3.7,13.7c-2.1,2.6-4.2,5.1-6.3,7.7
		"/>
	<path class="st3" d="M157.3,63.8c-0.3,0.4-0.9,1.4-1,2.7c-0.2,2.2,1.1,3.7,1.3,4c1.1,0.3,2.2,0.7,3.3,1c0.2-1.1,0.4-2.4,0.3-4
		c0-1.3-0.2-2.4-0.3-3.3C159.8,64,158.6,63.9,157.3,63.8z"/>
	<path class="st3" d="M164.3,58.1c0.9,5,1.8,10,2.7,15c-0.6,3.6-1.1,7.1-1.7,10.7c-1.7,2.2-3.3,4.4-5,6.7"/>
	<path class="st3" d="M160.7,57.8c1,1.9,2,3.8,3,5.7c0,3.4,0,6.9,0,10.3c-0.8,1.6-1.6,3.1-2.3,4.7c-0.9,1-1.8,2-2.7,3"/>
	<path class="st3" d="M212.3,123.4c-0.3,0.2-4.1,2.7-4.3,7.3c-0.1,3.4,1.7,6.6,4.7,8.3c0.9,1.1,2.1,2.4,3.7,3.7
		c3.7,2.8,7.5,3.7,9.7,4c-2-4.7-4-9.3-6-14C217.4,129.6,214.9,126.5,212.3,123.4z"/>
	<path class="st2" d="M211.3,73.7c-0.2-0.6-0.3-1.2-0.5-1.8c-0.2-1.2-0.5-2.4-0.7-3.5c-0.1-1-0.2-2-0.3-3c0-0.7-0.1-1.3-0.1-2
		c0.6,0.4,1.2,0.8,1.8,1.2c0.8,0.6,1.5,1.3,2.3,1.9c0.8,0.7,1.5,1.4,2.3,2.2c0.3,0.4,0.6,0.9,1,1.3l-3.6,0.3
		C212.6,71.5,211.9,72.6,211.3,73.7z"/>
	<polygon class="st1" points="147.3,121.8 140,133.8 145.3,134.4 139.3,144.4 145.3,145.1 139.3,153.1 159.3,147.1 152.7,144.4 
		158.7,143.8 152.7,135.8 157.3,135.8 	"/>
	<polygon class="st1" points="101.5,136.3 91.5,147.6 96.2,147.6 88.2,159.6 96.2,158.3 86.2,168.9 110.8,168.3 104.8,158.3 
		110.8,157.6 103.5,148.3 108.8,147.6 	"/>
	<polygon class="st1" points="118.2,141.6 110.2,152.9 116.2,154.3 110.2,162.3 125.5,161.6 121.5,153.6 125.5,152.3 	"/>
	<path class="st0" d="M180.2,238.1"/>
</g>
</svg>
