<?xml version="1.0" encoding="utf-8"?>
<!-- Generator: Adobe Illustrator 22.0.1, SVG Export Plug-In . SVG Version: 6.00 Build 0)  -->
<svg version="1.1" xmlns="http://www.w3.org/2000/svg" xmlns:xlink="http://www.w3.org/1999/xlink" x="0px" y="0px"
	 viewBox="0 0 400 300" style="enable-background:new 0 0 400 300;" xml:space="preserve">
<style type="text/css">
	.st0{fill:none;stroke:#FFFFFF;stroke-width:3;stroke-linecap:round;stroke-linejoin:round;stroke-miterlimit:10;}
	.st1{fill:none;stroke:#FFFFFF;stroke-width:2;stroke-miterlimit:10;}
	.st2{fill:none;stroke:#FFFFFF;stroke-width:2;stroke-linecap:round;stroke-linejoin:round;stroke-miterlimit:10;}
	.st3{fill:none;stroke:#FFFFFF;stroke-width:1.5;stroke-linecap:round;stroke-linejoin:round;stroke-miterlimit:10;}
	.st4{fill:none;stroke:#FFFFFF;stroke-linecap:round;stroke-linejoin:round;stroke-miterlimit:10;}
	.st5{fill:none;stroke:#FFFFFF;stroke-linecap:round;stroke-miterlimit:10;}
	.st6{fill:#FFFFFF;stroke:#FFFFFF;stroke-linecap:round;stroke-miterlimit:10;}
	.st7{fill:none;stroke:#FFFFFF;stroke-width:0.5;stroke-linecap:round;stroke-linejoin:round;stroke-miterlimit:10;}
	.st8{fill:#FFFFFF;stroke:#FFFFFF;stroke-width:0.75;stroke-linecap:round;stroke-linejoin:round;stroke-miterlimit:10;}
	.st9{fill:none;stroke:#FFFFFF;stroke-width:0.75;stroke-linecap:round;stroke-linejoin:round;stroke-miterlimit:10;}
</style>
<g id="Слой_1">
	<path class="st0" d="M111.6,177.8c-0.1-24.2-0.2-48.4-0.3-72.7c-0.1-0.4-0.1-1.4,0.4-2.6c0.5-1.1,1.3-1.6,1.7-1.8
		c0.7-0.1,1.4-0.2,2.1-0.2h104c1,0.2,2.1,0.4,3.1,0.6c0.4,0.2,1,0.5,1.5,1.2c0.7,0.8,0.9,1.7,0.9,2.1c0,23.6,0,47.2,0,70.8v3H99.1
		c0,1-0.1,2.1-0.1,3.1c0.1,0.7,0.3,1.6,0.7,2.5c0.4,1,0.8,1.7,1.2,2.3c0.4,0.4,0.9,0.8,1.3,1.2c43.6,0.2,87.1,0.4,130.7,0.7
		c0.6-0.3,1.2-0.7,1.8-1c0.4-0.3,1.2-0.9,1.8-1.8c0.7-1,0.9-2,0.9-2.6c0-1.4,0-2.9,0-4.3c-4.2,0-8.3,0-12.5,0"/>
	<path class="st1" d="M216.9,173.1h-98.2c-1.4,0-2.6-1.2-2.6-2.6v-62.7c0-1.4,1.2-2.6,2.6-2.6h98.2c1.4,0,2.6,1.2,2.6,2.6v62.7
		C219.5,171.9,218.3,173.1,216.9,173.1z"/>
	<path class="st2" d="M150.8,178.8c1.1,1.9,2.2,3.7,3.3,5.6l27.7,0.2c1.1-1.9,2.2-3.9,3.3-5.8"/>
	<path class="st3" d="M261.6,109.7c0,7.7,0,15.4-0.1,23.1l0.2,1.4l0.6,1.3l1,0.9l1,0.5h17.1c0.4-0.1,0.8-0.2,1.1-0.4
		c0.3-0.2,0.5-0.5,0.8-0.7c0.2-0.3,0.5-0.6,0.7-0.9c0.1-0.4,0.2-0.8,0.4-1.2l0.1-22.9v-0.9C276.8,109.7,269.2,109.7,261.6,109.7z"/>
	<path class="st3" d="M285.3,112.5l2.9,0.1c0.5,0,1,0.1,1.6,0.1c0.5,0.1,0.9,0.3,1.4,0.4c0.4,0.3,0.8,0.6,1.1,0.8
		c0.3,0.4,0.6,0.8,0.9,1.3c0.3,0.6,0.5,1.1,0.8,1.7c0.1,0.8,0.1,1.5,0.2,2.3v3.4l-0.1,5.1l-0.4,1.9l-1.4,1.8l-1.7,1l-2,0.4
		c-1.2,0-2.4,0-3.5-0.1"/>
	<path class="st4" d="M285.1,115.2l2.2,0c0.4,0,0.8,0,1.2,0c0.3,0.1,0.7,0.1,1,0.2c0.2,0.1,0.5,0.2,0.7,0.4c0.2,0.1,0.4,0.3,0.7,0.6
		c0.2,0.3,0.4,0.5,0.5,0.7c0.1,0.4,0.2,0.8,0.4,1.2c0,0.6,0.1,1.1,0.1,1.7v2.5l0,3.7l-0.3,1.4l-1,1.3l-1.3,0.7l-1.5,0.3
		c-0.9,0-1.8,0-2.7,0"/>
	<path class="st5" d="M276.5,109.7c0,3.2,0,6.4,0,9.6"/>
	<path class="st6" d="M275,119.5h3.1c0.2,0.5,0.5,1,0.7,1.5c0,1.1,0,2.2,0,3.3c-1.5,0-3,0-4.5,0c0-1.1,0-2.2,0-3.3L275,119.5z"/>
	<path class="st3" d="M297.3,176.5l-42.6,0.1c-0.5,0.1-1.2,0.3-2,0.6c-0.5,0.2-0.9,0.5-1.2,0.8c-0.2,0.2-0.6,0.5-0.8,1.1
		c-0.2,0.4-0.2,0.8-0.2,1.1c-0.1,0.3-0.1,0.7-0.1,1.2c0,0.5,0.1,0.9,0.2,1.2c0.1,0.3,0.4,0.6,0.8,1c0.5,0.4,0.9,0.7,1.3,0.9
		c0.2,0.1,0.6,0.4,1.1,0.5c0,0,0.5,0.2,1.1,0.2c0.9,0,18.6,0,42.7-0.2c0.3,0,1-0.1,1.8,0.1c0.5,0.1,0.9,0.3,1.1,0.5
		c0.1,0.2,0.2,0.4,0.3,0.6c0.2,0.7,0.2,1.4,0.1,1.8c0,0.2-0.1,0.6-0.4,0.9c-0.3,0.2-0.6,0.3-1.1,0.4c-0.3,0.1-0.8,0.1-1.4,0.1
		c-15.9-0.1-31.7-0.1-47.6-0.2c-0.5-0.1-1.1-0.3-1.7-0.6c-0.9-0.4-1.6-0.9-2.1-1.3c-0.5-0.4-0.9-0.8-1.4-1.3
		c-0.3-0.5-0.6-1.1-0.9-1.8c-0.2-0.5-0.3-1-0.4-1.4c0-1-0.1-1.9-0.1-2.9c0.1-0.8,0.3-1.8,1.1-3c0.7-1.1,1.6-1.8,2.1-2.2
		c0.8-0.6,1.5-1,2-1.3c0.5-0.3,1.2-0.6,1.9-0.8c0.3-0.1,0.6-0.2,0.8-0.3c15.2,0,30.4-0.1,45.6-0.1c0.4,0,0.8,0,1.4,0.1
		c0.3,0.1,1,0.2,1.4,0.7c0.2,0.3,0.3,0.5,0.3,0.9c0,0.4,0,0.7,0,1.1c0,0.2-0.1,0.5-0.5,0.9c-0.5,0.5-1.2,0.6-1.4,0.6
		C298.1,176.5,297.7,176.5,297.3,176.5z"/>
	<path class="st4" d="M295.4,176.6c-0.3,0.2-0.8,0.6-1.1,1.3c-0.3,0.6-0.4,1.1-0.5,1.4c-0.1,0.6-0.2,1.3-0.1,2.1
		c0.1,0.6,0.2,1.1,0.4,1.6c0.4,0.6,0.8,1.3,1.2,1.9"/>
	<line class="st7" x1="281.3" y1="178.8" x2="293.7" y2="178.7"/>
	<line class="st7" x1="285.9" y1="180.1" x2="293.4" y2="180"/>
	<line class="st7" x1="285.9" y1="181.3" x2="293.4" y2="181.2"/>
	<line class="st7" x1="283.2" y1="182.8" x2="293.8" y2="182.8"/>
	<line class="st7" x1="251.2" y1="179.7" x2="258.7" y2="179.7"/>
	<line class="st7" x1="251.3" y1="181.4" x2="254.9" y2="181.3"/>
	<path class="st3" d="M252.6,160.9l38.8,0.1c0.5,0.1,1.1,0.2,1.8,0.5c0.5,0.2,0.8,0.4,1.1,0.6c0.2,0.1,0.5,0.4,0.8,0.8
		c0.2,0.3,0.2,0.6,0.2,0.8c0.1,0.3,0.1,0.6,0.1,0.9c0,0.4-0.1,0.7-0.2,0.9c-0.1,0.2-0.3,0.5-0.7,0.8c-0.4,0.4-0.9,0.6-1.2,0.7
		c-0.2,0.1-0.5,0.3-1,0.4c0,0-0.5,0.1-1,0.1c-0.8,0-16.9,0-38.9-0.1c-0.3,0-0.9-0.1-1.6,0.1c-0.5,0.1-0.8,0.3-1,0.4
		c-0.1,0.1-0.2,0.3-0.2,0.5c-0.2,0.6-0.1,1.1,0,1.5c0,0.1,0,0.4,0.4,0.7c0.2,0.2,0.5,0.3,1,0.3c0.3,0.1,0.7,0.1,1.2,0.1
		c14.5,0,28.9-0.1,43.4-0.1c0.4-0.1,1-0.3,1.5-0.5c0.8-0.3,1.5-0.7,1.9-1c0.4-0.3,0.8-0.7,1.2-1c0.3-0.4,0.6-0.9,0.8-1.4
		c0.2-0.4,0.3-0.8,0.3-1.1c0-0.8,0-1.5,0.1-2.3c-0.1-0.6-0.3-1.5-1-2.4c-0.6-0.9-1.4-1.4-1.9-1.7c-0.7-0.5-1.4-0.8-1.9-1
		c-0.5-0.2-1-0.4-1.7-0.6c-0.3-0.1-0.5-0.1-0.8-0.2c-13.8,0-27.7-0.1-41.5-0.1c-0.3,0-0.8,0-1.2,0.1c-0.3,0.1-0.9,0.2-1.2,0.6
		c-0.2,0.2-0.3,0.4-0.3,0.7c0,0.3,0,0.6,0,0.8c0,0.1,0.1,0.4,0.4,0.7c0.5,0.4,1.1,0.5,1.2,0.5C251.9,160.9,252.3,160.9,252.6,160.9z
		"/>
	<path class="st4" d="M254.4,161c0.3,0.2,0.7,0.5,1,1c0.3,0.4,0.4,0.8,0.4,1.1c0.1,0.4,0.2,1,0.1,1.7c-0.1,0.5-0.2,0.9-0.3,1.2
		c-0.4,0.5-0.7,1-1.1,1.5"/>
	<line class="st7" x1="267.5" y1="162.7" x2="256.2" y2="162.6"/>
	<line class="st7" x1="263.2" y1="163.8" x2="256.3" y2="163.7"/>
	<line class="st7" x1="263.2" y1="164.7" x2="256.3" y2="164.7"/>
	<line class="st7" x1="265.4" y1="166" x2="255.8" y2="166"/>
	<line class="st7" x1="294.7" y1="163.5" x2="287.8" y2="163.4"/>
	<line class="st7" x1="294.6" y1="164.8" x2="291.3" y2="164.7"/>
	<path class="st3" d="M292.6,142.4l-34.3,0.1c-0.4,0.1-1,0.3-1.6,0.7c-0.4,0.3-0.7,0.6-1,0.8c-0.2,0.2-0.5,0.6-0.7,1.2
		c-0.2,0.5-0.2,0.9-0.2,1.2c0,0.4-0.1,0.8-0.1,1.3c0,0.5,0.1,1,0.2,1.3c0.1,0.3,0.3,0.7,0.6,1.1c0.4,0.5,0.8,0.8,1,1
		c0.2,0.2,0.5,0.4,0.8,0.6c0,0,0.4,0.2,0.9,0.2c0.7,0,15,0,34.4-0.2c0.3,0,0.8-0.1,1.4,0.1c0.4,0.2,0.7,0.4,0.9,0.6
		c0.1,0.2,0.1,0.4,0.2,0.7c0.2,0.8,0.1,1.5,0,2c0,0.2,0,0.6-0.3,1c-0.2,0.3-0.5,0.3-0.8,0.5c-0.2,0.1-0.6,0.2-1.1,0.1
		c-12.8-0.1-25.5-0.1-38.3-0.2c-0.4-0.2-0.9-0.4-1.3-0.7c-0.7-0.5-1.3-1-1.7-1.4c-0.4-0.5-0.7-0.9-1.1-1.4c-0.3-0.5-0.5-1.2-0.7-2
		c-0.2-0.6-0.2-1.1-0.3-1.6c0-1.1,0-2.1-0.1-3.2c0.1-0.8,0.2-2,0.8-3.3c0.6-1.2,1.3-2,1.7-2.4c0.6-0.6,1.2-1.1,1.6-1.4
		c0.4-0.3,0.9-0.6,1.5-0.9c0.2-0.1,0.5-0.2,0.7-0.3c12.2,0,24.4-0.1,36.6-0.1c0.3,0,0.7,0,1.1,0.1c0.3,0.1,0.8,0.3,1.1,0.8
		c0.2,0.3,0.2,0.6,0.2,1c0,0.4,0,0.8,0,1.2c0,0.2-0.1,0.6-0.4,1c-0.4,0.6-1,0.7-1.1,0.7C293.2,142.4,292.9,142.4,292.6,142.4z"/>
	<path class="st4" d="M291.1,142.6c-0.2,0.2-0.6,0.7-0.9,1.4c-0.3,0.6-0.3,1.2-0.4,1.5c-0.1,0.6-0.1,1.4-0.1,2.3
		c0.1,0.7,0.2,1.2,0.3,1.7c0.3,0.7,0.6,1.4,1,2.1"/>
	<line class="st7" x1="279.1" y1="144.9" x2="289.1" y2="144.8"/>
	<line class="st7" x1="282.8" y1="146.4" x2="288.9" y2="146.3"/>
	<line class="st7" x1="282.9" y1="147.8" x2="288.9" y2="147.7"/>
	<line class="st7" x1="280.9" y1="149.5" x2="289.4" y2="149.4"/>
	<line class="st7" x1="255.4" y1="146" x2="261.5" y2="145.9"/>
	<line class="st7" x1="255.6" y1="147.9" x2="258.5" y2="147.8"/>
	<ellipse class="st8" cx="243.9" cy="93.4" rx="3.6" ry="3.9"/>
	<circle class="st8" cx="238.5" cy="113.5" r="3.3"/>
	<circle class="st8" cx="223.3" cy="72.3" r="3.3"/>
	<circle class="st8" cx="269" cy="52" r="3.3"/>
	<ellipse class="st8" cx="175" cy="53.8" rx="4" ry="4.3"/>
	<circle class="st8" cx="162" cy="86.8" r="3.3"/>
	<circle class="st8" cx="301" cy="92.8" r="3.3"/>
	<circle class="st8" cx="130" cy="73.3" r="3.3"/>
	<line class="st9" x1="132.5" y1="70.5" x2="171" y2="54.8"/>
	<polyline class="st9" points="177.5,54.8 220,72.3 165.3,86.8 240.5,93.3 243.8,96.5 238.5,112 302.5,90.5 269,55.3 226.5,72.3 
		243.8,90 	"/>
	<polyline class="st9" points="133.3,73.3 158.8,86.8 162,83.5 174.3,58 174.3,51.5 265.8,52 269,55.3 247,93.3 299.3,93.8 	"/>
	<circle class="st8" cx="104" cy="96.8" r="3.3"/>
	<circle class="st8" cx="315" cy="54.5" r="3.3"/>
	<circle class="st8" cx="238" cy="144.5" r="3.3"/>
	<circle class="st8" cx="220.5" cy="27" r="3.3"/>
	<polyline class="st9" points="175,53.5 220.5,27 315,54.5 	"/>
	<polyline class="st9" points="130,73.3 104,96.8 162,86.8 201.5,100.5 	"/>
	<polyline class="st9" points="113.3,100.8 104,96.8 72.3,161.5 	"/>
	<polyline class="st9" points="225,137 238,144.5 238.5,113.5 223.5,108.5 	"/>
	<polyline class="st9" points="261.5,127 238,144.5 225,131.5 	"/>
	<line class="st9" x1="162" y1="86.8" x2="182" y2="100"/>
	<circle class="st8" cx="325" cy="19.5" r="3.3"/>
	<path class="st9" d="M284.4,110.5l16.6-18l14-38L269,52l-50-25.5l106-7c-3.1,11.4-6.3,22.7-9.4,34.1"/>
	<circle class="st8" cx="72.3" cy="161.5" r="3.3"/>
	<line class="st9" x1="72.3" y1="161.5" x2="111" y2="153"/>
	<line class="st9" x1="238" y1="144.5" x2="224.5" y2="146.5"/>
</g>
<g id="Слой_2">
</g>
</svg>
