<?xml version="1.0" encoding="utf-8"?>
<!-- Generator: Adobe Illustrator 22.0.1, SVG Export Plug-In . SVG Version: 6.00 Build 0)  -->
<svg version="1.1" id="Слой_1" xmlns="http://www.w3.org/2000/svg" xmlns:xlink="http://www.w3.org/1999/xlink" x="0px" y="0px"
	 viewBox="0 0 1728 1296" style="enable-background:new 0 0 1728 1296;" xml:space="preserve">
<style type="text/css">
	.st0{opacity:0.8;}
	.st1{fill:none;stroke:#E6E6E6;stroke-width:25;stroke-miterlimit:10;}
	.st2{fill:#FFFFFF;}
</style>
<g class="st0">
	<polygon class="st1" points="904.9,764 992.2,838.5 1103.3,827.3 1196.2,715.8 	"/>
	<g>
		<polygon class="st1" points="871.3,612.3 874.8,754.6 961.6,828.8 1071.9,817.4 898.8,640.3 		"/>
	</g>
	<polygon class="st1" points="1048.5,615.3 901.7,639.1 1006.5,739.8 1157,718.6 	"/>
	<g>
		<polygon class="st1" points="940.6,520.4 903.4,633.8 1049.9,617.7 		"/>
	</g>
	<g>
		<polygon class="st1" points="1084.4,512.4 964.6,539.6 1049.5,618.7 1161.7,601.2 		"/>
	</g>
	<g>
		<polygon class="st1" points="1193.8,606 1157.8,715.5 1049.5,618.7 		"/>
	</g>
	<polygon class="st1" points="1146.1,472.1 1120.9,407 1065.4,446.4 1088.2,493.9 	"/>
	<polygon class="st1" points="1174.3,492.4 1085.2,510.3 1162.4,595.9 	"/>
	<polygon class="st1" points="1031.2,446.8 974.9,531.2 1086,507.8 	"/>
</g>
<g class="st0">
	<polygon class="st1" points="649.7,782.3 750.9,771 805.3,690.5 779,559.5 	"/>
	<g>
		<polygon class="st1" points="524.4,709.8 626.2,796.3 726.9,785.3 780.7,705.1 559.4,709.1 		"/>
	</g>
	<polygon class="st1" points="625.7,594.5 560.2,706.4 689.6,699.9 759.1,587.1 	"/>
	<g>
		<polygon class="st1" points="498.6,606.6 557.4,702 628.2,594.9 		"/>
	</g>
	<g>
		<polygon class="st1" points="573.7,506.4 525.7,602.7 628.7,595.8 679.3,510.7 		"/>
	</g>
	<g>
		<polygon class="st1" points="700.7,492.5 757.4,584.7 628.7,595.8 		"/>
	</g>
	<polygon class="st1" points="579.8,440.5 520.1,416.5 516.7,477.8 562.8,492.4 	"/>
	<polygon class="st1" points="610,434.5 572.6,504.6 676,507 	"/>
	<polygon class="st1" points="497.8,500.6 525.5,590.6 571.3,502.6 	"/>
</g>
<g>
	<path class="st2" d="M185.1,981.3h-56L70.9,738.4c-8.7-3.8-16.4-8.8-20-14.3l3.6-34.9h84l3.6,34.9c-4,5.5-11.3,10.5-19.6,13.9
		l25.8,123.9c7.3,35.3,9.8,60.5,9.8,60.5h5.1c0,0,0.4-24.8,6.9-59.7l32.7-170.6h55.6L291.2,862c6.9,35.3,8.7,60.9,8.7,60.9h5.1
		c0,0,0.7-25.6,8.7-60.1l28.8-123.1c-9.1-3.8-17.1-9.2-21.1-15.5l3.6-34.9h80.3l3.6,34.9c-4.7,6.7-14.2,12.6-24.4,16.4l-61.1,240.7
		h-57.1l-29.4-158.8c-6.5-35.7-8.4-64.3-8.4-64.3h-5.1c0,0-1.5,29-8,63.9L185.1,981.3z"/>
	<path class="st2" d="M414.5,838c-4.7-10.9-7.3-30.2-5.8-51.3c18.2-11.3,47.3-21,77.1-21c44.4,0,68.3,19.3,68.3,73.5v89.5
		c7.3,1.7,14.2,3.8,20,7.1v36.5c0,0-18.5,10.1-53.1,10.1c0,0-3.6-10.9-6.2-26.5c-6.2,10.5-21.4,26.5-56.7,26.5
		c-30.5,0-58.9-21-58.9-61.8c0-34.9,20-59.7,64.3-59.7h39.7v-20.2c0-21.8-9.8-32.8-30.2-32.8c-6.9,0-12.4,0.4-18.5,2.5
		c-0.4,8.4-2.2,21.4-4.4,27.3h-35.6L414.5,838L414.5,838z M503.2,927.1v-34.4h-25.4c-18.2,0-26.2,8.8-26.2,23.1
		c0,13.4,7.3,23.9,22.2,23.9C489,939.7,498.8,932.1,503.2,927.1z"/>
	<path class="st2" d="M586.4,680.9c18.9-5,46.9-6.3,67.3-4.2v255.8c8.4,3.8,16,8.8,20,14.3l-3.6,32.3h-83.6l-3.6-32.3
		c3.6-5.5,11.3-10.5,20-14.3v-205c-8.4-3.4-15.3-8.4-20-14.3L586.4,680.9z"/>
	<path class="st2" d="M783.1,680.9c18.9-5,51.6-6.3,72-4.2v252.1c7.3,1.3,14.2,3.8,20,7.1v33.2c-15.6,9.7-37.1,13.4-55.3,13.4
		c-4.7-2.5-10.2-11.3-10.9-18.1c-10.2,10.1-28.7,18.1-45.8,18.1c-52,0-74.5-29.8-74.5-105c0-87.4,42.5-111.7,85.1-111.7
		c11.6,0,21.4,1.7,30.5,4.2v-41.6c-10.5-3.4-19.6-8.8-24.7-15.1L783.1,680.9z M804.2,925.4V812.8c-10.5-2.9-20.7-4.2-29.8-4.2
		c-26.2,0-33.4,26.5-33.4,66.4c0,48.7,10.2,64.7,29.8,64.7C784.9,939.7,795.5,935.1,804.2,925.4z"/>
	<path class="st2" d="M882.7,680.9c18.9-5,46.9-6.3,67.3-4.2v105c9.5-8,28.7-16,44.7-16c53.4,0,71.6,28.6,71.6,103.8
		c0,87.4-44.4,113-84.3,113c-16.4,0-35.3-6.3-48.7-14.3c-3.6,5.9-9.5,10.9-16,10.9h-18.2V727.5c-8.4-3.4-15.3-8.4-20-14.3
		L882.7,680.9z M950,932.5c10.2,4.6,20.4,7.1,29.1,7.1c26.2,0,34.9-27.7,34.9-67.6c0-48.7-7.3-61.3-26.9-61.3
		c-15.3,0-28.7,5.9-37.1,13.9V932.5z"/>
	<path class="st2" d="M1238.7,956.1c0,0-17.8,26.5-65.8,26.5c-58.5,0-87.6-37.4-87.6-105c0-86.1,45.4-111.7,88-111.7
		c40.4,0,69.4,18.1,69.4,91.6c0,19.3-8,30.2-25.8,30.2H1138c2.2,35.3,14.9,48.3,44.7,48.3c27.6,0,45.1-13.4,45.1-13.4L1238.7,956.1z
		 M1138.3,852.7l57.4-2.5c4-26-6.2-41.6-25.4-41.6C1152.1,808.6,1141.6,819.5,1138.3,852.7z"/>
	<path class="st2" d="M1386.3,822c-4.7-0.8-10.2-1.3-16-1.3c-14.9,0-30.9,3.8-38.2,12.2v96.2c16,3.4,33.1,10.1,40.4,17.6l-3.6,32.3
		h-104l-3.6-32.3c3.6-5.5,11.3-10.5,20-14.3V815.7c-8.4-3.4-15.3-8.4-20-14.3l3.6-32.3c18.9-5,42.2-6.3,62.5-4.2v26.5
		c10.9-14.7,29.4-26,47.6-26c4.7,0,9.1,0.4,12.4,2.1L1386.3,822z"/>
	<path class="st2" d="M1448.8,993.9c2.5,5.5,4.7,14.3,5.8,23.5c8.4,3.8,18.5,6.3,31.3,6.3c23.6,0,32.4-19.3,32.4-44.9v-18.5
		c-11.3,8-27.3,12.6-44.7,12.6c-42.9,0-70.9-24.8-70.9-100c0-87.4,42.5-107.1,85.1-107.1c16,0,29.8,4.6,40.7,10.9
		c1.8-3.8,6.5-7.6,10.9-7.6h29.8v206.7c0,61.8-25.8,90.7-81.1,90.7c-28.4,0-64-8.4-80.3-20.6c-1.1-16.4,3.3-38.6,9.1-52.1
		L1448.8,993.9L1448.8,993.9z M1518.2,915.3v-99.6c-10.2-5-21.1-7.1-29.8-7.1c-26.2,0-35.6,21.8-35.6,61.8
		c0,44.1,10.9,56.7,30.5,56.7C1496,927.1,1509.5,922.5,1518.2,915.3z"/>
</g>
<path class="st1" d="M0,68.8"/>
</svg>
