<?xml version="1.0" encoding="utf-8"?>
<!-- Generator: Adobe Illustrator 22.0.1, SVG Export Plug-In . SVG Version: 6.00 Build 0)  -->
<svg version="1.1" id="Слой_1" xmlns="http://www.w3.org/2000/svg" xmlns:xlink="http://www.w3.org/1999/xlink" x="0px" y="0px"
	 viewBox="0 0 586 885" style="enable-background:new 0 0 586 885;" xml:space="preserve">
<style type="text/css">
	.st0{opacity:0.4;}
	.st1{fill:none;stroke:#222121;stroke-width:40;stroke-miterlimit:10;}
</style>
<g class="st0">
	<path class="st1" d="M197.1,52.4L71.3,156.8L59.2,281.5l84.9,98L197.1,52.4z"/>
	<path class="st1" d="M284.2,386.2L82.7,192.1L70.3,316l84.6,97.3l161.3,3.7L284.2,386.2z"/>
	<path class="st1" d="M194.1,96.3l-23.2,169l114.7,117.5L311.7,218L194.1,96.3z"/>
	<path class="st1" d="M309.2,216.4L291.6,381L420,339.1L309.2,216.4z"/>
	<path class="st1" d="M327.2,90.9l-19.3,126l90.1,95.2l30.3-134.6L327.2,90.9z"/>
	<path class="st1" d="M307.8,216.9L197.6,95.3l124-40.6L307.8,216.9z"/>
	<path class="st1" d="M449.2,173.3l54,25.6l44.3-62.4l-73.8-28.2L449.2,173.3z"/>
	<path class="st1" d="M333.2,90.2l97.6,86.5l19.8-100.2L333.2,90.2z"/>
	<path class="st1" d="M433.3,175.8l-25.9,124.7l95.4-63.3L433.3,175.8z"/>
	<path class="st1" d="M348.8,461.2l-183.1-34.3L52.6,504.1L35.9,645.3L348.8,461.2z"/>
	<path class="st1" d="M137.5,769.8l7.5-308.4L32.4,537.7L16.2,678.2l120.2,140.4L137.5,769.8z"/>
	<path class="st1" d="M310,489.5l-158.4,98.7l-10.2,180.4l157.2-93.2L310,489.5z"/>
	<path class="st1" d="M297.8,672L147.5,772.5l133,80.2L297.8,672z"/>
	<path class="st1" d="M416.2,599.3l-119.6,71.9l-10.5,143.7l135.2-68.6L416.2,599.3z"/>
	<path class="st1" d="M296.6,671.2l16.8-179.4L442,569.2L296.6,671.2z"/>
	<path class="st1" d="M440.7,761.3l20,64.1l85.8-6l-33-82.8L440.7,761.3z"/>
	<path class="st1" d="M421.3,603.9l2.5,144.1l98.5-53.3L421.3,603.9z"/>
	<path class="st1" d="M426.7,749.6L303.1,815l125.6,37L426.7,749.6z"/>
</g>
</svg>
