<svg width="33" height="23" viewBox="0 0 33 23" fill="none" xmlns="http://www.w3.org/2000/svg">
<path d="M3.80769 0C3.41602 0 3.04913 0.0709293 2.69712 0.174958L6.39573 2.42105H26.6043L30.3029 0.174958C29.9509 0.0709293 29.584 0 29.1923 0H3.80769ZM1.41301 0.832237C0.555288 1.49897 0 2.50144 0 3.63158V19.3684C0 21.3686 1.71049 23 3.80769 23H29.1923C31.2895 23 33 21.3686 33 19.3684V3.63158C33 2.50144 32.4447 1.49897 31.587 0.832237L16.5 9.98684L1.41301 0.832237ZM3.80769 6.55387L16.5 14.2615L29.1923 6.55387V20.5789H3.80769V6.55387Z" fill="white"/>
</svg>
