<svg width="20" height="21" viewBox="0 0 20 21" fill="none" xmlns="http://www.w3.org/2000/svg">
<path d="M18.1818 0H1.81818C0.813636 0 0 0.854318 0 1.90909V19.0909C0 20.1457 0.813636 21 1.81818 21H18.1818C19.1864 21 20 20.1457 20 19.0909V1.90909C20 0.854318 19.1864 0 18.1818 0ZM10 15.6355C10 17.3317 9.00909 18.2824 7.36364 18.2824C5.73818 18.2824 4.70273 17.2849 4.70273 15.6717H6.46364C6.46818 16.2702 6.80818 16.6482 7.33364 16.6482C7.87364 16.6482 8.16364 16.2912 8.16364 15.6192V10.4981H10V15.6355ZM14.9827 18.2824C13.1564 18.2824 12.0073 17.3794 11.9764 15.919H13.7273C13.7718 16.4707 14.2964 16.822 15.0573 16.822C15.7427 16.822 16.2136 16.4755 16.2136 15.9762C16.2136 15.5562 15.8982 15.33 15.0727 15.1572L14.1227 14.9577C12.8018 14.6952 12.1218 13.9392 12.1218 12.747C12.1218 11.2655 13.2527 10.2938 14.9927 10.2938C16.6836 10.2938 17.8536 11.255 17.8836 12.6573H16.1882C16.1482 12.1218 15.6627 11.7485 15.0164 11.7485C14.3718 11.7485 13.9473 12.0693 13.9473 12.5733C13.9473 12.9885 14.2673 13.23 15.0273 13.3875L15.9564 13.5765C17.3827 13.8657 18.0227 14.5425 18.0227 15.7452C18.0236 17.3269 16.8736 18.2824 14.9827 18.2824Z" fill="#FFFAFA"/>
</svg>
