<svg width="30" height="30" xmlns="http://www.w3.org/2000/svg">

 <g>
  <title>background</title>
  <rect fill="none" id="canvas_background" height="402" width="582" y="-1" x="-1"/>
 </g>
 <g>
  <title>Layer 1</title>
  <path fill="#ffffff" stroke="null" id="svg_2" fill-rule="evenodd" d="m24.747538,20.807457c0.621481,0.270303 0.879309,0.796271 0.994754,1.403232c0.124104,0.647946 0.314589,1.253932 0.797535,1.728181c0.064457,0.062453 0.110635,0.146373 0.160661,0.224439c0.594543,0.916297 0.458895,1.563267 -0.471402,2.109728c-0.416565,0.245907 -0.857182,0.449854 -1.287215,0.669414c-0.648418,0.329828 -1.216986,0.752359 -1.698008,1.315408c-0.61186,0.71235 -1.359369,1.225633 -2.30121,1.404208c-1.126554,0.213705 -2.116498,-0.285916 -2.59752,-1.353465c-0.102939,-0.228342 -0.219346,-0.297626 -0.461781,-0.310311c-0.59743,-0.036105 -1.194859,-0.097582 -1.787479,-0.186382c-1.043818,-0.156132 -2.046268,0.104413 -3.063149,0.255665c-0.402135,0.059525 -0.682089,0.194189 -0.948576,0.541581c-0.525276,0.684051 -1.319925,0.859699 -2.120346,0.752359c-0.64938,-0.087824 -1.316077,-0.253714 -1.904848,-0.535726c-0.858144,-0.407894 -1.746111,-0.596227 -2.669673,-0.697713c-0.349222,-0.038057 -0.700368,-0.085872 -1.042856,-0.160035c-0.926449,-0.203947 -1.366103,-0.813836 -1.11982,-1.735988c0.202991,-0.760166 0.230891,-1.484226 0.134686,-2.260004c-0.137572,-1.107558 0.193371,-1.627672 1.277595,-1.939935c0.867764,-0.249811 1.197745,-1.011928 1.728794,-1.587663c0.041368,-0.045864 0.033672,-0.152228 0.026937,-0.228342c-0.151041,-1.503742 0.291499,-2.875748 0.91298,-4.202867c0.681127,-1.453975 1.594108,-2.756698 2.584051,-4.008678c1.076528,-1.361272 1.512334,-2.927467 1.402661,-4.661503c-0.081774,-1.30565 -0.191447,-2.613252 0.118331,-3.909144c0.404059,-1.697931 1.554664,-2.775239 3.265179,-2.939177c0.730192,-0.070259 1.496941,-0.101486 2.207892,0.043912c1.661451,0.337635 2.448403,1.574001 2.819752,3.145075c0.291499,1.233439 0.329019,2.491274 0.275145,3.747158c-0.052912,1.211971 0.222232,2.30782 0.941841,3.277787c0.51758,0.697713 1.085186,1.357369 1.570056,2.077526c0.608012,0.905563 1.225645,1.815029 1.707629,2.790852c0.802345,1.622792 1.108275,3.242657 0.547403,5.230407zm-13.169426,3.665188c0.418489,0.714302 0.896625,1.291989 1.68935,1.568146c1.767276,0.617695 3.376776,0.243956 4.902578,-0.722108c0.170282,-0.106365 0.346336,-0.323973 0.38097,-0.514258c0.161623,-0.9202 0.276107,-1.850159 0.405983,-2.779142c0.121218,-0.871409 0.29631,-1.711592 1.17658,-2.16535c0.076002,-0.040009 0.113521,-0.181503 0.143345,-0.282013c0.161623,-0.535726 0.421375,-0.793344 0.953386,-0.709423c1.062097,0.167841 2.116498,0.407894 2.479188,1.72135c0.217422,-0.365933 0.107749,-0.680148 -0.119294,-0.915321c-0.257828,-0.268351 -0.557986,-0.525968 -0.887967,-0.684051c-0.419451,-0.198092 -0.568568,-0.392281 -0.530086,-0.918249c0.1318,-1.797465 -0.693634,-3.227044 -1.876949,-4.481952c-0.025013,-0.026347 -0.071191,-0.034154 -0.107749,-0.049767c1.202556,1.443241 1.998166,2.97821 1.436332,4.931806c-0.631101,-0.047815 -0.63976,-0.045864 -0.69652,-0.325925c-0.236663,-1.166108 -0.705179,-2.239512 -1.220834,-3.301207c-0.42811,-0.887022 -0.808117,-1.802344 -1.165036,-2.720592c-0.312664,-0.804078 -0.563758,-1.63743 -0.835055,-2.435652c-0.29631,0.198092 -0.574341,0.407894 -0.873536,0.58159c-0.379046,0.21956 -0.780218,0.396184 -1.159264,0.615744c-0.959158,0.552315 -1.738414,0.478153 -2.577317,-0.253714c-0.229929,-0.201995 -0.48487,-0.37374 -0.78118,-0.598179c-0.143345,1.539848 -0.65419,2.867942 -1.225645,4.178471c-0.25879,0.592324 -0.521428,1.181721 -0.791763,1.767214c-0.511808,1.10951 -0.78599,2.279521 -0.891815,3.583219c-0.460819,-0.676245 -0.588771,-1.343707 -0.543555,-2.054106c0.057723,-0.918249 0.38578,-1.749649 0.804269,-2.551775c0.158737,-0.305432 0.299196,-0.617695 0.449275,-0.928983c-0.028861,-0.013662 -0.058685,-0.026347 -0.087546,-0.040009c-0.662849,1.061695 -1.262202,2.157543 -1.502713,3.407571c-0.313626,1.627672 0.219346,2.699124 1.615273,3.539307c0.876422,0.525968 1.676843,1.170011 2.148245,2.127293c0.380008,0.76602 0.134686,1.242222 -0.710951,1.410063zm-1.845201,3.981355c0.811003,-0.061477 1.392078,-0.171745 1.724946,-0.773827c0.332867,-0.600131 0.222232,-1.183672 -0.134686,-1.730133c-0.225118,-0.346417 -0.487757,-0.669414 -0.714799,-1.015831c-0.425224,-0.651849 -0.841789,-1.311505 -1.252582,-1.972137c-0.29631,-0.478153 -0.537783,-0.995339 -0.872574,-1.441289c-0.497377,-0.663559 -1.357445,-0.966064 -2.012597,0.070259c-0.355956,0.564025 -0.827358,0.9202 -1.462308,1.115365c-0.659962,0.201995 -0.839865,0.598179 -0.785028,1.303699c0.040406,0.533775 0.119294,1.101703 -0.007696,1.605228c-0.293424,1.164156 -0.098129,1.535944 1.078452,1.657922c1.067869,0.11222 2.109763,0.283964 3.090087,0.794319c0.463705,0.240052 1.019767,0.29665 1.348786,0.386426zm10.849937,-7.566526c-0.156813,0.201995 -0.355956,0.37374 -0.441578,0.592324c-0.135648,0.339586 -0.246283,0.709423 -0.275145,1.071453c-0.092356,1.128051 -0.200105,2.247319 -0.577227,3.321699c-0.076964,0.21956 -0.121218,0.449854 -0.162586,0.678196c-0.128914,0.701616 -0.060609,1.355417 0.528162,1.841377c0.580113,0.482056 1.244885,0.497669 1.878873,0.186382c0.465629,-0.226391 0.937031,-0.524017 1.284329,-0.905563c0.615708,-0.676245 1.331469,-1.166108 2.140549,-1.549606c0.31074,-0.146373 0.617633,-0.312263 0.900474,-0.507428c0.326133,-0.224439 0.389628,-0.489863 0.21646,-0.851893c-0.114483,-0.236149 -0.255904,-0.472298 -0.430996,-0.667462c-0.30593,-0.341538 -0.464667,-0.739673 -0.558948,-1.177817c-0.059647,-0.272254 -0.12218,-0.549388 -0.234739,-0.800174c-0.267448,-0.605986 -1.03997,-0.739673 -1.566208,-0.35032c-0.334791,0.247859 -0.724419,0.447902 -1.117896,0.58159c-0.500263,0.171745 -0.940879,-0.028299 -1.199669,-0.493766c-0.154889,-0.277134 -0.239549,-0.5933 -0.383856,-0.968992zm-6.043563,-10.226617c0.149117,-0.040009 0.414641,-0.066356 0.641684,-0.1776c0.588771,-0.280061 1.16215,-0.594276 1.737452,-0.903611c0.107749,-0.057574 0.205878,-0.137591 0.298234,-0.21956c0.617633,-0.55817 0.518542,-1.177817 -0.234739,-1.515452c-0.539707,-0.240052 -1.076528,-0.484008 -1.610462,-0.737722c-0.702292,-0.329828 -1.381496,-0.348369 -2.019331,0.146373c-0.410793,0.318118 -0.811965,0.649898 -1.212176,0.981677c-0.239549,0.19614 -0.29631,0.445951 -0.17413,0.737722c0.193371,0.459612 1.744187,1.608155 2.245412,1.659874c0.072153,0.009758 0.145269,0.013662 0.328057,0.028299zm2.07513,-3.287545c0.142383,0.062453 0.25398,0.101486 0.352108,0.160035c0.324209,0.19614 0.542593,0.064404 0.60224,-0.26152c0.087546,-0.485959 0.204915,-0.993387 0.142383,-1.47154c-0.102939,-0.798223 -0.69171,-1.341756 -1.306456,-1.373958c-0.73885,-0.036105 -1.353596,0.583542 -1.487321,1.493984c-0.102939,0.699665 -0.08466,0.726012 0.587809,0.886047c0.072153,-0.291771 0.100053,-0.605986 0.233777,-0.863603c0.086584,-0.167841 0.329981,-0.354223 0.497377,-0.348369c0.167396,0.003903 0.393476,0.205898 0.479098,0.379595c0.225118,0.454733 0.149117,0.923128 -0.101015,1.399329zm4.510064,13.026251c0.023089,0.390329 0.104863,0.819691 0.523352,1.019734c0.397324,0.192237 0.754243,-0.022444 1.07749,-0.26152c0.07985,-0.059525 0.153927,-0.131736 0.218384,-0.20785c0.229929,-0.268351 0.227042,-0.589397 -0.061571,-0.791392c-0.26841,-0.188334 -0.572416,-0.348369 -0.882195,-0.453757c-0.585885,-0.197116 -0.879309,0.039033 -0.87546,0.694785zm-7.786788,-13.478057c0.192409,-0.15418 0.491605,-0.276158 0.508921,-0.432289c0.065419,-0.579638 -0.082736,-1.131954 -0.526238,-1.549606c-0.387704,-0.363982 -0.850447,-0.30836 -1.186201,0.118074c-0.539707,0.6821 -0.452161,1.997508 0.188561,2.637648c0.108711,-0.081969 0.220308,-0.16589 0.340564,-0.257617c-0.317475,-0.354223 -0.38097,-0.760166 -0.286689,-1.170011c0.040406,-0.173696 0.232815,-0.30836 0.355956,-0.461564c0.139496,0.120026 0.326133,0.215657 0.405021,0.367885c0.104863,0.202971 0.126028,0.448878 0.200105,0.74748z" clip-rule="evenodd"/>
  <path id="svg_3" fill-rule="evenodd" d="m12.789,10.696c0.083,0.07 0.167,0.137 0.247,0.211c0.788,0.73 1.405,0.816 2.355,0.314c0.274,-0.145 0.537,-0.313 0.811,-0.461c0.101,-0.053 0.218,-0.078 0.343,-0.07c-0.781,0.41 -1.452,1.1 -2.443,0.963c-0.592,-0.082 -0.998,-0.461 -1.385,-0.861c0.024,-0.031 0.048,-0.063 0.072,-0.096z" clip-rule="evenodd"/>
 </g>
</svg>