<svg xmlns="http://www.w3.org/2000/svg" viewBox="0 0 244.71 62.75"><defs><style>.cls-1{fill:#4a000a;}.cls-2{fill:#fff;}</style></defs><title>Ресурс 1</title><g id="Слой_2" data-name="Слой 2"><g id="Слой_1-2" data-name="Слой 1"><rect class="cls-1" x="181.96" width="62.75" height="62.75"/><path class="cls-2" d="M0,41a2.12,2.12,0,0,1,2.16-2.26,2.27,2.27,0,0,1,0,4.53A2.12,2.12,0,0,1,0,41Z"/><path class="cls-2" d="M31.76,26.1,25.52,42.9h-1.8L19.24,32.41,14.77,42.9H12.9L7.07,26.1H9.88l3.43,10.15c.14.43.28.87.41,1.33s.24.89.36,1.31c.14-.42.3-.85.46-1.31s.35-.91.54-1.36l3-7.22h2.43l3,7.2c.39.94.71,1.82,1,2.61.11-.41.24-.85.38-1.3s.3-.92.46-1.38L29,26.1Z"/><path class="cls-2" d="M48.71,42.9l-1.8-4H38.29l-1.8,4H33.8l7.44-16.8H44.1l7.42,16.8ZM41.29,32.05,39.4,36.37h6.4L43.86,32c-.45-1-.87-2.05-1.27-3.17-.21.6-.42,1.16-.64,1.71S41.52,31.55,41.29,32.05Z"/><path class="cls-2" d="M68.84,40.4v2.5H56.51V26.1H59.1V40.4Z"/><path class="cls-2" d="M82.55,26.1a10.07,10.07,0,0,1,3.79.65,7.53,7.53,0,0,1,4.39,4.52,9.33,9.33,0,0,1,.55,3.23,9,9,0,0,1-1,4.21,7.38,7.38,0,0,1-2.93,3,9.27,9.27,0,0,1-4.82,1.15H74.89V26.1Zm-.12,14.3a6.86,6.86,0,0,0,3.51-.8,5,5,0,0,0,2-2.14,6.86,6.86,0,0,0,.63-3,6.79,6.79,0,0,0-.63-2.93,5,5,0,0,0-2-2.16,6.66,6.66,0,0,0-3.51-.82h-5V40.4Z"/><path class="cls-2" d="M105.2,26.1a7.24,7.24,0,0,1,4.31,1.07A3.69,3.69,0,0,1,111,30.32a3.52,3.52,0,0,1-.61,2,3.83,3.83,0,0,1-1.79,1.38,6.15,6.15,0,0,1,1.62.81,4,4,0,0,1,1.22,1.37,4.27,4.27,0,0,1,.45,2,4.8,4.8,0,0,1-.55,2.43,4.21,4.21,0,0,1-1.45,1.51,6.17,6.17,0,0,1-2,.78,10.88,10.88,0,0,1-2.2.23H97V26.1Zm-.07,2.49H99.59V33h5.83a3.67,3.67,0,0,0,2-.6,1.83,1.83,0,0,0,.87-1.63,1.73,1.73,0,0,0-.92-1.67A4.88,4.88,0,0,0,105.13,28.59Zm.41,6.89h-6V40.4h6.07a4.92,4.92,0,0,0,2.56-.61,2.07,2.07,0,0,0,1-1.89,1.92,1.92,0,0,0-.56-1.46,3.28,3.28,0,0,0-1.42-.75A7,7,0,0,0,105.54,35.48Z"/><path class="cls-2" d="M117.56,26.1H130v2.49h-9.86V33h8.54v2.5h-8.54V40.4H130v2.5H117.56Z"/><path class="cls-2" d="M150.49,31.35a4.82,4.82,0,0,1-1,3,5.58,5.58,0,0,1-2.62,1.93l4.49,6.63-3.19,0-4.2-6.25H139V42.9h-2.59V26.1h8.64a5.37,5.37,0,0,1,2.64.67,5.43,5.43,0,0,1,2,1.85A4.88,4.88,0,0,1,150.49,31.35Zm-6-2.76H139v5.57h5.76a2.84,2.84,0,0,0,1.51-.4,3,3,0,0,0,1.07-1,2.58,2.58,0,0,0,.4-1.39,2.32,2.32,0,0,0-.46-1.42,3,3,0,0,0-1.2-1A3.81,3.81,0,0,0,144.49,28.59Z"/><path class="cls-2" d="M165.52,26a11,11,0,0,1,3,.41,9.93,9.93,0,0,1,2.49,1.06,6.72,6.72,0,0,1,1.69,1.39l-1.68,1.82a10.52,10.52,0,0,0-2.54-1.56,7.51,7.51,0,0,0-3-.6,7.64,7.64,0,0,0-3.53.79,6.4,6.4,0,0,0-2.47,2.15,5.38,5.38,0,0,0-.92,3.09,5.62,5.62,0,0,0,1,3.31,6.23,6.23,0,0,0,2.53,2.09,8,8,0,0,0,3.38.72,8.79,8.79,0,0,0,3-.48,5.73,5.73,0,0,0,2.16-1.31,2.64,2.64,0,0,0,.81-1.89h-5.93V34.42h8.64c0,.21.06.42.08.63s0,.41,0,.62a7.75,7.75,0,0,1-.41,2.5,6.4,6.4,0,0,1-1.13,2.06,7.31,7.31,0,0,1-3,2.14,11.68,11.68,0,0,1-4.38.77,11.14,11.14,0,0,1-3.63-.6,9.31,9.31,0,0,1-3-1.73,8.16,8.16,0,0,1-2-2.73,8.46,8.46,0,0,1-.74-3.58,7.77,7.77,0,0,1,.73-3.38,8.53,8.53,0,0,1,2-2.71,9.65,9.65,0,0,1,3.06-1.81A11,11,0,0,1,165.52,26Z"/><path class="cls-2" d="M195.88,43.25a11.51,11.51,0,0,1-3.52-1,3.78,3.78,0,0,1-1.68-1.56,4.46,4.46,0,0,1-.47-2.06l0-2.28c0-1.84-1-2.79-3-2.83h-1v-2h1.08a3,3,0,0,0,2.23-.84,2.91,2.91,0,0,0,.75-2.09l0-2.28a3.71,3.71,0,0,1,1.3-3,9.32,9.32,0,0,1,4.37-1.62l.43,1.85a10.12,10.12,0,0,0-2.34.81,2.26,2.26,0,0,0-1,1,3.9,3.9,0,0,0-.25,1.46l0,2.09a3.46,3.46,0,0,1-.77,2.33,3.94,3.94,0,0,1-2.06,1.22A4.2,4.2,0,0,1,192,33.72a3.45,3.45,0,0,1,.74,2.28l0,2.09a3.81,3.81,0,0,0,.25,1.45,2.28,2.28,0,0,0,1,1,10.41,10.41,0,0,0,2.34.84Z"/><path class="cls-2" d="M203.12,38.71a2.29,2.29,0,0,1-1.62-.49,1.73,1.73,0,0,1-.51-1.31,1.77,1.77,0,0,1,.51-1.24,2.14,2.14,0,0,1,1.62-.56,2.26,2.26,0,0,1,1.6.5,1.71,1.71,0,0,1,.51,1.3,1.82,1.82,0,0,1-.51,1.24A2.06,2.06,0,0,1,203.12,38.71Z"/><path class="cls-2" d="M212.89,38.71a2.29,2.29,0,0,1-1.62-.49,1.74,1.74,0,0,1-.52-1.31,1.78,1.78,0,0,1,.52-1.24,2.14,2.14,0,0,1,1.62-.56,2.26,2.26,0,0,1,1.6.5,1.71,1.71,0,0,1,.51,1.3,1.82,1.82,0,0,1-.51,1.24A2.06,2.06,0,0,1,212.89,38.71Z"/><path class="cls-2" d="M222.66,38.71a2.26,2.26,0,0,1-1.62-.49,1.7,1.7,0,0,1-.52-1.31,1.73,1.73,0,0,1,.52-1.24,2.11,2.11,0,0,1,1.62-.56,2.21,2.21,0,0,1,1.59.5,1.68,1.68,0,0,1,.52,1.3,1.79,1.79,0,0,1-.52,1.24A2,2,0,0,1,222.66,38.71Z"/><path class="cls-2" d="M229.88,21.65a11.51,11.51,0,0,1,3.52,1,3.78,3.78,0,0,1,1.68,1.56,4.46,4.46,0,0,1,.47,2.06l0,2.28c0,1.84,1,2.79,3,2.83h1v2H238.5a3,3,0,0,0-2.23.84,2.91,2.91,0,0,0-.75,2.09l0,2.28a3.71,3.71,0,0,1-1.3,3,9.32,9.32,0,0,1-4.37,1.62l-.43-1.85a10.12,10.12,0,0,0,2.34-.81,2.19,2.19,0,0,0,1-1,3.7,3.7,0,0,0,.26-1.46L233,36a3.46,3.46,0,0,1,.76-2.33,4,4,0,0,1,2.07-1.22,4.15,4.15,0,0,1-2.09-1.27A3.45,3.45,0,0,1,233,28.9l.05-2.09a3.62,3.62,0,0,0-.26-1.45,2.2,2.2,0,0,0-1-1,10.41,10.41,0,0,0-2.34-.84Z"/></g></g></svg>