<svg width="20" height="20" viewBox="0 0 20 20" fill="none" xmlns="http://www.w3.org/2000/svg">
<g clip-path="url(#clip0)">
<rect width="20" height="20" fill="#FFFAFA"/>
<path d="M17.2142 11.1291C16.5158 11.1324 15.9108 11.3008 15.4033 11.5508C15.2175 11.1808 15.03 10.8549 14.9983 10.6124C14.9617 10.3299 14.9192 10.1608 14.9633 9.8241C15.0075 9.48743 15.2025 9.01077 15.2 8.97493C15.1975 8.9391 15.1567 8.76743 14.7533 8.76493C14.35 8.76243 14.0058 8.84243 13.965 8.9491C13.9242 9.05577 13.8467 9.29493 13.7983 9.54493C13.7275 9.90993 12.9942 11.2133 12.5775 11.8949C12.4408 11.6291 12.325 11.3941 12.3008 11.2091C12.2642 10.9266 12.2217 10.7574 12.2658 10.4208C12.31 10.0841 12.505 9.60743 12.5025 9.5716C12.5 9.53577 12.4592 9.3641 12.0558 9.3616C11.6525 9.3591 11.3083 9.4391 11.2675 9.54577C11.2267 9.65243 11.1833 9.90077 11.1008 10.1416C11.0183 10.3824 10.0425 12.5558 9.78751 13.1191C9.65751 13.4058 9.54417 13.6366 9.46417 13.7941L9.46334 13.7933C9.46334 13.7933 9.45834 13.8041 9.45001 13.8216C9.38167 13.9558 9.34084 14.0299 9.34084 14.0299C9.34084 14.0299 9.34167 14.0308 9.34167 14.0324C9.28751 14.1308 9.22917 14.2224 9.20001 14.2224C9.18001 14.2224 9.13917 13.9608 9.20917 13.6008C9.35417 12.8466 9.70334 11.6708 9.69917 11.6308C9.69751 11.6099 9.76417 11.4049 9.47167 11.2983C9.18751 11.1941 9.08584 11.3674 9.06001 11.3683C9.03501 11.3691 9.01584 11.4299 9.01584 11.4299C9.01584 11.4299 9.33251 10.1074 8.41167 10.1074C7.83584 10.1074 7.03834 10.7374 6.64501 11.3083C6.39667 11.4433 5.86584 11.7333 5.30334 12.0424C5.08667 12.1616 4.86667 12.2824 4.65667 12.3983C4.64251 12.3824 4.62834 12.3666 4.61334 12.3508C3.49667 11.1591 1.43167 10.3166 1.51917 8.71493C1.55084 8.13243 1.75334 6.5991 5.48584 4.7391C8.54334 3.21577 10.9917 3.63493 11.4142 4.5641C12.0183 5.8916 10.1058 8.3591 6.93084 8.71493C5.72084 8.85077 5.08417 8.3816 4.92584 8.20743C4.75917 8.02327 4.73417 8.01493 4.67167 8.04993C4.57001 8.10577 4.63417 8.26827 4.67167 8.36493C4.76667 8.6116 5.15584 9.0491 5.81917 9.2666C6.40251 9.45827 7.82334 9.56327 9.54084 8.8991C11.465 8.15493 12.9675 6.08493 12.5258 4.3541C12.0767 2.5941 9.15917 2.01577 6.39667 2.9966C4.75501 3.57743 2.97584 4.4941 1.69667 5.69077C0.17584 7.11327 -0.0674938 8.35243 0.0325062 8.86993C0.387506 10.7083 2.92167 11.9058 3.93667 12.7933C3.88667 12.8208 3.84001 12.8466 3.79667 12.8708C3.28751 13.1224 1.35584 14.1333 0.872506 15.2016C0.324173 16.4133 0.960006 17.2824 1.38001 17.3999C2.68334 17.7624 4.02084 17.1099 4.73917 16.0383C5.45751 14.9666 5.37001 13.5708 5.04001 12.9341C5.03584 12.9266 5.03167 12.9183 5.02751 12.9108C5.15917 12.8333 5.29251 12.7541 5.42584 12.6758C5.68501 12.5241 5.93917 12.3816 6.15917 12.2616C6.03584 12.5999 5.94501 13.0049 5.89834 13.5908C5.84417 14.2774 6.12667 15.1666 6.49501 15.5166C6.65751 15.6708 6.85251 15.6741 6.97667 15.6741C7.40584 15.6741 7.60167 15.3174 7.81751 14.8949C8.08167 14.3766 8.31667 13.7741 8.31667 13.7741C8.31667 13.7741 8.02251 15.4033 8.82501 15.4033C9.11751 15.4033 9.41167 15.0241 9.54251 14.8308C9.54251 14.8333 9.54334 14.8341 9.54334 14.8341C9.54334 14.8341 9.55084 14.8216 9.56584 14.7966C9.59584 14.7499 9.61334 14.7208 9.61334 14.7208C9.61334 14.7208 9.61417 14.7174 9.61501 14.7124C9.73251 14.5083 9.99334 14.0433 10.3842 13.2758C10.8892 12.2841 11.3733 11.0424 11.3733 11.0424C11.3733 11.0424 11.4183 11.3458 11.5658 11.8483C11.6525 12.1433 11.8375 12.4699 11.9825 12.7833C11.865 12.9458 11.7933 13.0391 11.7933 13.0391C11.7933 13.0391 11.7942 13.0408 11.795 13.0441C11.7017 13.1683 11.5967 13.3024 11.4867 13.4333C11.0883 13.9083 10.6133 14.4499 10.55 14.6066C10.475 14.7908 10.4925 14.9266 10.6375 15.0358C10.7433 15.1158 10.9317 15.1274 11.1283 15.1149C11.4867 15.0908 11.7383 15.0016 11.8633 14.9483C12.0575 14.8799 12.2833 14.7716 12.495 14.6158C12.8858 14.3283 13.1217 13.9166 13.0992 13.3724C13.0867 13.0724 12.9908 12.7749 12.87 12.4941C12.9058 12.4433 12.9408 12.3916 12.9767 12.3391C13.5933 11.4383 14.0717 10.4474 14.0717 10.4474C14.0717 10.4474 14.1167 10.7508 14.2642 11.2533C14.3392 11.5074 14.4858 11.7849 14.6192 12.0566C14.0392 12.5274 13.68 13.0749 13.555 13.4341C13.3242 14.0983 13.505 14.3991 13.8442 14.4674C13.9975 14.4983 14.215 14.4283 14.3775 14.3591C14.5808 14.2916 14.8242 14.1799 15.0525 14.0124C15.4433 13.7249 15.8192 13.3224 15.7967 12.7774C15.7867 12.5291 15.7192 12.2833 15.6275 12.0466C16.1192 11.8416 16.755 11.7283 17.565 11.8224C19.3033 12.0258 19.6442 13.1108 19.5792 13.5649C19.5142 14.0191 19.1492 14.2691 19.0275 14.3441C18.9058 14.4191 18.8683 14.4458 18.8783 14.5016C18.8933 14.5833 18.9492 14.5799 19.0533 14.5624C19.1967 14.5383 19.9658 14.1933 19.9992 13.3541C20.0408 12.2883 19.0208 11.1191 17.2142 11.1291ZM3.81501 15.6458C3.23917 16.2741 2.43501 16.5116 2.09001 16.3116C1.71751 16.0958 1.86501 15.1708 2.57167 14.5041C3.00251 14.0983 3.55834 13.7241 3.92751 13.4933C4.01167 13.4424 4.13501 13.3683 4.28501 13.2791C4.31001 13.2649 4.32417 13.2574 4.32417 13.2574L4.32334 13.2566C4.35251 13.2391 4.38167 13.2216 4.41251 13.2033C4.66917 14.1516 4.41917 14.9866 3.81501 15.6458ZM8.01001 12.7941C7.80917 13.2833 7.39001 14.5341 7.13417 14.4666C6.91501 14.4091 6.78167 13.4583 7.09001 12.5224C7.24584 12.0516 7.57751 11.4883 7.77334 11.2699C8.08751 10.9183 8.43334 10.8033 8.51751 10.9458C8.62501 11.1283 8.13584 12.4883 8.01001 12.7941ZM11.475 14.4483C11.39 14.4924 11.3117 14.5208 11.2758 14.4991C11.2492 14.4833 11.3108 14.4249 11.3108 14.4249C11.3108 14.4249 11.7442 13.9583 11.915 13.7466C12.0142 13.6233 12.1292 13.4766 12.255 13.3124C12.2558 13.3291 12.2567 13.3449 12.2567 13.3608C12.2558 13.9191 11.7158 14.2966 11.475 14.4483ZM14.145 13.8391C14.0817 13.7941 14.0925 13.6483 14.3008 13.1941C14.3825 13.0158 14.5692 12.7158 14.8942 12.4283C14.9317 12.5466 14.955 12.6591 14.9542 12.7649C14.95 13.4683 14.4483 13.7308 14.145 13.8391Z" fill="black"/>
</g>
<defs>
<clipPath id="clip0">
<rect width="20" height="20" fill="white"/>
</clipPath>
</defs>
</svg>
