<svg width="33" height="29" viewBox="0 0 33 29" fill="none" xmlns="http://www.w3.org/2000/svg">
<path d="M30.4593 0.00249165C30.0124 0.0213806 29.596 0.146089 29.2294 0.288042C28.886 0.420366 27.5741 0.959436 25.5076 1.8084C23.4393 2.65811 20.7007 3.78451 17.7793 4.98805C11.9366 7.39511 5.36778 10.1046 2.00323 11.4914C1.87671 11.5435 1.43526 11.6786 0.966705 12.029C0.498155 12.3795 0 13.1056 0 13.9147C0 14.5671 0.324562 15.2153 0.733085 15.6023C1.14161 15.9893 1.57388 16.1804 1.94415 16.3252C3.28763 16.8503 7.45433 18.4838 8.24116 18.7922C8.51807 19.6049 10.0262 24.0246 10.376 25.1078C10.6065 25.8226 10.826 26.2703 11.1117 26.6256C11.2546 26.8032 11.4207 26.9589 11.6219 27.0809C11.7024 27.1297 11.7906 27.1672 11.8797 27.2018L11.8851 27.2044C11.9056 27.2123 11.9234 27.2257 11.9442 27.2327C11.9835 27.2458 12.0098 27.2474 12.0623 27.2584C12.2718 27.3232 12.4832 27.3639 12.6719 27.3639C13.4764 27.3639 13.9689 26.9394 13.9689 26.9394L13.9984 26.9188L18.1365 23.4897L23.1553 28.0379C23.2259 28.1336 23.885 29 25.3384 29C26.2014 29 26.886 28.5851 27.3255 28.1433C27.7651 27.7016 28.0389 27.2374 28.1553 26.6539V26.6513C28.2642 26.0998 32.8895 3.35192 32.8895 3.35192L32.8814 3.38279C33.0168 2.79072 33.0523 2.23933 32.9029 1.69521C32.7535 1.15109 32.3598 0.630126 31.8717 0.349783C31.3837 0.0695016 30.9062 -0.0163975 30.4593 0.00249165ZM30.2015 2.75509C30.1949 2.79353 30.2064 2.7742 30.1961 2.81941L30.1934 2.83484L30.1907 2.85028C30.1907 2.85028 25.6227 25.3072 25.4539 26.1625C25.4662 26.0979 25.4098 26.2263 25.3518 26.304C25.27 26.2499 25.1021 26.1805 25.1021 26.1805L25.0753 26.1522L18.2197 19.9396L13.3728 23.9527L14.8148 18.4218C14.8148 18.4218 23.8286 9.48287 24.3717 8.9626C24.8089 8.54638 24.9007 8.40129 24.9007 8.25773C24.9007 8.06542 24.7961 7.92587 24.5624 7.92587C24.352 7.92587 24.0691 8.12179 23.9179 8.21399C21.9476 9.41725 13.2975 14.247 9.42001 16.4075C8.80381 16.1659 4.52286 14.4871 3.07197 13.9199C3.08296 13.9152 3.07934 13.9169 3.09077 13.9121C6.45621 12.525 13.0223 9.81552 18.8642 7.40879C21.7851 6.20543 24.5258 5.07817 26.5925 4.22915C28.6272 3.3932 30.0411 2.81788 30.2015 2.75509Z" fill="white"/>
</svg>
