<svg width="20" height="20" viewBox="0 0 20 20" fill="none" xmlns="http://www.w3.org/2000/svg">
<path d="M1.81818 0C0.813636 0 0 0.813636 0 1.81818V18.1818C0 19.1864 0.813636 20 1.81818 20H18.1818C19.1864 20 20 19.1864 20 18.1818V1.81818C20 0.813636 19.1864 0 18.1818 0H1.81818ZM14.2365 4.77095C14.802 4.77095 15.1882 5.13141 15.1882 5.62322C15.1882 6.11504 14.802 6.4755 14.2365 6.4755C13.6774 6.4755 13.2866 6.11504 13.2866 5.62322C13.2866 5.13141 13.6774 4.77095 14.2365 4.77095ZM7.08452 5.41193H8.88672L12.0739 14.3803H10.3533L9.59517 12.0881H6.29616L5.52379 14.3803H3.9027L7.08452 5.41193ZM7.89773 7.12003L6.66904 10.8185H9.2223L8.00426 7.12003H7.89773ZM13.473 7.58168H15.0071V14.3803H13.473V7.58168Z" fill="white"/>
</svg>
