<svg width="16" height="21" viewBox="0 0 16 21" fill="none" xmlns="http://www.w3.org/2000/svg">
<path d="M5.2 0C2.7736 0 0.8 1.78645 0.8 3.98276C0.8 5.18332 1.39241 6.25884 2.32344 6.98963C0.941895 7.66207 0 8.98329 0 10.5C0 11.8473 0.745325 13.0376 1.87969 13.7586C0.745325 14.4797 0 15.6699 0 17.0172C0 19.2136 1.9736 21 4.4 21C6.8264 21 8.8 19.2136 8.8 17.0172V13.0345V7.96552H11.6C14.0264 7.96552 16 6.17907 16 3.98276C16 1.78645 14.0264 0 11.6 0H5.2ZM5.2 1.44828H11.6C13.144 1.44828 14.4 2.58517 14.4 3.98276C14.4 5.38034 13.144 6.51724 11.6 6.51724H8.8H5.2C3.656 6.51724 2.4 5.38034 2.4 3.98276C2.4 2.58517 3.656 1.44828 5.2 1.44828ZM4.4 7.96552H5.2H7.2V13.0345H4.4C2.856 13.0345 1.6 11.8976 1.6 10.5C1.6 9.10241 2.856 7.96552 4.4 7.96552ZM12 7.96552C11.1513 7.96552 10.3374 8.27069 9.73726 8.8139C9.13714 9.35711 8.8 10.0939 8.8 10.8621C8.8 11.6303 9.13714 12.367 9.73726 12.9102C10.3374 13.4534 11.1513 13.7586 12 13.7586C12.8487 13.7586 13.6626 13.4534 14.2627 12.9102C14.8629 12.367 15.2 11.6303 15.2 10.8621C15.2 10.0939 14.8629 9.35711 14.2627 8.8139C13.6626 8.27069 12.8487 7.96552 12 7.96552V7.96552ZM4.4 14.4828H7.2V17.0172C7.2 18.4148 5.944 19.5517 4.4 19.5517C2.856 19.5517 1.6 18.4148 1.6 17.0172C1.6 15.6197 2.856 14.4828 4.4 14.4828Z" fill="white"/>
</svg>
