<svg width="20" height="20" viewBox="0 0 20 20" fill="none" xmlns="http://www.w3.org/2000/svg">
<path d="M18.1818 0H1.81818C0.813636 0 0 0.813636 0 1.81818V18.1818C0 19.1864 0.813636 20 1.81818 20H18.1818C19.1864 20 20 19.1864 20 18.1818V1.81818C20 0.813636 19.1864 0 18.1818 0ZM10.3209 14.4836H4.60273V5.51636H6.20636V13.0791H10.32V14.4836H10.3209ZM15.8945 9.07091C15.7764 9.02727 15.3536 8.98364 15.1118 8.98364C14.1236 8.98364 13.4273 9.60545 13.4273 10.5555V14.4827H11.8864V7.68364H13.3718V8.74H13.4773C13.6636 8.06909 14.3909 7.57182 15.2609 7.57182C15.4782 7.57182 15.7455 7.59636 15.8945 7.64V9.07091V9.07091Z" fill="#FFFAFA"/>
</svg>
