<svg width="20" height="20" viewBox="0 0 20 20" fill="none" xmlns="http://www.w3.org/2000/svg">
<path d="M1.81818 0C0.813636 0 0 0.813636 0 1.81818V18.1818C0 19.1864 0.813636 20 1.81818 20H18.1818C19.1864 20 20 19.1864 20 18.1818V1.81818C20 0.813636 19.1864 0 18.1818 0H1.81818ZM3.63636 5.44744H7.2532C9.0432 5.44744 10.2681 6.67193 10.2681 8.48011C10.2681 10.2574 8.99849 11.4755 7.18395 11.4755H5.2397V14.4158H3.63636V5.44744ZM5.2397 6.78977V10.1456H6.82528C7.96892 10.1456 8.63992 9.5492 8.63992 8.48011C8.63992 7.38102 7.98607 6.78977 6.83061 6.78977H5.2397ZM13.8246 7.47869C15.44 7.47869 16.4542 8.19368 16.5661 9.43004H15.119C15.0071 8.95186 14.5526 8.64702 13.8317 8.64702C13.1299 8.64702 12.6012 8.98352 12.6012 9.47443C12.6012 9.85989 12.9243 10.0958 13.608 10.2504L14.8065 10.5238C16.1056 10.8156 16.7081 11.3757 16.7081 12.3757C16.7081 13.6821 15.5085 14.5526 13.8121 14.5526C12.1158 14.5526 11.0468 13.818 10.9286 12.5817H12.4521C12.6012 13.0853 13.0785 13.3842 13.8494 13.3842C14.6258 13.3842 15.1669 13.0427 15.1669 12.5391C15.1669 12.1536 14.8758 11.9103 14.2294 11.7667L13.0238 11.4879C11.7183 11.1897 11.1044 10.5869 11.1044 9.56143C11.1044 8.33053 12.2209 7.47869 13.8246 7.47869Z" fill="#FFFAFA"/>
</svg>
